<svg width="32" height="36" viewBox="0 0 32 36" fill="none" xmlns="http://www.w3.org/2000/svg">
<path d="M28.0159 2H3.78146C2.17518 2 1.22425 3.79795 2.12831 5.12566L9.40627 15.8141C10.3374 17.1816 11.8847 18 13.5391 18H17.5694C19.1488 18 20.6354 17.2538 21.579 15.9873L29.6197 5.1949C30.6026 3.87564 29.661 2 28.0159 2Z" stroke="#3A3A3A" stroke-width="3"/>
<path d="M11 24H21" stroke="#3A3A3A" stroke-width="3" stroke-linecap="round"/>
<path d="M19 29H12.5C11.9477 29 11.5 29.4477 11.5 30V31.8303C11.5 32.2355 11.7445 32.6007 12.1193 32.755L17.2385 34.8629C18.5548 35.4049 20 34.4371 20 33.0136V30C20 29.4477 19.5523 29 19 29Z" fill="#3A3A3A"/>
</svg>
