<svg width="96" height="24" viewBox="0 0 96 24" fill="none" xmlns="http://www.w3.org/2000/svg">
<path d="M2.972 21V4.2H13.556V6.048H4.868V11.664H12.428V13.512H4.868V21H2.972ZM16.55 21V3.24H18.374V21H16.55ZM26.5777 21.24C25.4897 21.24 24.5057 20.96 23.6257 20.4C22.7457 19.824 22.0497 19.048 21.5377 18.072C21.0257 17.08 20.7697 15.96 20.7697 14.712C20.7697 13.448 21.0337 12.328 21.5617 11.352C22.0897 10.36 22.8017 9.584 23.6977 9.024C24.5937 8.464 25.5937 8.184 26.6977 8.184C27.7057 8.184 28.6017 8.416 29.3857 8.88C30.1857 9.344 30.7937 9.944 31.2097 10.68L31.2577 8.448H33.0817V21H31.2337V18.768C30.7857 19.472 30.1457 20.064 29.3137 20.544C28.4817 21.008 27.5697 21.24 26.5777 21.24ZM26.9857 19.488C27.8177 19.488 28.5617 19.288 29.2177 18.888C29.8737 18.472 30.3857 17.904 30.7537 17.184C31.1377 16.464 31.3297 15.632 31.3297 14.688C31.3297 13.776 31.1377 12.96 30.7537 12.24C30.3857 11.52 29.8737 10.96 29.2177 10.56C28.5617 10.144 27.8177 9.936 26.9857 9.936C26.1377 9.936 25.3857 10.144 24.7297 10.56C24.0897 10.96 23.5857 11.52 23.2177 12.24C22.8497 12.96 22.6657 13.776 22.6657 14.688C22.6657 15.616 22.8497 16.448 23.2177 17.184C23.5857 17.904 24.0897 18.472 24.7297 18.888C25.3857 19.288 26.1377 19.488 26.9857 19.488ZM39.3999 21L35.0319 8.448H36.9759L40.0719 17.808L43.4079 10.392H44.5119L47.7999 17.688L50.9199 8.448H52.8399L48.4959 21H47.4159L43.9119 12.96L40.5039 21H39.3999ZM55.0109 21V3.24H56.8349V21H55.0109ZM65.6866 21.24C64.4226 21.24 63.3026 20.968 62.3266 20.424C61.3666 19.88 60.6146 19.12 60.0706 18.144C59.5266 17.168 59.2546 16.048 59.2546 14.784C59.2546 13.504 59.5186 12.368 60.0466 11.376C60.5746 10.384 61.3106 9.608 62.2546 9.048C63.1986 8.472 64.2786 8.184 65.4946 8.184C66.6146 8.184 67.5986 8.448 68.4466 8.976C69.3106 9.488 69.9746 10.2 70.4386 11.112C70.9026 12.008 71.1186 13.048 71.0866 14.232L71.0626 15.072H61.1266C61.2066 16.432 61.6706 17.512 62.5186 18.312C63.3666 19.112 64.4946 19.512 65.9026 19.512C66.5106 19.512 67.1026 19.416 67.6786 19.224C68.2706 19.016 68.9186 18.616 69.6226 18.024L70.5586 19.344C69.9986 19.888 69.2866 20.344 68.4226 20.712C67.5586 21.064 66.6466 21.24 65.6866 21.24ZM65.4706 9.912C64.3186 9.912 63.3666 10.224 62.6146 10.848C61.8626 11.456 61.3906 12.352 61.1986 13.536H69.2386V13.392C69.2066 12.816 69.0386 12.264 68.7346 11.736C68.4306 11.192 67.9986 10.752 67.4386 10.416C66.8946 10.08 66.2386 9.912 65.4706 9.912ZM77.7941 21.24C76.7061 21.24 75.7381 21.048 74.8901 20.664C74.0581 20.264 73.3861 19.728 72.8741 19.056L74.1701 17.928C75.0821 19.064 76.3381 19.632 77.9381 19.632C78.7061 19.632 79.3301 19.464 79.8101 19.128C80.3061 18.776 80.5541 18.296 80.5541 17.688C80.5541 17.176 80.3301 16.752 79.8821 16.416C79.6741 16.256 79.3781 16.104 78.9941 15.96C78.6101 15.816 78.1461 15.664 77.6021 15.504C76.7061 15.264 75.9621 15.008 75.3701 14.736C74.7781 14.464 74.3141 14.152 73.9781 13.8C73.4981 13.256 73.2581 12.576 73.2581 11.76C73.2581 11.072 73.4421 10.464 73.8101 9.936C74.1941 9.392 74.7141 8.968 75.3701 8.664C76.0421 8.344 76.7941 8.184 77.6261 8.184C78.5221 8.184 79.3861 8.376 80.2181 8.76C81.0661 9.128 81.7541 9.608 82.2821 10.2L81.1541 11.424C80.6741 10.928 80.1381 10.528 79.5461 10.224C78.9701 9.92 78.3621 9.768 77.7221 9.768C76.9381 9.768 76.3061 9.944 75.8261 10.296C75.3621 10.648 75.1301 11.112 75.1301 11.688C75.1301 12.152 75.3141 12.536 75.6821 12.84C75.9061 13.016 76.2181 13.184 76.6181 13.344C77.0341 13.488 77.5461 13.64 78.1541 13.8C78.8421 13.992 79.4341 14.192 79.9301 14.4C80.4261 14.592 80.8341 14.824 81.1541 15.096C81.9541 15.704 82.3541 16.536 82.3541 17.592C82.3541 18.296 82.1541 18.928 81.7541 19.488C81.3541 20.032 80.8101 20.464 80.1221 20.784C79.4341 21.088 78.6581 21.24 77.7941 21.24ZM89.2784 21.24C88.1904 21.24 87.2224 21.048 86.3744 20.664C85.5424 20.264 84.8704 19.728 84.3584 19.056L85.6544 17.928C86.5664 19.064 87.8224 19.632 89.4224 19.632C90.1904 19.632 90.8144 19.464 91.2944 19.128C91.7904 18.776 92.0384 18.296 92.0384 17.688C92.0384 17.176 91.8144 16.752 91.3664 16.416C91.1584 16.256 90.8624 16.104 90.4784 15.96C90.0944 15.816 89.6304 15.664 89.0864 15.504C88.1904 15.264 87.4464 15.008 86.8544 14.736C86.2624 14.464 85.7984 14.152 85.4624 13.8C84.9824 13.256 84.7424 12.576 84.7424 11.76C84.7424 11.072 84.9264 10.464 85.2944 9.936C85.6784 9.392 86.1984 8.968 86.8544 8.664C87.5264 8.344 88.2784 8.184 89.1104 8.184C90.0064 8.184 90.8704 8.376 91.7024 8.76C92.5504 9.128 93.2384 9.608 93.7664 10.2L92.6384 11.424C92.1584 10.928 91.6224 10.528 91.0304 10.224C90.4544 9.92 89.8464 9.768 89.2064 9.768C88.4224 9.768 87.7904 9.944 87.3104 10.296C86.8464 10.648 86.6144 11.112 86.6144 11.688C86.6144 12.152 86.7984 12.536 87.1664 12.84C87.3904 13.016 87.7024 13.184 88.1024 13.344C88.5184 13.488 89.0304 13.64 89.6384 13.8C90.3264 13.992 90.9184 14.192 91.4144 14.4C91.9104 14.592 92.3184 14.824 92.6384 15.096C93.4384 15.704 93.8384 16.536 93.8384 17.592C93.8384 18.296 93.6384 18.928 93.2384 19.488C92.8384 20.032 92.2944 20.464 91.6064 20.784C90.9184 21.088 90.1424 21.24 89.2784 21.24Z" fill="white"/>
</svg>
