<?xml version="1.0" encoding="UTF-8" standalone="no"?><!DOCTYPE svg PUBLIC "-//W3C//DTD SVG 1.1//EN" "http://www.w3.org/Graphics/SVG/1.1/DTD/svg11.dtd"><svg width="112px" height="29px" version="1.1" xmlns="http://www.w3.org/2000/svg" xmlns:xlink="http://www.w3.org/1999/xlink" xml:space="preserve" xmlns:serif="http://www.serif.com/" style="fill-rule:evenodd;clip-rule:evenodd;stroke-linejoin:round;stroke-miterlimit:2;"><g><path d="M0,1.152c0.256,0.01 0.599,0.02 1.029,0.031c0.44,0.01 0.876,0.015 1.306,0.015c0.491,0 0.967,-0.005 1.428,-0.015c0.461,-0.011 0.789,-0.016 0.983,-0.016c1.424,0 2.489,0.282 3.195,0.845c0.707,0.563 1.06,1.29 1.06,2.181c0,0.369 -0.072,0.758 -0.215,1.168c-0.143,0.399 -0.389,0.773 -0.737,1.121c-0.338,0.338 -0.804,0.614 -1.398,0.829c-0.594,0.215 -1.342,0.323 -2.243,0.323l-1.566,0l0,-0.307l1.413,0c0.604,0 1.06,-0.139 1.367,-0.415c0.317,-0.276 0.532,-0.64 0.645,-1.091c0.123,-0.45 0.184,-0.937 0.184,-1.459c0,-0.973 -0.143,-1.7 -0.43,-2.181c-0.287,-0.481 -0.778,-0.722 -1.474,-0.722c-0.4,0 -0.661,0.087 -0.784,0.261c-0.112,0.174 -0.169,0.528 -0.169,1.06l0,7.527c0,0.399 0.041,0.696 0.123,0.89c0.082,0.195 0.241,0.323 0.476,0.384c0.236,0.062 0.584,0.098 1.045,0.108l0,0.338c-0.318,-0.01 -0.727,-0.021 -1.229,-0.031c-0.502,-0.01 -1.029,-0.015 -1.582,-0.015c-0.44,0 -0.871,0.005 -1.29,0.015c-0.42,0.01 -0.799,0.021 -1.137,0.031l0,-0.307c0.328,-0.021 0.573,-0.062 0.737,-0.123c0.164,-0.062 0.272,-0.185 0.323,-0.369c0.061,-0.184 0.092,-0.461 0.092,-0.829l0,-7.619c0,-0.379 -0.031,-0.655 -0.092,-0.829c-0.051,-0.185 -0.164,-0.307 -0.338,-0.369c-0.164,-0.072 -0.405,-0.113 -0.722,-0.123l0,-0.307Zm12.67,-1.152l0,10.598c0,0.43 0.072,0.722 0.215,0.876c0.153,0.154 0.409,0.23 0.768,0.23l0,0.323c-0.195,-0.01 -0.487,-0.021 -0.876,-0.031c-0.389,-0.02 -0.783,-0.031 -1.182,-0.031c-0.4,0 -0.804,0.011 -1.214,0.031c-0.399,0.01 -0.701,0.021 -0.906,0.031l0,-0.323c0.358,0 0.609,-0.076 0.753,-0.23c0.153,-0.154 0.23,-0.446 0.23,-0.876l0,-8.755c0,-0.461 -0.072,-0.799 -0.215,-1.014c-0.133,-0.225 -0.389,-0.337 -0.768,-0.337l0,-0.323c0.328,0.031 0.645,0.046 0.952,0.046c0.42,0 0.819,-0.015 1.198,-0.046c0.379,-0.041 0.727,-0.097 1.045,-0.169Zm3.664,12.134c-0.686,0 -1.183,-0.179 -1.49,-0.537c-0.307,-0.359 -0.461,-0.794 -0.461,-1.306c0,-0.44 0.097,-0.799 0.292,-1.075c0.205,-0.276 0.466,-0.502 0.783,-0.676c0.318,-0.184 0.651,-0.333 0.999,-0.445c0.358,-0.123 0.696,-0.241 1.014,-0.354c0.327,-0.122 0.588,-0.261 0.783,-0.414c0.205,-0.154 0.307,-0.348 0.307,-0.584l0,-1.198c0,-0.266 -0.046,-0.502 -0.138,-0.707c-0.082,-0.215 -0.215,-0.378 -0.399,-0.491c-0.175,-0.113 -0.405,-0.169 -0.692,-0.169c-0.204,0 -0.409,0.031 -0.614,0.092c-0.205,0.051 -0.374,0.143 -0.507,0.277c0.287,0.102 0.507,0.261 0.661,0.476c0.163,0.205 0.245,0.44 0.245,0.706c0,0.348 -0.123,0.625 -0.368,0.83c-0.236,0.205 -0.517,0.307 -0.845,0.307c-0.369,0 -0.65,-0.113 -0.845,-0.338c-0.184,-0.236 -0.276,-0.517 -0.276,-0.845c0,-0.297 0.071,-0.543 0.215,-0.737c0.153,-0.195 0.363,-0.379 0.629,-0.553c0.287,-0.164 0.63,-0.292 1.029,-0.384c0.41,-0.092 0.85,-0.138 1.321,-0.138c0.471,0 0.896,0.051 1.275,0.153c0.379,0.092 0.697,0.267 0.953,0.523c0.235,0.235 0.389,0.527 0.46,0.875c0.072,0.338 0.108,0.768 0.108,1.29l0,4.178c0,0.246 0.026,0.42 0.077,0.522c0.051,0.103 0.138,0.154 0.261,0.154c0.102,0 0.2,-0.026 0.292,-0.077c0.092,-0.051 0.179,-0.112 0.261,-0.184l0.153,0.261c-0.215,0.184 -0.465,0.328 -0.752,0.43c-0.277,0.092 -0.589,0.138 -0.937,0.138c-0.615,0 -1.024,-0.122 -1.229,-0.368c-0.195,-0.256 -0.297,-0.548 -0.307,-0.876c-0.256,0.42 -0.574,0.732 -0.952,0.937c-0.369,0.205 -0.804,0.307 -1.306,0.307Zm1.183,-0.983c0.194,0 0.373,-0.046 0.537,-0.138c0.174,-0.092 0.343,-0.256 0.507,-0.491l0,-3.149c-0.123,0.205 -0.297,0.379 -0.522,0.522c-0.215,0.133 -0.44,0.282 -0.676,0.445c-0.225,0.154 -0.415,0.354 -0.568,0.6c-0.154,0.245 -0.231,0.573 -0.231,0.983c0,0.44 0.092,0.757 0.277,0.952c0.184,0.184 0.409,0.276 0.676,0.276Zm12.115,-7.065l0,0.307c-0.194,0.051 -0.378,0.174 -0.552,0.369c-0.175,0.184 -0.344,0.501 -0.507,0.952l-2.166,6.082l-0.568,1.076l-3.349,-7.604c-0.174,-0.399 -0.348,-0.64 -0.522,-0.721c-0.164,-0.093 -0.307,-0.139 -0.43,-0.139l0,-0.322c0.338,0.03 0.686,0.056 1.044,0.077c0.369,0.01 0.722,0.015 1.06,0.015c0.42,0 0.804,-0.01 1.152,-0.031c0.348,-0.02 0.676,-0.041 0.983,-0.061l0,0.322c-0.205,0 -0.399,0.016 -0.584,0.046c-0.174,0.021 -0.297,0.093 -0.368,0.215c-0.062,0.113 -0.031,0.313 0.092,0.599l1.935,4.67l-0.138,0.092l1.137,-3.179c0.286,-0.83 0.332,-1.434 0.138,-1.813c-0.195,-0.389 -0.538,-0.604 -1.029,-0.645l0,-0.307c0.235,0.01 0.491,0.02 0.768,0.03c0.276,0.011 0.517,0.016 0.722,0.016c0.205,0 0.42,-0.005 0.645,-0.016c0.225,-0.01 0.404,-0.02 0.537,-0.03Zm-3.225,7.71l-0.584,1.644c-0.194,0.522 -0.42,0.886 -0.676,1.091c-0.143,0.122 -0.327,0.215 -0.553,0.276c-0.225,0.072 -0.486,0.108 -0.783,0.108c-0.246,0 -0.502,-0.041 -0.768,-0.123c-0.256,-0.082 -0.471,-0.215 -0.645,-0.4c-0.174,-0.184 -0.261,-0.42 -0.261,-0.706c0,-0.318 0.112,-0.574 0.338,-0.768c0.225,-0.185 0.522,-0.277 0.891,-0.277c0.338,0 0.614,0.082 0.829,0.246c0.215,0.164 0.323,0.405 0.323,0.722c0,0.205 -0.067,0.399 -0.2,0.584c-0.123,0.184 -0.312,0.322 -0.568,0.414c0.051,0.011 0.112,0.016 0.184,0.016l0.169,0c0.307,0 0.578,-0.098 0.814,-0.292c0.235,-0.195 0.43,-0.502 0.584,-0.922l0.537,-1.582l0.369,-0.031Zm7.524,-11.781c0.359,0 0.671,0.046 0.937,0.139c0.267,0.092 0.502,0.215 0.707,0.368c0.143,0.113 0.266,0.272 0.369,0.476c0.102,0.195 0.153,0.42 0.153,0.676c0,0.277 -0.102,0.522 -0.307,0.738c-0.195,0.215 -0.456,0.322 -0.783,0.322c-0.338,0 -0.62,-0.097 -0.845,-0.292c-0.215,-0.194 -0.323,-0.461 -0.323,-0.798c0,-0.267 0.077,-0.502 0.231,-0.707c0.153,-0.205 0.379,-0.348 0.676,-0.43c-0.031,-0.062 -0.093,-0.113 -0.185,-0.154c-0.092,-0.041 -0.215,-0.061 -0.368,-0.061c-0.205,0 -0.374,0.036 -0.507,0.107c-0.133,0.072 -0.241,0.169 -0.323,0.292c-0.113,0.154 -0.189,0.379 -0.23,0.676c-0.041,0.287 -0.062,0.732 -0.062,1.336l0,1.398l1.644,0l0,0.307l-1.644,0l0,6.037c0,0.502 0.128,0.839 0.384,1.014c0.256,0.163 0.61,0.245 1.06,0.245l0,0.323c-0.266,-0.01 -0.64,-0.021 -1.121,-0.031c-0.481,-0.02 -0.988,-0.031 -1.521,-0.031c-0.389,0 -0.773,0.011 -1.152,0.031c-0.368,0.01 -0.65,0.021 -0.845,0.031l0,-0.323c0.359,0 0.61,-0.076 0.753,-0.23c0.154,-0.154 0.23,-0.446 0.23,-0.876l0,-6.19l-1.044,0l0,-0.307l1.044,0c0,-0.911 0.072,-1.602 0.215,-2.073c0.144,-0.482 0.395,-0.896 0.753,-1.245c0.225,-0.215 0.522,-0.394 0.891,-0.537c0.379,-0.154 0.783,-0.231 1.213,-0.231Zm3.373,12.119c-0.686,0 -1.183,-0.179 -1.49,-0.537c-0.307,-0.359 -0.461,-0.794 -0.461,-1.306c0,-0.44 0.097,-0.799 0.292,-1.075c0.205,-0.276 0.466,-0.502 0.783,-0.676c0.318,-0.184 0.651,-0.333 0.999,-0.445c0.358,-0.123 0.696,-0.241 1.014,-0.354c0.327,-0.122 0.588,-0.261 0.783,-0.414c0.205,-0.154 0.307,-0.348 0.307,-0.584l0,-1.198c0,-0.266 -0.046,-0.502 -0.138,-0.707c-0.082,-0.215 -0.215,-0.378 -0.399,-0.491c-0.175,-0.113 -0.405,-0.169 -0.692,-0.169c-0.204,0 -0.409,0.031 -0.614,0.092c-0.205,0.051 -0.374,0.143 -0.507,0.277c0.287,0.102 0.507,0.261 0.661,0.476c0.163,0.205 0.245,0.44 0.245,0.706c0,0.348 -0.123,0.625 -0.368,0.83c-0.236,0.205 -0.517,0.307 -0.845,0.307c-0.369,0 -0.65,-0.113 -0.845,-0.338c-0.184,-0.236 -0.276,-0.517 -0.276,-0.845c0,-0.297 0.071,-0.543 0.215,-0.737c0.153,-0.195 0.363,-0.379 0.629,-0.553c0.287,-0.164 0.63,-0.292 1.029,-0.384c0.41,-0.092 0.85,-0.138 1.321,-0.138c0.471,0 0.896,0.051 1.275,0.153c0.379,0.092 0.697,0.267 0.953,0.523c0.235,0.235 0.389,0.527 0.46,0.875c0.072,0.338 0.108,0.768 0.108,1.29l0,4.178c0,0.246 0.026,0.42 0.077,0.522c0.051,0.103 0.138,0.154 0.261,0.154c0.102,0 0.2,-0.026 0.292,-0.077c0.092,-0.051 0.179,-0.112 0.261,-0.184l0.153,0.261c-0.215,0.184 -0.465,0.328 -0.752,0.43c-0.277,0.092 -0.589,0.138 -0.937,0.138c-0.615,0 -1.024,-0.122 -1.229,-0.368c-0.195,-0.256 -0.297,-0.548 -0.307,-0.876c-0.256,0.42 -0.574,0.732 -0.952,0.937c-0.369,0.205 -0.804,0.307 -1.306,0.307Zm1.183,-0.983c0.194,0 0.373,-0.046 0.537,-0.138c0.174,-0.092 0.343,-0.256 0.507,-0.491l0,-3.149c-0.123,0.205 -0.297,0.379 -0.522,0.522c-0.215,0.133 -0.44,0.282 -0.676,0.445c-0.225,0.154 -0.415,0.354 -0.568,0.6c-0.154,0.245 -0.231,0.573 -0.231,0.983c0,0.44 0.092,0.757 0.277,0.952c0.184,0.184 0.409,0.276 0.676,0.276Zm6.736,-11.028c0.43,0 0.768,0.107 1.014,0.322c0.256,0.205 0.384,0.492 0.384,0.861c0,0.368 -0.128,0.66 -0.384,0.875c-0.246,0.205 -0.584,0.307 -1.014,0.307c-0.43,0 -0.773,-0.102 -1.029,-0.307c-0.246,-0.215 -0.369,-0.507 -0.369,-0.875c0,-0.369 0.123,-0.656 0.369,-0.861c0.256,-0.215 0.599,-0.322 1.029,-0.322Zm1.198,3.794l0,6.681c0,0.43 0.072,0.722 0.215,0.876c0.154,0.154 0.41,0.23 0.768,0.23l0,0.323c-0.184,-0.01 -0.471,-0.021 -0.86,-0.031c-0.389,-0.02 -0.783,-0.031 -1.183,-0.031c-0.399,0 -0.803,0.011 -1.213,0.031c-0.41,0.01 -0.717,0.021 -0.922,0.031l0,-0.323c0.359,0 0.61,-0.076 0.753,-0.23c0.154,-0.154 0.23,-0.446 0.23,-0.876l0,-4.838c0,-0.461 -0.071,-0.799 -0.215,-1.014c-0.133,-0.225 -0.389,-0.338 -0.768,-0.338l0,-0.322c0.328,0.03 0.646,0.046 0.953,0.046c0.43,0 0.829,-0.016 1.198,-0.046c0.379,-0.041 0.727,-0.098 1.044,-0.169Zm6.934,-0.046c0.328,0 0.594,0.071 0.799,0.215c0.205,0.133 0.353,0.307 0.446,0.522c0.102,0.215 0.153,0.44 0.153,0.676c0,0.379 -0.113,0.691 -0.338,0.937c-0.215,0.235 -0.502,0.353 -0.86,0.353c-0.359,0 -0.64,-0.087 -0.845,-0.261c-0.195,-0.184 -0.292,-0.425 -0.292,-0.722c0,-0.287 0.062,-0.522 0.185,-0.707c0.133,-0.194 0.296,-0.358 0.491,-0.491c-0.143,-0.041 -0.287,-0.036 -0.43,0.015c-0.266,0.041 -0.507,0.169 -0.722,0.384c-0.205,0.205 -0.368,0.451 -0.491,0.738c-0.123,0.286 -0.185,0.568 -0.185,0.844l0,4.071c0,0.491 0.118,0.824 0.354,0.998c0.245,0.174 0.609,0.261 1.09,0.261l0,0.323c-0.235,-0.01 -0.579,-0.021 -1.029,-0.031c-0.451,-0.02 -0.921,-0.031 -1.413,-0.031c-0.41,0 -0.825,0.011 -1.244,0.031c-0.42,0.01 -0.737,0.021 -0.952,0.031l0,-0.323c0.358,0 0.609,-0.076 0.752,-0.23c0.154,-0.154 0.231,-0.446 0.231,-0.876l0,-4.838c0,-0.461 -0.072,-0.799 -0.215,-1.014c-0.134,-0.225 -0.39,-0.338 -0.768,-0.338l0,-0.322c0.327,0.03 0.645,0.046 0.952,0.046c0.43,0 0.829,-0.016 1.198,-0.046c0.379,-0.041 0.727,-0.098 1.044,-0.169l0,1.428c0.123,-0.276 0.287,-0.527 0.492,-0.752c0.204,-0.226 0.44,-0.4 0.706,-0.523c0.266,-0.133 0.564,-0.199 0.891,-0.199Zm10.041,-2.719c2.017,0 3.518,0.461 4.501,1.382c0.983,0.912 1.475,2.222 1.475,3.933c0,1.116 -0.241,2.094 -0.722,2.933c-0.482,0.83 -1.183,1.475 -2.105,1.936c-0.911,0.46 -2.007,0.691 -3.287,0.691c-0.246,0 -0.599,-0.005 -1.06,-0.015c-0.45,-0.021 -0.844,-0.031 -1.182,-0.031c-0.451,0 -0.896,0.005 -1.337,0.015c-0.43,0 -0.773,0.01 -1.029,0.031l0,-0.307c0.328,-0.021 0.573,-0.062 0.738,-0.123c0.163,-0.062 0.271,-0.185 0.322,-0.369c0.062,-0.184 0.092,-0.461 0.092,-0.829l0,-7.619c0,-0.379 -0.03,-0.655 -0.092,-0.829c-0.051,-0.185 -0.164,-0.307 -0.338,-0.369c-0.164,-0.072 -0.404,-0.113 -0.722,-0.123l0,-0.307c0.256,0.01 0.599,0.026 1.029,0.046c0.441,0.01 0.876,0.01 1.306,0c0.369,-0.01 0.783,-0.02 1.244,-0.031c0.471,-0.01 0.86,-0.015 1.167,-0.015Zm-0.015,0.276c-0.471,0 -0.778,0.088 -0.921,0.262c-0.144,0.174 -0.216,0.527 -0.216,1.059l0,7.68c0,0.533 0.072,0.886 0.216,1.06c0.153,0.174 0.465,0.261 0.936,0.261c0.861,0 1.536,-0.199 2.028,-0.599c0.502,-0.409 0.86,-1.003 1.075,-1.781c0.215,-0.779 0.323,-1.726 0.323,-2.842c0,-1.72 -0.267,-3 -0.799,-3.84c-0.533,-0.84 -1.413,-1.26 -2.642,-1.26Zm9.037,-1.305c0.43,0 0.768,0.107 1.014,0.322c0.256,0.205 0.384,0.492 0.384,0.861c0,0.368 -0.128,0.66 -0.384,0.875c-0.246,0.205 -0.584,0.307 -1.014,0.307c-0.43,0 -0.773,-0.102 -1.029,-0.307c-0.246,-0.215 -0.369,-0.507 -0.369,-0.875c0,-0.369 0.123,-0.656 0.369,-0.861c0.256,-0.215 0.599,-0.322 1.029,-0.322Zm1.198,3.794l0,6.681c0,0.43 0.072,0.722 0.215,0.876c0.154,0.154 0.41,0.23 0.768,0.23l0,0.323c-0.184,-0.01 -0.471,-0.021 -0.86,-0.031c-0.389,-0.02 -0.783,-0.031 -1.183,-0.031c-0.399,0 -0.803,0.011 -1.213,0.031c-0.41,0.01 -0.717,0.021 -0.922,0.031l0,-0.323c0.359,0 0.61,-0.076 0.753,-0.23c0.154,-0.154 0.23,-0.446 0.23,-0.876l0,-4.838c0,-0.461 -0.071,-0.799 -0.215,-1.014c-0.133,-0.225 -0.389,-0.338 -0.768,-0.338l0,-0.322c0.328,0.03 0.645,0.046 0.953,0.046c0.43,0 0.829,-0.016 1.198,-0.046c0.379,-0.041 0.727,-0.098 1.044,-0.169Zm4.692,-0.046c0.43,0 0.804,0.056 1.121,0.169c0.328,0.102 0.563,0.204 0.707,0.307c0.348,0.235 0.563,0.082 0.645,-0.461l0.322,0c-0.02,0.287 -0.036,0.64 -0.046,1.06c-0.01,0.41 -0.015,0.957 -0.015,1.643l-0.323,0c-0.051,-0.378 -0.148,-0.752 -0.292,-1.121c-0.143,-0.368 -0.353,-0.671 -0.629,-0.906c-0.267,-0.236 -0.615,-0.353 -1.045,-0.353c-0.297,0 -0.548,0.087 -0.753,0.261c-0.204,0.164 -0.307,0.404 -0.307,0.722c0,0.307 0.092,0.578 0.277,0.814c0.184,0.225 0.42,0.445 0.706,0.66c0.297,0.205 0.605,0.425 0.922,0.661c0.512,0.379 0.942,0.763 1.29,1.152c0.359,0.379 0.538,0.875 0.538,1.49c0,0.46 -0.133,0.865 -0.4,1.213c-0.266,0.338 -0.619,0.599 -1.059,0.783c-0.431,0.185 -0.912,0.277 -1.444,0.277c-0.307,0 -0.584,-0.031 -0.83,-0.092c-0.235,-0.062 -0.44,-0.138 -0.614,-0.231c-0.133,-0.061 -0.261,-0.117 -0.384,-0.169c-0.113,-0.061 -0.22,-0.112 -0.323,-0.153c-0.102,-0.031 -0.194,0.005 -0.276,0.107c-0.072,0.103 -0.128,0.246 -0.169,0.43l-0.323,0c0.021,-0.327 0.036,-0.727 0.046,-1.198c0.01,-0.471 0.016,-1.095 0.016,-1.874l0.322,0c0.062,0.553 0.175,1.045 0.338,1.475c0.164,0.42 0.384,0.753 0.661,0.998c0.286,0.236 0.645,0.354 1.075,0.354c0.266,0 0.512,-0.082 0.737,-0.246c0.225,-0.174 0.338,-0.456 0.338,-0.845c0,-0.45 -0.148,-0.824 -0.445,-1.121c-0.287,-0.297 -0.656,-0.62 -1.106,-0.968c-0.328,-0.266 -0.64,-0.527 -0.937,-0.783c-0.287,-0.266 -0.522,-0.553 -0.707,-0.86c-0.184,-0.318 -0.276,-0.676 -0.276,-1.076c0,-0.46 0.123,-0.85 0.368,-1.167c0.246,-0.317 0.569,-0.553 0.968,-0.707c0.41,-0.163 0.845,-0.245 1.306,-0.245Zm7.187,0.046l0,9.369c0,0.482 0.123,0.799 0.368,0.953c0.246,0.164 0.584,0.245 1.014,0.245l0,0.323c-0.266,-0.01 -0.634,-0.026 -1.106,-0.046c-0.461,-0.01 -0.952,-0.015 -1.474,-0.015c-0.379,0 -0.753,0.005 -1.122,0.015c-0.358,0.02 -0.629,0.036 -0.814,0.046l0,-0.323c0.338,0 0.574,-0.071 0.707,-0.215c0.143,-0.143 0.215,-0.419 0.215,-0.829l0,-7.68c0,-0.461 -0.072,-0.799 -0.215,-1.014c-0.143,-0.225 -0.4,-0.338 -0.768,-0.338l0,-0.322c0.328,0.03 0.645,0.046 0.952,0.046c0.42,0 0.82,-0.016 1.198,-0.046c0.379,-0.041 0.727,-0.098 1.045,-0.169Zm2.381,-0.046c0.778,0 1.428,0.317 1.95,0.952c0.533,0.635 0.799,1.592 0.799,2.872c0,0.994 -0.148,1.828 -0.445,2.504c-0.297,0.676 -0.712,1.188 -1.245,1.536c-0.522,0.338 -1.146,0.507 -1.874,0.507c-0.399,0 -0.762,-0.072 -1.09,-0.215c-0.327,-0.133 -0.579,-0.328 -0.753,-0.584l0.154,-0.199c0.103,0.184 0.246,0.327 0.43,0.43c0.195,0.102 0.415,0.153 0.66,0.153c0.461,0 0.825,-0.153 1.091,-0.461c0.266,-0.317 0.456,-0.757 0.568,-1.321c0.123,-0.573 0.185,-1.254 0.185,-2.042c0,-0.881 -0.057,-1.572 -0.169,-2.074c-0.113,-0.502 -0.266,-0.86 -0.461,-1.075c-0.195,-0.215 -0.43,-0.323 -0.707,-0.323c-0.368,0 -0.706,0.144 -1.013,0.43c-0.297,0.287 -0.466,0.697 -0.507,1.229l-0.077,-0.538c0.184,-0.583 0.497,-1.024 0.937,-1.32c0.451,-0.308 0.973,-0.461 1.567,-0.461Zm6.829,-3.871l0,10.598c0,0.43 0.071,0.722 0.215,0.876c0.154,0.154 0.409,0.23 0.768,0.23l0,0.323c-0.195,-0.01 -0.487,-0.021 -0.876,-0.031c-0.389,-0.02 -0.783,-0.031 -1.182,-0.031c-0.4,0 -0.804,0.011 -1.214,0.031c-0.399,0.01 -0.701,0.021 -0.906,0.031l0,-0.323c0.358,0 0.609,-0.076 0.753,-0.23c0.153,-0.154 0.23,-0.446 0.23,-0.876l0,-8.755c0,-0.461 -0.072,-0.799 -0.215,-1.014c-0.133,-0.225 -0.389,-0.337 -0.768,-0.337l0,-0.323c0.327,0.031 0.645,0.046 0.952,0.046c0.42,0 0.819,-0.015 1.198,-0.046c0.379,-0.041 0.727,-0.097 1.045,-0.169Zm3.664,12.134c-0.686,0 -1.183,-0.179 -1.49,-0.537c-0.307,-0.359 -0.461,-0.794 -0.461,-1.306c0,-0.44 0.098,-0.799 0.292,-1.075c0.205,-0.276 0.466,-0.502 0.783,-0.676c0.318,-0.184 0.651,-0.333 0.999,-0.445c0.358,-0.123 0.696,-0.241 1.013,-0.354c0.328,-0.122 0.589,-0.261 0.784,-0.414c0.205,-0.154 0.307,-0.348 0.307,-0.584l0,-1.198c0,-0.266 -0.046,-0.502 -0.138,-0.707c-0.082,-0.215 -0.215,-0.378 -0.4,-0.491c-0.173,-0.113 -0.404,-0.169 -0.691,-0.169c-0.204,0 -0.409,0.031 -0.614,0.092c-0.205,0.051 -0.374,0.143 -0.507,0.277c0.287,0.102 0.507,0.261 0.66,0.476c0.165,0.205 0.246,0.44 0.246,0.706c0,0.348 -0.123,0.625 -0.368,0.83c-0.236,0.205 -0.517,0.307 -0.845,0.307c-0.369,0 -0.65,-0.113 -0.845,-0.338c-0.184,-0.236 -0.277,-0.517 -0.277,-0.845c0,-0.297 0.072,-0.543 0.215,-0.737c0.154,-0.195 0.364,-0.379 0.63,-0.553c0.287,-0.164 0.63,-0.292 1.029,-0.384c0.41,-0.092 0.85,-0.138 1.321,-0.138c0.472,0 0.896,0.051 1.275,0.153c0.379,0.092 0.697,0.267 0.953,0.523c0.235,0.235 0.389,0.527 0.46,0.875c0.072,0.338 0.108,0.768 0.108,1.29l0,4.178c0,0.246 0.026,0.42 0.077,0.522c0.051,0.103 0.138,0.154 0.261,0.154c0.102,0 0.199,-0.026 0.292,-0.077c0.092,-0.051 0.179,-0.112 0.261,-0.184l0.153,0.261c-0.215,0.184 -0.465,0.328 -0.752,0.43c-0.277,0.092 -0.589,0.138 -0.937,0.138c-0.615,0 -1.024,-0.122 -1.229,-0.368c-0.194,-0.256 -0.297,-0.548 -0.307,-0.876c-0.256,0.42 -0.573,0.732 -0.953,0.937c-0.368,0.205 -0.803,0.307 -1.305,0.307Zm1.183,-0.983c0.194,0 0.373,-0.046 0.537,-0.138c0.174,-0.092 0.343,-0.256 0.507,-0.491l0,-3.149c-0.123,0.205 -0.297,0.379 -0.522,0.522c-0.215,0.133 -0.44,0.282 -0.676,0.445c-0.225,0.154 -0.415,0.354 -0.568,0.6c-0.154,0.245 -0.231,0.573 -0.231,0.983c0,0.44 0.092,0.757 0.277,0.952c0.184,0.184 0.41,0.276 0.676,0.276Zm12.116,-7.065l0,0.307c-0.195,0.051 -0.38,0.174 -0.553,0.369c-0.175,0.184 -0.343,0.501 -0.507,0.952l-2.166,6.082l-0.568,1.076l-3.349,-7.604c-0.174,-0.399 -0.348,-0.64 -0.522,-0.721c-0.164,-0.093 -0.308,-0.139 -0.431,-0.139l0,-0.322c0.339,0.03 0.687,0.056 1.045,0.077c0.369,0.01 0.722,0.015 1.06,0.015c0.42,0 0.804,-0.01 1.152,-0.031c0.348,-0.02 0.676,-0.041 0.983,-0.061l0,0.322c-0.205,0 -0.399,0.016 -0.583,0.046c-0.175,0.021 -0.297,0.093 -0.369,0.215c-0.061,0.113 -0.031,0.313 0.092,0.599l1.936,4.67l-0.139,0.092l1.137,-3.179c0.286,-0.83 0.333,-1.434 0.138,-1.813c-0.195,-0.389 -0.537,-0.604 -1.029,-0.645l0,-0.307c0.235,0.01 0.492,0.02 0.768,0.03c0.277,0.011 0.517,0.016 0.722,0.016c0.204,0 0.419,-0.005 0.645,-0.016c0.225,-0.01 0.404,-0.02 0.538,-0.03Zm-3.226,7.71l-0.584,1.644c-0.194,0.522 -0.42,0.886 -0.675,1.091c-0.144,0.122 -0.328,0.215 -0.553,0.276c-0.226,0.072 -0.487,0.108 -0.784,0.108c-0.246,0 -0.502,-0.041 -0.768,-0.123c-0.256,-0.082 -0.471,-0.215 -0.645,-0.4c-0.174,-0.184 -0.261,-0.42 -0.261,-0.706c0,-0.318 0.112,-0.574 0.338,-0.768c0.225,-0.185 0.522,-0.277 0.891,-0.277c0.338,0 0.614,0.082 0.829,0.246c0.215,0.164 0.323,0.405 0.323,0.722c0,0.205 -0.067,0.399 -0.2,0.584c-0.123,0.184 -0.312,0.322 -0.568,0.414c0.051,0.011 0.112,0.016 0.184,0.016l0.169,0c0.307,0 0.578,-0.098 0.814,-0.292c0.235,-0.195 0.43,-0.502 0.584,-0.922l0.537,-1.582l0.369,-0.031Z" style="fill:#3b3f5c;fill-rule:nonzero;"/><path d="M4.979,24.018c0,0.877 -0.223,1.567 -0.668,2.07c-0.442,0.502 -1.058,0.754 -1.848,0.754c-0.808,0 -1.432,-0.247 -1.872,-0.739c-0.437,-0.495 -0.656,-1.193 -0.656,-2.093c0,-0.892 0.22,-1.583 0.66,-2.073c0.44,-0.493 1.065,-0.739 1.875,-0.739c0.788,0 1.403,0.25 1.845,0.75c0.443,0.5 0.664,1.19 0.664,2.07Zm-4.369,0c0,0.742 0.158,1.306 0.473,1.691c0.317,0.383 0.777,0.574 1.38,0.574c0.607,0 1.066,-0.191 1.376,-0.574c0.31,-0.382 0.465,-0.946 0.465,-1.691c0,-0.738 -0.155,-1.296 -0.465,-1.676c-0.308,-0.383 -0.764,-0.574 -1.369,-0.574c-0.607,0 -1.07,0.192 -1.387,0.577c-0.315,0.383 -0.473,0.94 -0.473,1.673Zm7.414,2.824c-0.268,0 -0.513,-0.049 -0.735,-0.147c-0.22,-0.1 -0.405,-0.252 -0.555,-0.457l-0.045,0c0.03,0.24 0.045,0.467 0.045,0.682l0,1.692l-0.623,0l0,-5.955l0.507,0l0.086,0.562l0.03,0c0.16,-0.225 0.346,-0.387 0.559,-0.487c0.212,-0.1 0.456,-0.15 0.731,-0.15c0.545,0 0.965,0.186 1.26,0.558c0.297,0.373 0.446,0.895 0.446,1.568c0,0.675 -0.151,1.2 -0.454,1.575c-0.3,0.372 -0.717,0.559 -1.252,0.559Zm-0.09,-3.732c-0.42,0 -0.724,0.117 -0.911,0.349c-0.188,0.233 -0.284,0.603 -0.289,1.11l0,0.139c0,0.577 0.096,0.991 0.289,1.241c0.192,0.248 0.501,0.371 0.926,0.371c0.355,0 0.632,-0.143 0.832,-0.431c0.203,-0.287 0.304,-0.684 0.304,-1.189c0,-0.512 -0.101,-0.905 -0.304,-1.177c-0.2,-0.275 -0.482,-0.413 -0.847,-0.413Zm4.624,3.732c-0.608,0 -1.088,-0.185 -1.44,-0.555c-0.35,-0.37 -0.525,-0.884 -0.525,-1.542c0,-0.662 0.162,-1.188 0.487,-1.578c0.328,-0.39 0.766,-0.585 1.316,-0.585c0.515,0 0.923,0.17 1.223,0.51c0.3,0.337 0.45,0.783 0.45,1.338l0,0.394l-2.831,0c0.012,0.483 0.133,0.849 0.363,1.099c0.233,0.25 0.559,0.375 0.979,0.375c0.443,0 0.88,-0.093 1.313,-0.278l0,0.555c-0.22,0.095 -0.429,0.163 -0.627,0.203c-0.195,0.042 -0.431,0.064 -0.708,0.064Zm-0.169,-3.739c-0.33,0 -0.594,0.107 -0.791,0.322c-0.195,0.215 -0.31,0.513 -0.345,0.893l2.148,0c0,-0.393 -0.087,-0.693 -0.262,-0.9c-0.175,-0.21 -0.425,-0.315 -0.75,-0.315Zm5.557,3.664l0,-2.659c0,-0.335 -0.076,-0.585 -0.228,-0.75c-0.153,-0.165 -0.392,-0.248 -0.717,-0.248c-0.43,0 -0.745,0.117 -0.945,0.349c-0.2,0.233 -0.3,0.616 -0.3,1.151l0,2.157l-0.622,0l0,-4.11l0.506,0l0.101,0.562l0.03,0c0.128,-0.202 0.307,-0.359 0.537,-0.469c0.23,-0.112 0.486,-0.168 0.768,-0.168c0.495,0 0.868,0.12 1.118,0.36c0.25,0.237 0.375,0.618 0.375,1.143l0,2.682l-0.623,0Zm7.088,-1.459c0,0.482 -0.175,0.859 -0.525,1.129c-0.35,0.27 -0.825,0.405 -1.425,0.405c-0.65,0 -1.15,-0.084 -1.5,-0.252l0,-0.615c0.225,0.095 0.47,0.17 0.735,0.225c0.265,0.055 0.527,0.083 0.787,0.083c0.425,0 0.745,-0.08 0.96,-0.24c0.215,-0.163 0.323,-0.388 0.323,-0.675c0,-0.19 -0.039,-0.345 -0.116,-0.465c-0.075,-0.123 -0.203,-0.235 -0.383,-0.338c-0.177,-0.102 -0.449,-0.218 -0.814,-0.348c-0.51,-0.183 -0.875,-0.399 -1.095,-0.649c-0.217,-0.25 -0.326,-0.576 -0.326,-0.979c0,-0.422 0.159,-0.759 0.476,-1.009c0.318,-0.25 0.738,-0.375 1.26,-0.375c0.545,0 1.047,0.1 1.504,0.3l-0.199,0.555c-0.452,-0.19 -0.892,-0.285 -1.32,-0.285c-0.337,0 -0.601,0.073 -0.791,0.218c-0.19,0.145 -0.285,0.346 -0.285,0.604c0,0.19 0.035,0.346 0.105,0.468c0.07,0.12 0.188,0.232 0.353,0.334c0.167,0.1 0.422,0.211 0.765,0.334c0.575,0.205 0.97,0.425 1.185,0.66c0.217,0.235 0.326,0.54 0.326,0.915Zm3.555,1.459l-0.124,-0.585l-0.03,0c-0.205,0.257 -0.41,0.432 -0.615,0.525c-0.202,0.09 -0.456,0.135 -0.761,0.135c-0.408,0 -0.728,-0.105 -0.96,-0.315c-0.23,-0.21 -0.345,-0.509 -0.345,-0.897c0,-0.83 0.664,-1.265 1.991,-1.305l0.698,-0.022l0,-0.255c0,-0.323 -0.07,-0.56 -0.21,-0.713c-0.138,-0.155 -0.359,-0.232 -0.664,-0.232c-0.343,0 -0.73,0.105 -1.163,0.315l-0.191,-0.476c0.203,-0.11 0.424,-0.197 0.664,-0.259c0.242,-0.063 0.485,-0.094 0.727,-0.094c0.49,0 0.853,0.109 1.088,0.326c0.237,0.218 0.356,0.567 0.356,1.047l0,2.805l-0.461,0Zm-1.406,-0.439c0.387,0 0.691,-0.106 0.911,-0.319c0.222,-0.212 0.334,-0.51 0.334,-0.892l0,-0.372l-0.623,0.027c-0.495,0.017 -0.852,0.095 -1.072,0.232c-0.218,0.135 -0.327,0.346 -0.327,0.634c0,0.225 0.068,0.396 0.203,0.514c0.137,0.117 0.329,0.176 0.574,0.176Zm5.966,0.439l0,-2.659c0,-0.335 -0.076,-0.585 -0.229,-0.75c-0.152,-0.165 -0.391,-0.248 -0.716,-0.248c-0.43,0 -0.745,0.117 -0.945,0.349c-0.2,0.233 -0.3,0.616 -0.3,1.151l0,2.157l-0.623,0l0,-4.11l0.507,0l0.101,0.562l0.03,0c0.127,-0.202 0.306,-0.359 0.536,-0.469c0.23,-0.112 0.486,-0.168 0.769,-0.168c0.495,0 0.867,0.12 1.117,0.36c0.25,0.237 0.375,0.618 0.375,1.143l0,2.682l-0.622,0Zm4.556,-1.122c0,0.383 -0.142,0.678 -0.427,0.885c-0.285,0.208 -0.685,0.312 -1.2,0.312c-0.545,0 -0.97,-0.087 -1.275,-0.259l0,-0.578c0.197,0.1 0.408,0.179 0.633,0.237c0.228,0.057 0.447,0.086 0.657,0.086c0.325,0 0.575,-0.051 0.75,-0.154c0.175,-0.105 0.262,-0.264 0.262,-0.476c0,-0.16 -0.07,-0.296 -0.21,-0.409c-0.137,-0.115 -0.407,-0.25 -0.81,-0.405c-0.382,-0.142 -0.655,-0.266 -0.817,-0.371c-0.16,-0.108 -0.28,-0.229 -0.36,-0.364c-0.078,-0.135 -0.117,-0.296 -0.117,-0.484c0,-0.335 0.137,-0.598 0.409,-0.791c0.273,-0.195 0.646,-0.292 1.121,-0.292c0.443,0 0.875,0.09 1.298,0.27l-0.221,0.506c-0.413,-0.17 -0.787,-0.255 -1.122,-0.255c-0.295,0 -0.517,0.046 -0.667,0.139c-0.15,0.092 -0.225,0.22 -0.225,0.382c0,0.11 0.027,0.204 0.082,0.281c0.058,0.078 0.149,0.152 0.274,0.222c0.125,0.07 0.365,0.171 0.72,0.303c0.488,0.178 0.816,0.357 0.986,0.537c0.173,0.18 0.259,0.406 0.259,0.678Z" style="fill:#757575;fill-rule:nonzero;"/></g></svg>