<?xml version="1.0" encoding="UTF-8" standalone="no"?><!DOCTYPE svg PUBLIC "-//W3C//DTD SVG 1.1//EN" "http://www.w3.org/Graphics/SVG/1.1/DTD/svg11.dtd"><svg width="112px" height="29px" version="1.1" xmlns="http://www.w3.org/2000/svg" xmlns:xlink="http://www.w3.org/1999/xlink" xml:space="preserve" xmlns:serif="http://www.serif.com/" style="fill-rule:evenodd;clip-rule:evenodd;stroke-linejoin:round;stroke-miterlimit:2;"><g><path d="M11.26,12.258l-0.017,-8.125l-4.028,6.725l-1.016,0l-4.027,-6.62l0,8.02l-2.172,0l0,-12.258l1.874,0l4.868,8.126l4.781,-8.126l1.874,0l0.017,12.258l-2.154,0Zm9.458,0.123c-0.945,0 -1.798,-0.204 -2.557,-0.613c-0.758,-0.408 -1.354,-0.975 -1.786,-1.699c-0.42,-0.735 -0.63,-1.564 -0.63,-2.486c0,-0.923 0.21,-1.746 0.63,-2.469c0.432,-0.724 1.028,-1.291 1.786,-1.699c0.759,-0.409 1.612,-0.613 2.557,-0.613c0.958,0 1.816,0.204 2.574,0.613c0.759,0.408 1.349,0.975 1.769,1.699c0.432,0.723 0.648,1.546 0.648,2.469c0,0.922 -0.216,1.751 -0.648,2.486c-0.42,0.724 -1.01,1.291 -1.769,1.699c-0.758,0.409 -1.616,0.613 -2.574,0.613Zm0,-1.874c0.806,0 1.471,-0.268 1.997,-0.805c0.525,-0.537 0.788,-1.244 0.788,-2.119c0,-0.876 -0.263,-1.582 -0.788,-2.119c-0.526,-0.537 -1.191,-0.806 -1.997,-0.806c-0.805,0 -1.471,0.269 -1.996,0.806c-0.514,0.537 -0.771,1.243 -0.771,2.119c0,0.875 0.257,1.582 0.771,2.119c0.525,0.537 1.191,0.805 1.996,0.805Zm12.391,-7.705c1.179,0 2.124,0.344 2.837,1.033c0.712,0.689 1.068,1.71 1.068,3.065l0,5.358l-2.189,0l0,-5.078c0,-0.817 -0.193,-1.43 -0.578,-1.839c-0.385,-0.42 -0.934,-0.63 -1.646,-0.63c-0.806,0 -1.442,0.245 -1.909,0.735c-0.467,0.479 -0.701,1.174 -0.701,2.084l0,4.728l-2.189,0l0,-9.351l2.084,0l0,1.208c0.362,-0.432 0.818,-0.759 1.366,-0.98c0.549,-0.222 1.168,-0.333 1.857,-0.333Zm12.303,8.949c-0.257,0.21 -0.572,0.367 -0.946,0.472c-0.361,0.106 -0.747,0.158 -1.155,0.158c-1.028,0 -1.822,-0.268 -2.382,-0.805c-0.56,-0.538 -0.841,-1.32 -0.841,-2.347l0,-4.501l-1.541,0l0,-1.751l1.541,0l0,-2.136l2.189,0l0,2.136l2.505,0l0,1.751l-2.505,0l0,4.448c0,0.456 0.111,0.806 0.333,1.051c0.222,0.234 0.543,0.35 0.963,0.35c0.491,0 0.899,-0.128 1.226,-0.385l0.613,1.559Zm4.69,0.63c-0.759,0 -1.5,-0.099 -2.224,-0.298c-0.724,-0.198 -1.301,-0.449 -1.733,-0.753l0.84,-1.663c0.42,0.28 0.922,0.508 1.506,0.683c0.596,0.163 1.179,0.245 1.751,0.245c1.308,0 1.962,-0.345 1.962,-1.033c0,-0.327 -0.17,-0.555 -0.508,-0.683c-0.327,-0.129 -0.858,-0.251 -1.594,-0.368c-0.77,-0.117 -1.401,-0.251 -1.891,-0.403c-0.479,-0.152 -0.899,-0.414 -1.261,-0.788c-0.35,-0.385 -0.525,-0.916 -0.525,-1.594c0,-0.887 0.368,-1.593 1.103,-2.119c0.747,-0.537 1.751,-0.805 3.012,-0.805c0.642,0 1.284,0.076 1.926,0.228c0.643,0.14 1.168,0.332 1.577,0.577l-0.841,1.664c-0.794,-0.467 -1.687,-0.7 -2.679,-0.7c-0.643,0 -1.133,0.099 -1.471,0.297c-0.327,0.187 -0.491,0.438 -0.491,0.753c0,0.351 0.175,0.602 0.526,0.753c0.362,0.141 0.916,0.275 1.663,0.403c0.747,0.117 1.36,0.251 1.839,0.403c0.479,0.152 0.887,0.409 1.226,0.771c0.35,0.361 0.525,0.875 0.525,1.541c0,0.875 -0.379,1.576 -1.138,2.101c-0.759,0.525 -1.792,0.788 -3.1,0.788Zm14.914,-4.746c0,0.152 -0.011,0.368 -0.035,0.648l-7.337,0c0.128,0.689 0.461,1.238 0.998,1.646c0.549,0.397 1.226,0.596 2.031,0.596c1.028,0 1.874,-0.339 2.54,-1.016l1.173,1.349c-0.42,0.502 -0.952,0.881 -1.594,1.138c-0.641,0.257 -1.365,0.385 -2.171,0.385c-1.027,0 -1.932,-0.204 -2.714,-0.613c-0.782,-0.408 -1.39,-0.975 -1.822,-1.699c-0.42,-0.735 -0.63,-1.564 -0.63,-2.486c0,-0.911 0.204,-1.728 0.613,-2.452c0.42,-0.735 0.998,-1.308 1.734,-1.716c0.735,-0.409 1.564,-0.613 2.486,-0.613c0.911,0 1.722,0.204 2.434,0.613c0.724,0.397 1.285,0.963 1.682,1.699c0.408,0.723 0.612,1.564 0.612,2.521Zm-4.728,-3.082c-0.7,0 -1.296,0.21 -1.786,0.631c-0.479,0.408 -0.771,0.957 -0.876,1.646l5.307,0c-0.094,-0.677 -0.38,-1.226 -0.859,-1.646c-0.478,-0.421 -1.074,-0.631 -1.786,-0.631Zm8.915,-0.28c0.63,-0.981 1.74,-1.471 3.327,-1.471l0,2.084c-0.186,-0.035 -0.355,-0.053 -0.508,-0.053c-0.852,0 -1.517,0.251 -1.996,0.753c-0.478,0.491 -0.718,1.203 -0.718,2.137l0,4.535l-2.189,0l0,-9.351l2.084,0l0,1.366Zm7.269,0c0.63,-0.981 1.739,-1.471 3.327,-1.471l0,2.084c-0.187,-0.035 -0.356,-0.053 -0.508,-0.053c-0.853,0 -1.518,0.251 -1.996,0.753c-0.479,0.491 -0.718,1.203 -0.718,2.137l0,4.535l-2.189,0l0,-9.351l2.084,0l0,1.366Zm8.705,-1.471c1.377,0 2.428,0.333 3.152,0.998c0.735,0.654 1.103,1.646 1.103,2.977l0,5.481l-2.066,0l0,-1.138c-0.269,0.409 -0.654,0.724 -1.156,0.946c-0.49,0.21 -1.086,0.315 -1.786,0.315c-0.701,0 -1.314,-0.117 -1.839,-0.35c-0.525,-0.245 -0.934,-0.578 -1.226,-0.998c-0.28,-0.432 -0.42,-0.917 -0.42,-1.454c0,-0.84 0.309,-1.512 0.928,-2.014c0.63,-0.513 1.617,-0.77 2.96,-0.77l2.416,0l0,-0.14c0,-0.654 -0.198,-1.156 -0.595,-1.506c-0.385,-0.351 -0.963,-0.526 -1.734,-0.526c-0.525,0 -1.045,0.082 -1.558,0.245c-0.502,0.164 -0.929,0.391 -1.279,0.683l-0.858,-1.593c0.49,-0.374 1.08,-0.66 1.769,-0.858c0.689,-0.199 1.418,-0.298 2.189,-0.298Zm-0.298,7.985c0.549,0 1.033,-0.122 1.454,-0.367c0.431,-0.257 0.735,-0.619 0.91,-1.086l0,-1.086l-2.259,0c-1.261,0 -1.891,0.415 -1.891,1.244c0,0.396 0.157,0.712 0.473,0.945c0.315,0.234 0.753,0.35 1.313,0.35Zm12.984,0.964c-0.257,0.21 -0.572,0.367 -0.945,0.472c-0.363,0.106 -0.748,0.158 -1.156,0.158c-1.028,0 -1.821,-0.268 -2.382,-0.805c-0.56,-0.538 -0.84,-1.32 -0.84,-2.347l0,-4.501l-1.542,0l0,-1.751l1.542,0l0,-2.136l2.189,0l0,2.136l2.504,0l0,1.751l-2.504,0l0,4.448c0,0.456 0.11,0.806 0.332,1.051c0.222,0.234 0.543,0.35 0.963,0.35c0.491,0 0.899,-0.128 1.226,-0.385l0.613,1.559Z" style="fill:#3b3f5c;fill-rule:nonzero;"/><path d="M0.806,28.056l2.578,0l0,0.677l-3.384,0l0,-5.956l0.806,0l0,5.279Zm6.441,0.677l-0.328,0c-0.072,0 -0.131,-0.011 -0.175,-0.033c-0.044,-0.022 -0.073,-0.069 -0.087,-0.141l-0.083,-0.391c-0.111,0.1 -0.219,0.19 -0.325,0.27c-0.105,0.078 -0.216,0.144 -0.332,0.2c-0.117,0.053 -0.241,0.093 -0.374,0.12c-0.131,0.028 -0.276,0.042 -0.437,0.042c-0.163,0 -0.317,-0.022 -0.461,-0.067c-0.142,-0.047 -0.265,-0.116 -0.37,-0.207c-0.105,-0.092 -0.19,-0.207 -0.254,-0.345c-0.061,-0.142 -0.091,-0.308 -0.091,-0.499c0,-0.167 0.046,-0.326 0.137,-0.478c0.091,-0.155 0.238,-0.293 0.441,-0.412c0.205,-0.119 0.472,-0.216 0.802,-0.291c0.33,-0.077 0.733,-0.122 1.21,-0.133l0,-0.328c0,-0.327 -0.071,-0.574 -0.212,-0.74c-0.139,-0.169 -0.345,-0.254 -0.62,-0.254c-0.18,0 -0.332,0.024 -0.457,0.071c-0.122,0.044 -0.229,0.096 -0.32,0.154c-0.089,0.055 -0.166,0.106 -0.233,0.154c-0.064,0.044 -0.127,0.066 -0.191,0.066c-0.05,0 -0.094,-0.012 -0.133,-0.037c-0.036,-0.028 -0.065,-0.061 -0.087,-0.1l-0.134,-0.237c0.233,-0.225 0.484,-0.392 0.753,-0.503c0.269,-0.111 0.567,-0.166 0.894,-0.166c0.235,0 0.444,0.038 0.627,0.116c0.183,0.078 0.337,0.186 0.462,0.324c0.125,0.139 0.219,0.306 0.282,0.503c0.064,0.197 0.096,0.413 0.096,0.649l0,2.693Zm-1.92,-0.453c0.13,0 0.249,-0.012 0.357,-0.037c0.108,-0.028 0.209,-0.065 0.304,-0.112c0.096,-0.05 0.188,-0.11 0.274,-0.179c0.089,-0.069 0.174,-0.148 0.258,-0.237l0,-0.877c-0.341,0.011 -0.631,0.039 -0.869,0.083c-0.239,0.042 -0.433,0.097 -0.582,0.166c-0.15,0.07 -0.259,0.151 -0.329,0.246c-0.066,0.094 -0.099,0.199 -0.099,0.316c0,0.11 0.018,0.206 0.054,0.286c0.036,0.081 0.084,0.147 0.145,0.2c0.061,0.05 0.133,0.087 0.216,0.112c0.084,0.022 0.174,0.033 0.271,0.033Zm4.317,0.52c-0.332,0 -0.589,-0.093 -0.769,-0.279c-0.177,-0.185 -0.266,-0.453 -0.266,-0.802l0,-2.577l-0.507,0c-0.044,0 -0.082,-0.013 -0.112,-0.038c-0.031,-0.027 -0.046,-0.069 -0.046,-0.124l0,-0.295l0.69,-0.088l0.171,-1.301c0.005,-0.041 0.023,-0.075 0.054,-0.1c0.03,-0.027 0.069,-0.041 0.116,-0.041l0.374,0l0,1.451l1.206,0l0,0.536l-1.206,0l0,2.527c0,0.178 0.043,0.309 0.129,0.395c0.086,0.086 0.197,0.129 0.333,0.129c0.077,0 0.144,-0.01 0.199,-0.029c0.058,-0.022 0.108,-0.046 0.15,-0.071c0.041,-0.025 0.076,-0.047 0.104,-0.066c0.03,-0.022 0.057,-0.033 0.079,-0.033c0.038,0 0.073,0.023 0.104,0.07l0.216,0.354c-0.128,0.119 -0.282,0.213 -0.462,0.282c-0.18,0.067 -0.365,0.1 -0.557,0.1Zm3.53,-4.344c0.308,0 0.585,0.051 0.831,0.154c0.25,0.102 0.46,0.248 0.632,0.436c0.175,0.189 0.308,0.417 0.399,0.686c0.095,0.266 0.142,0.564 0.142,0.894c0,0.332 -0.047,0.632 -0.142,0.898c-0.091,0.266 -0.224,0.493 -0.399,0.682c-0.172,0.188 -0.382,0.334 -0.632,0.436c-0.246,0.1 -0.523,0.15 -0.831,0.15c-0.308,0 -0.586,-0.05 -0.836,-0.15c-0.246,-0.102 -0.457,-0.248 -0.631,-0.436c-0.175,-0.189 -0.309,-0.416 -0.404,-0.682c-0.094,-0.266 -0.141,-0.566 -0.141,-0.898c0,-0.33 0.047,-0.628 0.141,-0.894c0.095,-0.269 0.229,-0.497 0.404,-0.686c0.174,-0.188 0.385,-0.334 0.631,-0.436c0.25,-0.103 0.528,-0.154 0.836,-0.154Zm0,3.758c0.416,0 0.726,-0.139 0.931,-0.416c0.205,-0.28 0.308,-0.669 0.308,-1.168c0,-0.502 -0.103,-0.892 -0.308,-1.172c-0.205,-0.28 -0.515,-0.42 -0.931,-0.42c-0.211,0 -0.394,0.036 -0.549,0.108c-0.155,0.072 -0.285,0.176 -0.39,0.312c-0.103,0.136 -0.181,0.303 -0.233,0.503c-0.05,0.197 -0.075,0.42 -0.075,0.669c0,0.249 0.025,0.473 0.075,0.669c0.052,0.197 0.13,0.363 0.233,0.499c0.105,0.133 0.235,0.236 0.39,0.308c0.155,0.072 0.338,0.108 0.549,0.108Z" style="fill:#757575;fill-rule:nonzero;"/></g></svg>