<?xml version="1.0" encoding="UTF-8" standalone="no"?><!DOCTYPE svg PUBLIC "-//W3C//DTD SVG 1.1//EN" "http://www.w3.org/Graphics/SVG/1.1/DTD/svg11.dtd"><svg width="112px" height="29px" version="1.1" xmlns="http://www.w3.org/2000/svg" xmlns:xlink="http://www.w3.org/1999/xlink" xml:space="preserve" xmlns:serif="http://www.serif.com/" style="fill-rule:evenodd;clip-rule:evenodd;stroke-linejoin:round;stroke-miterlimit:2;"><g><path d="M3.555,6.607l0.554,0c1.739,0 2.609,-0.809 2.609,-2.425c0,-0.782 -0.168,-1.347 -0.505,-1.696c-0.337,-0.359 -0.87,-0.539 -1.598,-0.539c-0.468,0 -0.821,0.021 -1.06,0.063l0,4.597Zm-0.277,-5.088l1.826,-0.048c2.587,0 3.881,0.904 3.881,2.711c0,0.803 -0.294,1.458 -0.881,1.965c-0.587,0.507 -1.342,0.761 -2.266,0.761l-0.375,0c1.239,0.158 2.087,0.523 2.543,1.094c0.468,0.57 0.701,1.437 0.701,2.599c0,0.719 0.153,1.157 0.457,1.316c0.109,0.063 0.266,0.095 0.473,0.095c0.217,0 0.511,-0.085 0.88,-0.254l0.017,0.38c-0.587,0.244 -1.185,0.365 -1.794,0.365c-1.217,0 -1.951,-0.444 -2.201,-1.331c-0.087,-0.37 -0.131,-0.83 -0.131,-1.379c0,-0.56 -0.038,-0.988 -0.114,-1.284c-0.065,-0.307 -0.168,-0.555 -0.31,-0.745c-0.315,-0.465 -0.907,-0.698 -1.777,-0.698l-0.652,0l0,4.549l1.239,0.143l0,0.38l-4.598,0l0,-0.38l1.206,-0.127l0,-9.589l-1.402,-0.19l0,-0.396c0.913,0.042 1.734,0.063 2.462,0.063l0.816,0Zm10.339,8.416c0,0.624 0.076,1.078 0.229,1.363c0.163,0.286 0.483,0.428 0.962,0.428c0.478,0 0.951,-0.29 1.418,-0.871c0.468,-0.582 0.702,-1.083 0.702,-1.506l0,-4.438l-1.289,-0.064l0,-0.364l3.376,-0.206l0,7.354l1.32,0.064l0,0.364l-3.342,0.19l0.081,-1.585l-0.163,0c-0.63,1.089 -1.543,1.633 -2.739,1.633c-1.74,0 -2.609,-0.814 -2.609,-2.441c0,-1.627 0.06,-3.276 0.179,-4.945l-1.206,-0.064l0,-0.364l3.244,-0.174c-0.108,2.388 -0.163,4.263 -0.163,5.626Zm12.915,-7.576c0.065,-0.275 0.098,-0.555 0.098,-0.84c0,-0.296 -0.087,-0.56 -0.261,-0.793c-0.163,-0.232 -0.375,-0.348 -0.636,-0.348c-0.25,0 -0.451,0.031 -0.604,0.095c-0.152,0.063 -0.282,0.169 -0.391,0.317c-0.109,0.148 -0.201,0.29 -0.277,0.428c-0.076,0.137 -0.141,0.333 -0.196,0.586c-0.043,0.243 -0.081,0.449 -0.114,0.618c-0.022,0.159 -0.038,0.386 -0.049,0.682c-0.011,0.296 -0.016,0.518 -0.016,0.666l0,0.634l2.446,0l0,0.412l-2.446,0l0,6.863l1.826,0.095l0,0.364l-4.989,0l0,-0.364l1.076,-0.095l0,-6.863l-1.125,0l0,-0.412l1.125,0l0,-0.238c0,-1.405 0.32,-2.457 0.962,-3.154c0.652,-0.708 1.581,-1.062 2.788,-1.062c0.75,0 1.354,0.121 1.81,0.364c0.468,0.233 0.701,0.608 0.701,1.126c0,0.38 -0.195,0.671 -0.587,0.871c-0.206,0.117 -0.407,0.175 -0.603,0.175c-0.185,0 -0.364,-0.042 -0.538,-0.127Zm5.543,9.779l-4.207,0l0,-0.364l1.06,-0.095l0,-6.752l-1.403,-0.08l0,-0.332l3.49,-0.206l0,7.37l1.06,0.095l0,0.364Zm-0.946,-10.492c0,0.317 -0.12,0.591 -0.359,0.824c-0.228,0.232 -0.516,0.349 -0.864,0.349c-0.348,0 -0.641,-0.111 -0.881,-0.333c-0.228,-0.233 -0.342,-0.513 -0.342,-0.84c0,-0.338 0.12,-0.624 0.359,-0.856c0.239,-0.243 0.527,-0.365 0.864,-0.365c0.337,0 0.625,0.122 0.864,0.365c0.239,0.243 0.359,0.528 0.359,0.856Zm8.163,10.033l0.097,-5.025c0,-0.623 -0.081,-1.077 -0.244,-1.363c-0.163,-0.285 -0.489,-0.428 -0.979,-0.428c-0.489,0 -0.967,0.286 -1.434,0.856c-0.457,0.56 -0.696,1.046 -0.718,1.458l0,4.502l1.223,0.095l0,0.364l-4.37,0l0,-0.364l1.076,-0.095l0,-6.752l-1.337,-0.064l0,-0.333l3.343,-0.19l-0.082,1.617l0.163,0c0.294,-0.528 0.691,-0.935 1.191,-1.22c0.5,-0.296 1.038,-0.444 1.614,-0.444c1.739,0 2.609,0.813 2.609,2.441c0,1.173 -0.038,2.821 -0.114,4.945l1.125,0.095l0,0.364l-3.946,0l0,-0.364l0.783,-0.095Zm8.67,-3.249c-1.261,0 -2.055,0.322 -2.381,0.966c-0.141,0.275 -0.212,0.619 -0.212,1.031c0,0.708 0.25,1.12 0.75,1.236c0.076,0.021 0.158,0.032 0.245,0.032c0.348,0 0.696,-0.175 1.043,-0.523c0.348,-0.36 0.533,-0.819 0.555,-1.379l0,-1.363Zm-2.609,-1.554c-0.239,0.159 -0.489,0.238 -0.75,0.238c-0.261,0 -0.484,-0.085 -0.669,-0.254c-0.185,-0.169 -0.277,-0.417 -0.277,-0.745c0,-0.338 0.103,-0.639 0.31,-0.903c0.206,-0.264 0.473,-0.46 0.799,-0.586c0.641,-0.265 1.25,-0.397 1.826,-0.397c1.283,0 2.158,0.222 2.625,0.666c0.468,0.433 0.702,1.104 0.702,2.013l0,4.771l1.369,0.095l0,0.349l-3.114,0.19l-0.147,-1.332c-0.511,0.899 -1.391,1.348 -2.642,1.348c-0.565,0 -1.054,-0.164 -1.467,-0.492c-0.402,-0.338 -0.603,-0.808 -0.603,-1.41c0.01,-0.803 0.424,-1.406 1.239,-1.807c0.815,-0.412 1.951,-0.618 3.408,-0.618l0,-1.363c0,-0.645 -0.093,-1.142 -0.277,-1.49c-0.185,-0.349 -0.528,-0.523 -1.028,-0.523c-0.5,0 -0.875,0.2 -1.125,0.602c-0.163,0.264 -0.244,0.544 -0.244,0.84c0,0.296 0.021,0.565 0.065,0.808Z" style="fill:#3b3f5c;fill-rule:nonzero;"/><path d="M1.747,28.8c-0.372,0 -0.716,-0.07 -1.034,-0.21c-0.317,-0.14 -0.592,-0.331 -0.823,-0.573l0.404,-0.468c0.188,0.199 0.409,0.36 0.662,0.484c0.258,0.118 0.524,0.178 0.799,0.178c0.35,0 0.622,-0.078 0.815,-0.234c0.194,-0.162 0.291,-0.372 0.291,-0.63c0,-0.135 -0.024,-0.248 -0.073,-0.339c-0.043,-0.097 -0.105,-0.178 -0.185,-0.242c-0.076,-0.07 -0.167,-0.132 -0.275,-0.186c-0.108,-0.054 -0.223,-0.11 -0.347,-0.17l-0.759,-0.331c-0.124,-0.053 -0.25,-0.118 -0.379,-0.193c-0.13,-0.076 -0.245,-0.167 -0.348,-0.275c-0.102,-0.108 -0.185,-0.234 -0.25,-0.379c-0.064,-0.151 -0.097,-0.323 -0.097,-0.517c0,-0.199 0.041,-0.385 0.121,-0.557c0.087,-0.172 0.202,-0.32 0.348,-0.444c0.15,-0.129 0.325,-0.229 0.524,-0.299c0.205,-0.07 0.428,-0.105 0.67,-0.105c0.318,0 0.611,0.062 0.88,0.186c0.269,0.118 0.498,0.274 0.687,0.468l-0.364,0.436c-0.161,-0.156 -0.341,-0.277 -0.541,-0.363c-0.193,-0.092 -0.414,-0.137 -0.662,-0.137c-0.296,0 -0.535,0.07 -0.718,0.209c-0.178,0.135 -0.267,0.323 -0.267,0.566c0,0.129 0.025,0.239 0.073,0.331c0.054,0.086 0.124,0.164 0.21,0.234c0.086,0.064 0.18,0.124 0.283,0.177c0.102,0.049 0.207,0.095 0.314,0.138l0.751,0.323c0.151,0.064 0.294,0.139 0.428,0.226c0.135,0.08 0.25,0.177 0.347,0.29c0.097,0.108 0.173,0.237 0.226,0.388c0.06,0.145 0.089,0.315 0.089,0.508c0,0.21 -0.043,0.407 -0.129,0.59c-0.081,0.183 -0.199,0.344 -0.355,0.484c-0.156,0.135 -0.345,0.242 -0.565,0.323c-0.221,0.075 -0.471,0.113 -0.751,0.113Zm4.304,0c-0.242,0 -0.473,-0.046 -0.694,-0.137c-0.215,-0.092 -0.406,-0.224 -0.573,-0.396c-0.167,-0.177 -0.302,-0.393 -0.404,-0.646c-0.097,-0.258 -0.145,-0.549 -0.145,-0.872c0,-0.328 0.048,-0.619 0.145,-0.871c0.102,-0.259 0.237,-0.477 0.404,-0.654c0.167,-0.178 0.358,-0.313 0.573,-0.404c0.221,-0.092 0.452,-0.137 0.694,-0.137c0.242,0 0.471,0.045 0.687,0.137c0.22,0.091 0.414,0.226 0.581,0.404c0.167,0.177 0.298,0.395 0.395,0.654c0.103,0.252 0.154,0.543 0.154,0.871c0,0.323 -0.051,0.614 -0.154,0.872c-0.097,0.253 -0.228,0.469 -0.395,0.646c-0.167,0.172 -0.361,0.304 -0.581,0.396c-0.216,0.091 -0.445,0.137 -0.687,0.137Zm0,-0.549c0.167,0 0.32,-0.035 0.46,-0.105c0.14,-0.075 0.259,-0.178 0.356,-0.307c0.102,-0.134 0.18,-0.293 0.234,-0.476c0.054,-0.183 0.081,-0.388 0.081,-0.614c0,-0.226 -0.027,-0.43 -0.081,-0.613c-0.054,-0.189 -0.132,-0.35 -0.234,-0.485c-0.097,-0.134 -0.216,-0.236 -0.356,-0.306c-0.14,-0.076 -0.293,-0.113 -0.46,-0.113c-0.167,0 -0.32,0.037 -0.46,0.113c-0.14,0.07 -0.261,0.172 -0.363,0.306c-0.097,0.135 -0.172,0.296 -0.226,0.485c-0.054,0.183 -0.081,0.387 -0.081,0.613c0,0.226 0.027,0.431 0.081,0.614c0.054,0.183 0.129,0.342 0.226,0.476c0.102,0.129 0.223,0.232 0.363,0.307c0.14,0.07 0.293,0.105 0.46,0.105Zm3.996,0.549c-0.419,0 -0.726,-0.129 -0.92,-0.388c-0.188,-0.258 -0.282,-0.64 -0.282,-1.146l0,-2.486l0.67,0l0,2.397c0,0.372 0.056,0.641 0.169,0.808c0.119,0.161 0.307,0.242 0.565,0.242c0.205,0 0.385,-0.051 0.541,-0.154c0.156,-0.107 0.328,-0.277 0.517,-0.508l0,-2.785l0.662,0l0,3.923l-0.549,0l-0.057,-0.613l-0.024,0c-0.183,0.215 -0.377,0.387 -0.581,0.516c-0.199,0.129 -0.436,0.194 -0.711,0.194Zm3.245,-0.097l0,-3.923l0.549,0l0.057,0.71l0.024,0c0.135,-0.248 0.296,-0.444 0.485,-0.589c0.193,-0.146 0.403,-0.218 0.629,-0.218c0.156,0 0.296,0.027 0.42,0.08l-0.129,0.582c-0.065,-0.022 -0.124,-0.038 -0.178,-0.049c-0.054,-0.011 -0.121,-0.016 -0.202,-0.016c-0.166,0 -0.341,0.067 -0.524,0.202c-0.178,0.134 -0.334,0.369 -0.469,0.702l0,2.519l-0.662,0Zm4.27,0.097c-0.258,0 -0.5,-0.046 -0.726,-0.137c-0.226,-0.092 -0.423,-0.224 -0.589,-0.396c-0.162,-0.177 -0.291,-0.393 -0.388,-0.646c-0.091,-0.258 -0.137,-0.549 -0.137,-0.872c0,-0.328 0.051,-0.619 0.153,-0.871c0.102,-0.259 0.24,-0.477 0.412,-0.654c0.172,-0.178 0.371,-0.313 0.597,-0.404c0.232,-0.092 0.474,-0.137 0.727,-0.137c0.258,0 0.479,0.045 0.662,0.137c0.183,0.091 0.344,0.199 0.484,0.323l-0.339,0.436c-0.113,-0.102 -0.234,-0.186 -0.363,-0.25c-0.124,-0.065 -0.264,-0.097 -0.42,-0.097c-0.178,0 -0.342,0.037 -0.492,0.113c-0.151,0.07 -0.28,0.172 -0.388,0.306c-0.108,0.135 -0.194,0.296 -0.258,0.485c-0.059,0.183 -0.089,0.387 -0.089,0.613c0,0.226 0.03,0.431 0.089,0.614c0.059,0.183 0.14,0.342 0.242,0.476c0.108,0.129 0.237,0.232 0.387,0.307c0.151,0.07 0.315,0.105 0.493,0.105c0.183,0 0.35,-0.038 0.5,-0.113c0.157,-0.081 0.297,-0.175 0.42,-0.283l0.291,0.444c-0.178,0.157 -0.374,0.28 -0.589,0.372c-0.216,0.086 -0.442,0.129 -0.679,0.129Zm3.549,0c-0.264,0 -0.511,-0.046 -0.743,-0.137c-0.226,-0.097 -0.425,-0.232 -0.597,-0.404c-0.167,-0.178 -0.299,-0.393 -0.396,-0.646c-0.096,-0.253 -0.145,-0.541 -0.145,-0.864c0,-0.323 0.049,-0.61 0.145,-0.863c0.103,-0.259 0.235,-0.477 0.396,-0.654c0.167,-0.178 0.355,-0.313 0.565,-0.404c0.21,-0.097 0.428,-0.145 0.654,-0.145c0.248,0 0.468,0.043 0.662,0.129c0.199,0.086 0.363,0.21 0.493,0.371c0.134,0.162 0.236,0.355 0.306,0.581c0.07,0.227 0.105,0.479 0.105,0.759c0,0.07 -0.002,0.14 -0.008,0.21c0,0.065 -0.005,0.121 -0.016,0.17l-2.648,0c0.027,0.42 0.156,0.753 0.388,1.001c0.236,0.242 0.543,0.363 0.92,0.363c0.188,0 0.36,-0.027 0.517,-0.081c0.161,-0.059 0.314,-0.134 0.46,-0.226l0.234,0.436c-0.172,0.108 -0.363,0.202 -0.573,0.283c-0.21,0.081 -0.45,0.121 -0.719,0.121Zm-1.235,-2.374l2.099,0c0,-0.398 -0.086,-0.699 -0.258,-0.904c-0.167,-0.21 -0.404,-0.315 -0.711,-0.315c-0.14,0 -0.274,0.027 -0.403,0.081c-0.124,0.054 -0.237,0.135 -0.34,0.242c-0.102,0.103 -0.188,0.229 -0.258,0.38c-0.064,0.151 -0.108,0.323 -0.129,0.516Zm6.8,2.374c-0.371,0 -0.716,-0.07 -1.033,-0.21c-0.318,-0.14 -0.593,-0.331 -0.824,-0.573l0.404,-0.468c0.188,0.199 0.409,0.36 0.662,0.484c0.258,0.118 0.525,0.178 0.799,0.178c0.35,0 0.622,-0.078 0.815,-0.234c0.194,-0.162 0.291,-0.372 0.291,-0.63c0,-0.135 -0.024,-0.248 -0.073,-0.339c-0.043,-0.097 -0.105,-0.178 -0.185,-0.242c-0.076,-0.07 -0.167,-0.132 -0.275,-0.186c-0.107,-0.054 -0.223,-0.11 -0.347,-0.17l-0.759,-0.331c-0.124,-0.053 -0.25,-0.118 -0.379,-0.193c-0.129,-0.076 -0.245,-0.167 -0.347,-0.275c-0.103,-0.108 -0.186,-0.234 -0.251,-0.379c-0.064,-0.151 -0.097,-0.323 -0.097,-0.517c0,-0.199 0.041,-0.385 0.122,-0.557c0.086,-0.172 0.201,-0.32 0.347,-0.444c0.15,-0.129 0.325,-0.229 0.524,-0.299c0.205,-0.07 0.428,-0.105 0.671,-0.105c0.317,0 0.61,0.062 0.879,0.186c0.27,0.118 0.498,0.274 0.687,0.468l-0.364,0.436c-0.161,-0.156 -0.341,-0.277 -0.54,-0.363c-0.194,-0.092 -0.415,-0.137 -0.662,-0.137c-0.297,0 -0.536,0.07 -0.719,0.209c-0.178,0.135 -0.266,0.323 -0.266,0.566c0,0.129 0.024,0.239 0.072,0.331c0.054,0.086 0.124,0.164 0.21,0.234c0.086,0.064 0.18,0.124 0.283,0.177c0.102,0.049 0.207,0.095 0.315,0.138l0.75,0.323c0.151,0.064 0.294,0.139 0.428,0.226c0.135,0.08 0.251,0.177 0.347,0.29c0.097,0.108 0.173,0.237 0.226,0.388c0.06,0.145 0.089,0.315 0.089,0.508c0,0.21 -0.043,0.407 -0.129,0.59c-0.081,0.183 -0.199,0.344 -0.355,0.484c-0.156,0.135 -0.345,0.242 -0.565,0.323c-0.221,0.075 -0.471,0.113 -0.751,0.113Zm3.683,0c-0.329,0 -0.603,-0.097 -0.824,-0.291c-0.215,-0.193 -0.323,-0.468 -0.323,-0.823c0,-0.431 0.191,-0.759 0.574,-0.985c0.382,-0.231 0.993,-0.393 1.832,-0.484c0,-0.124 -0.013,-0.245 -0.04,-0.364c-0.022,-0.118 -0.062,-0.223 -0.121,-0.315c-0.06,-0.091 -0.143,-0.164 -0.251,-0.218c-0.102,-0.059 -0.234,-0.088 -0.395,-0.088c-0.226,0 -0.439,0.043 -0.638,0.129c-0.199,0.086 -0.377,0.183 -0.533,0.29l-0.258,-0.46c0.183,-0.118 0.406,-0.231 0.67,-0.339c0.264,-0.113 0.554,-0.169 0.872,-0.169c0.479,0 0.826,0.148 1.041,0.444c0.216,0.29 0.323,0.681 0.323,1.17l0,2.406l-0.549,0l-0.056,-0.468l-0.025,0c-0.188,0.156 -0.39,0.291 -0.605,0.404c-0.215,0.107 -0.447,0.161 -0.694,0.161Zm0.193,-0.533c0.189,0 0.366,-0.043 0.533,-0.129c0.167,-0.091 0.345,-0.223 0.533,-0.396l0,-1.089c-0.328,0.043 -0.605,0.094 -0.831,0.153c-0.221,0.059 -0.401,0.129 -0.541,0.21c-0.135,0.081 -0.234,0.175 -0.299,0.282c-0.059,0.103 -0.089,0.216 -0.089,0.339c0,0.227 0.067,0.388 0.202,0.485c0.135,0.097 0.299,0.145 0.492,0.145Zm2.971,0.436l0,-3.923l0.549,0l0.056,0.565l0.024,0c0.189,-0.189 0.385,-0.345 0.59,-0.469c0.21,-0.129 0.452,-0.193 0.726,-0.193c0.415,0 0.716,0.129 0.904,0.387c0.194,0.259 0.291,0.641 0.291,1.147l0,2.486l-0.662,0l0,-2.398c0,-0.371 -0.059,-0.637 -0.178,-0.799c-0.118,-0.167 -0.306,-0.25 -0.565,-0.25c-0.204,0 -0.384,0.051 -0.541,0.153c-0.156,0.103 -0.333,0.253 -0.532,0.452l0,2.842l-0.662,0Zm5.44,0.097c-0.28,0 -0.546,-0.051 -0.799,-0.153c-0.253,-0.103 -0.474,-0.232 -0.662,-0.388l0.331,-0.444c0.172,0.14 0.347,0.253 0.524,0.339c0.183,0.086 0.393,0.129 0.63,0.129c0.259,0 0.452,-0.059 0.581,-0.177c0.13,-0.119 0.194,-0.264 0.194,-0.436c0,-0.103 -0.027,-0.191 -0.081,-0.267c-0.053,-0.075 -0.123,-0.14 -0.209,-0.193c-0.081,-0.06 -0.175,-0.111 -0.283,-0.154c-0.108,-0.043 -0.215,-0.086 -0.323,-0.129c-0.14,-0.048 -0.28,-0.102 -0.42,-0.161c-0.14,-0.065 -0.266,-0.14 -0.379,-0.226c-0.108,-0.092 -0.197,-0.197 -0.267,-0.315c-0.07,-0.119 -0.105,-0.261 -0.105,-0.428c0,-0.156 0.03,-0.302 0.089,-0.436c0.065,-0.14 0.154,-0.259 0.267,-0.355c0.118,-0.103 0.261,-0.181 0.428,-0.235c0.166,-0.059 0.355,-0.088 0.565,-0.088c0.247,0 0.473,0.043 0.678,0.129c0.21,0.086 0.39,0.191 0.541,0.315l-0.315,0.42c-0.135,-0.103 -0.275,-0.186 -0.42,-0.251c-0.145,-0.064 -0.304,-0.097 -0.476,-0.097c-0.248,0 -0.431,0.057 -0.549,0.17c-0.113,0.113 -0.17,0.245 -0.17,0.395c0,0.092 0.024,0.173 0.073,0.243c0.048,0.064 0.113,0.123 0.194,0.177c0.08,0.049 0.172,0.094 0.274,0.138c0.108,0.037 0.218,0.078 0.331,0.121c0.14,0.053 0.28,0.11 0.42,0.169c0.145,0.059 0.274,0.135 0.387,0.226c0.113,0.086 0.205,0.194 0.275,0.323c0.075,0.129 0.113,0.285 0.113,0.468c0,0.162 -0.032,0.313 -0.097,0.452c-0.059,0.14 -0.151,0.264 -0.274,0.372c-0.119,0.107 -0.269,0.191 -0.452,0.25c-0.178,0.065 -0.383,0.097 -0.614,0.097Zm4.038,-0.097l0,-5.296l1.509,0c0.296,0 0.566,0.027 0.808,0.081c0.247,0.054 0.457,0.142 0.629,0.266c0.173,0.119 0.307,0.277 0.404,0.477c0.097,0.199 0.145,0.444 0.145,0.734c0,0.28 -0.048,0.522 -0.145,0.727c-0.091,0.204 -0.223,0.374 -0.396,0.508c-0.172,0.135 -0.379,0.237 -0.621,0.307c-0.237,0.065 -0.501,0.097 -0.791,0.097l-0.872,0l0,2.099l-0.67,0Zm0.67,-2.648l0.791,0c0.463,0 0.805,-0.086 1.025,-0.258c0.226,-0.178 0.339,-0.455 0.339,-0.832c0,-0.382 -0.118,-0.646 -0.355,-0.791c-0.231,-0.151 -0.579,-0.226 -1.041,-0.226l-0.759,0l0,2.107Zm3.838,2.648l0,-3.923l0.549,0l0.056,0.71l0.025,0c0.134,-0.248 0.296,-0.444 0.484,-0.589c0.194,-0.146 0.404,-0.218 0.63,-0.218c0.156,0 0.296,0.027 0.419,0.08l-0.129,0.582c-0.064,-0.022 -0.124,-0.038 -0.177,-0.049c-0.054,-0.011 -0.121,-0.016 -0.202,-0.016c-0.167,0 -0.342,0.067 -0.525,0.202c-0.178,0.134 -0.334,0.369 -0.468,0.702l0,2.519l-0.662,0Zm4.246,0.097c-0.243,0 -0.474,-0.046 -0.695,-0.137c-0.215,-0.092 -0.406,-0.224 -0.573,-0.396c-0.167,-0.177 -0.301,-0.393 -0.404,-0.646c-0.096,-0.258 -0.145,-0.549 -0.145,-0.872c0,-0.328 0.049,-0.619 0.145,-0.871c0.103,-0.259 0.237,-0.477 0.404,-0.654c0.167,-0.178 0.358,-0.313 0.573,-0.404c0.221,-0.092 0.452,-0.137 0.695,-0.137c0.242,0 0.47,0.045 0.686,0.137c0.22,0.091 0.414,0.226 0.581,0.404c0.167,0.177 0.299,0.395 0.396,0.654c0.102,0.252 0.153,0.543 0.153,0.871c0,0.323 -0.051,0.614 -0.153,0.872c-0.097,0.253 -0.229,0.469 -0.396,0.646c-0.167,0.172 -0.361,0.304 -0.581,0.396c-0.216,0.091 -0.444,0.137 -0.686,0.137Zm0,-0.549c0.167,0 0.32,-0.035 0.46,-0.105c0.14,-0.075 0.258,-0.178 0.355,-0.307c0.102,-0.134 0.18,-0.293 0.234,-0.476c0.054,-0.183 0.081,-0.388 0.081,-0.614c0,-0.226 -0.027,-0.43 -0.081,-0.613c-0.054,-0.189 -0.132,-0.35 -0.234,-0.485c-0.097,-0.134 -0.215,-0.236 -0.355,-0.306c-0.14,-0.076 -0.293,-0.113 -0.46,-0.113c-0.167,0 -0.321,0.037 -0.461,0.113c-0.139,0.07 -0.26,0.172 -0.363,0.306c-0.097,0.135 -0.172,0.296 -0.226,0.485c-0.054,0.183 -0.081,0.387 -0.081,0.613c0,0.226 0.027,0.431 0.081,0.614c0.054,0.183 0.129,0.342 0.226,0.476c0.103,0.129 0.224,0.232 0.363,0.307c0.14,0.07 0.294,0.105 0.461,0.105Z" style="fill:#757575;fill-rule:nonzero;"/></g></svg>