<?xml version="1.0" encoding="UTF-8" standalone="no"?><!DOCTYPE svg PUBLIC "-//W3C//DTD SVG 1.1//EN" "http://www.w3.org/Graphics/SVG/1.1/DTD/svg11.dtd"><svg width="112px" height="29px" version="1.1" xmlns="http://www.w3.org/2000/svg" xmlns:xlink="http://www.w3.org/1999/xlink" xml:space="preserve" xmlns:serif="http://www.serif.com/" style="fill-rule:evenodd;clip-rule:evenodd;stroke-linejoin:round;stroke-miterlimit:2;"><g><path d="M0,0.283c0,-0.189 0.08,-0.283 0.239,-0.283l2.132,0c0.159,0 0.239,0.089 0.239,0.268l0,8.695c0,0.07 0.01,0.12 0.03,0.149c0.03,0.03 0.074,0.045 0.134,0.045l4.758,0c0.179,0 0.268,0.075 0.268,0.224l0,1.417c0,0.079 -0.025,0.144 -0.075,0.194c-0.049,0.049 -0.119,0.074 -0.208,0.074l-7.189,0c-0.119,0 -0.204,-0.025 -0.253,-0.074c-0.05,-0.05 -0.075,-0.13 -0.075,-0.239l0,-10.47Zm11.453,1.551c0,0.249 -0.134,0.373 -0.402,0.373l-1.611,0c-0.119,0 -0.204,-0.025 -0.254,-0.074c-0.049,-0.06 -0.074,-0.149 -0.074,-0.269l0,-1.566c0,-0.199 0.084,-0.298 0.253,-0.298l1.85,0c0.069,0 0.124,0.025 0.164,0.075c0.049,0.049 0.074,0.119 0.074,0.208l0,1.551Zm-0.03,8.874c0,0.129 -0.029,0.224 -0.089,0.284c-0.06,0.049 -0.164,0.074 -0.313,0.074l-1.566,0c-0.12,0 -0.204,-0.025 -0.254,-0.074c-0.05,-0.05 -0.074,-0.13 -0.074,-0.239l0,-7.308c0,-0.189 0.084,-0.283 0.253,-0.283l1.82,0c0.149,0 0.223,0.084 0.223,0.253l0,7.293Zm1.994,0.358c-0.12,0 -0.209,-0.025 -0.269,-0.074c-0.05,-0.06 -0.074,-0.145 -0.074,-0.254l0,-10.455c0,-0.089 0.019,-0.159 0.059,-0.208c0.05,-0.05 0.115,-0.075 0.194,-0.075l1.82,0c0.149,0 0.223,0.089 0.223,0.268l0,3.475c0,0.12 0.035,0.179 0.105,0.179c0.04,0 0.094,-0.024 0.164,-0.074c0.596,-0.557 1.292,-0.835 2.088,-0.835c0.994,0 1.76,0.367 2.296,1.103c0.547,0.736 0.821,1.72 0.821,2.953c0,1.283 -0.299,2.297 -0.895,3.043c-0.597,0.735 -1.432,1.103 -2.506,1.103c-0.507,0 -0.964,-0.114 -1.372,-0.343c-0.397,-0.228 -0.726,-0.517 -0.984,-0.865c-0.05,-0.049 -0.085,-0.074 -0.104,-0.074c-0.03,0 -0.055,0.039 -0.075,0.119l-0.179,0.716c-0.03,0.109 -0.07,0.189 -0.119,0.238c-0.05,0.04 -0.125,0.06 -0.224,0.06l-0.969,0Zm1.953,-2.729c0,0.427 0.145,0.78 0.433,1.059c0.298,0.278 0.651,0.417 1.059,0.417c1.093,0 1.64,-0.904 1.64,-2.714c0,-0.905 -0.134,-1.566 -0.402,-1.984c-0.259,-0.427 -0.652,-0.641 -1.179,-0.641c-0.596,0 -1.113,0.264 -1.551,0.791l0,3.072Zm7.105,2.729c-0.209,0 -0.313,-0.099 -0.313,-0.298l0,-7.323c0,-0.189 0.079,-0.283 0.238,-0.283l1.745,0c0.159,0 0.239,0.084 0.239,0.253l0,0.88c0,0.04 0.01,0.07 0.03,0.09c0.02,0.02 0.04,0.03 0.059,0.03c0.03,0 0.07,-0.025 0.12,-0.075c0.298,-0.398 0.651,-0.716 1.059,-0.955c0.407,-0.248 0.795,-0.372 1.163,-0.372c0.358,0 0.537,0.084 0.537,0.253l0,1.73c0,0.07 -0.02,0.124 -0.06,0.164c-0.04,0.04 -0.094,0.05 -0.164,0.03c-0.318,-0.08 -0.666,-0.119 -1.044,-0.119c-0.248,0 -0.502,0.064 -0.76,0.194c-0.249,0.119 -0.458,0.283 -0.627,0.492c-0.159,0.199 -0.238,0.402 -0.238,0.611l0,4.355c0,0.229 -0.13,0.343 -0.388,0.343l-1.596,0Zm7.803,-3.281c0,0.557 0.184,1.009 0.551,1.357c0.378,0.338 0.846,0.507 1.402,0.507c0.358,0 0.686,-0.074 0.985,-0.223c0.308,-0.159 0.616,-0.418 0.924,-0.776c0.04,-0.04 0.08,-0.06 0.12,-0.06c0.029,0 0.079,0.015 0.149,0.045l1.074,0.448c0.069,0.029 0.104,0.079 0.104,0.149c0,0.049 -0.02,0.099 -0.06,0.149c-0.477,0.676 -0.989,1.153 -1.536,1.432c-0.547,0.268 -1.228,0.402 -2.043,0.402c-0.766,0 -1.457,-0.169 -2.073,-0.507c-0.617,-0.338 -1.099,-0.805 -1.447,-1.402c-0.348,-0.606 -0.522,-1.297 -0.522,-2.073c0,-0.835 0.179,-1.571 0.537,-2.207c0.358,-0.646 0.84,-1.143 1.447,-1.491c0.616,-0.348 1.287,-0.522 2.013,-0.522c0.756,0 1.427,0.169 2.014,0.507c0.586,0.328 1.044,0.805 1.372,1.431c0.328,0.627 0.492,1.373 0.492,2.238c0,0.129 -0.015,0.218 -0.045,0.268c-0.02,0.05 -0.089,0.08 -0.209,0.089l-5.07,0c-0.12,0 -0.179,0.08 -0.179,0.239Zm2.997,-1.491c0.11,0 0.179,-0.01 0.209,-0.03c0.03,-0.03 0.045,-0.09 0.045,-0.179c0,-0.259 -0.06,-0.517 -0.179,-0.776c-0.119,-0.258 -0.293,-0.472 -0.522,-0.641c-0.229,-0.169 -0.507,-0.253 -0.835,-0.253c-0.497,0 -0.905,0.174 -1.223,0.522c-0.318,0.348 -0.472,0.795 -0.463,1.342l2.968,0.015Zm7.025,-6.011c0,-0.189 0.079,-0.283 0.238,-0.283l7.398,0c0.149,0 0.223,0.085 0.223,0.254l-0.014,1.342c0,0.209 -0.1,0.313 -0.299,0.313l-4.653,0c-0.099,0 -0.174,0.02 -0.224,0.06c-0.04,0.039 -0.059,0.099 -0.059,0.179l0,2.311c0,0.159 0.074,0.239 0.223,0.239l3.237,0c0.159,0 0.238,0.079 0.238,0.239l0,1.416c0,0.14 -0.074,0.209 -0.223,0.209l-3.267,0c-0.139,0 -0.208,0.065 -0.208,0.194l0,3.967c0,0.129 -0.03,0.219 -0.09,0.269c-0.06,0.049 -0.159,0.074 -0.298,0.074l-1.894,0c-0.12,0 -0.204,-0.025 -0.254,-0.074c-0.049,-0.05 -0.074,-0.13 -0.074,-0.239l0,-10.47Zm8.537,10.783c-0.209,0 -0.314,-0.099 -0.314,-0.298l0,-7.323c0,-0.189 0.08,-0.283 0.239,-0.283l1.745,0c0.159,0 0.239,0.084 0.239,0.253l0,0.88c0,0.04 0.009,0.07 0.029,0.09c0.02,0.02 0.04,0.03 0.06,0.03c0.03,0 0.07,-0.025 0.119,-0.075c0.299,-0.398 0.651,-0.716 1.059,-0.955c0.408,-0.248 0.795,-0.372 1.164,-0.372c0.358,0 0.536,0.084 0.536,0.253l0,1.73c0,0.07 -0.02,0.124 -0.059,0.164c-0.04,0.04 -0.095,0.05 -0.164,0.03c-0.319,-0.08 -0.667,-0.119 -1.044,-0.119c-0.249,0 -0.503,0.064 -0.761,0.194c-0.249,0.119 -0.457,0.283 -0.626,0.492c-0.16,0.199 -0.239,0.402 -0.239,0.611l0,4.355c0,0.229 -0.129,0.343 -0.388,0.343l-1.595,0Zm10.289,-0.76c-0.656,0.606 -1.437,0.909 -2.341,0.909c-0.746,0 -1.337,-0.199 -1.775,-0.596c-0.438,-0.408 -0.656,-0.935 -0.656,-1.581c0,-0.835 0.382,-1.506 1.148,-2.014c0.766,-0.507 1.82,-0.775 3.162,-0.805l0.537,-0.045c0.06,0 0.109,-0.015 0.149,-0.044c0.05,-0.04 0.075,-0.095 0.075,-0.164l0,-0.314c0,-0.387 -0.11,-0.686 -0.329,-0.894c-0.218,-0.209 -0.531,-0.314 -0.939,-0.314c-0.696,0 -1.213,0.299 -1.551,0.895c-0.04,0.1 -0.105,0.149 -0.194,0.149c-0.05,0 -0.095,-0.005 -0.134,-0.015l-1.492,-0.343c-0.089,-0.02 -0.134,-0.074 -0.134,-0.164c0,-0.059 0.02,-0.134 0.06,-0.223c0.238,-0.577 0.661,-1.01 1.267,-1.298c0.617,-0.288 1.378,-0.432 2.282,-0.432c1.184,0 2.038,0.218 2.565,0.656c0.528,0.427 0.791,1.039 0.791,1.834l0,5.235c0,0.119 -0.02,0.204 -0.06,0.254c-0.039,0.049 -0.114,0.074 -0.223,0.074l-1.537,0c-0.099,0 -0.173,-0.035 -0.223,-0.104c-0.04,-0.07 -0.07,-0.174 -0.09,-0.313l-0.015,-0.329c-0.009,-0.089 -0.05,-0.134 -0.119,-0.134c-0.04,0 -0.114,0.04 -0.224,0.12Zm0.299,-2.76c0,-0.089 -0.015,-0.154 -0.045,-0.193c-0.03,-0.04 -0.09,-0.06 -0.179,-0.06l-0.418,0.03c-0.576,0.03 -1.088,0.169 -1.536,0.417c-0.437,0.239 -0.656,0.572 -0.656,1c0,0.298 0.104,0.536 0.313,0.715c0.209,0.169 0.497,0.254 0.865,0.254c0.457,0 0.845,-0.134 1.163,-0.403c0.329,-0.258 0.493,-0.522 0.493,-0.79l0,-0.97Zm4.063,3.52c-0.109,0 -0.189,-0.02 -0.238,-0.06c-0.05,-0.049 -0.075,-0.129 -0.075,-0.238l0,-7.323c0,-0.189 0.08,-0.283 0.239,-0.283l1.804,0c0.149,0 0.224,0.084 0.224,0.253l0,0.731c0,0.08 0.025,0.119 0.074,0.119c0.03,0 0.065,-0.02 0.105,-0.059c0.408,-0.388 0.815,-0.681 1.223,-0.88c0.408,-0.209 0.84,-0.313 1.297,-0.313c0.726,0 1.298,0.213 1.715,0.641c0.428,0.427 0.642,0.999 0.642,1.715l0,5.339c0,0.239 -0.12,0.358 -0.358,0.358l-1.656,0c-0.109,0 -0.183,-0.02 -0.223,-0.06c-0.04,-0.049 -0.06,-0.129 -0.06,-0.238l0,-5.041c0,-0.338 -0.094,-0.597 -0.283,-0.776c-0.179,-0.188 -0.448,-0.283 -0.806,-0.283c-0.298,0 -0.576,0.075 -0.835,0.224c-0.248,0.149 -0.517,0.383 -0.805,0.701l0,5.13c0,0.119 -0.03,0.209 -0.09,0.269c-0.059,0.049 -0.159,0.074 -0.298,0.074l-1.596,0Zm16.446,-0.343c0.02,0.03 0.03,0.075 0.03,0.134c0,0.06 -0.025,0.11 -0.075,0.149c-0.04,0.04 -0.099,0.06 -0.179,0.06l-1.953,0c-0.17,0 -0.304,-0.104 -0.403,-0.313l-1.536,-3.072c-0.04,-0.09 -0.085,-0.135 -0.134,-0.135c-0.03,0 -0.07,0.025 -0.12,0.075l-1.059,1.044c-0.089,0.07 -0.134,0.194 -0.134,0.373l0,1.67c0,0.129 -0.03,0.224 -0.089,0.284c-0.06,0.049 -0.16,0.074 -0.299,0.074l-1.581,0c-0.119,0 -0.204,-0.025 -0.253,-0.074c-0.05,-0.05 -0.075,-0.13 -0.075,-0.239l0,-10.47c0,-0.189 0.08,-0.283 0.239,-0.283l1.834,0c0.15,0 0.224,0.089 0.224,0.268l0,6.115c0,0.08 0.02,0.119 0.06,0.119c0.039,0 0.079,-0.024 0.119,-0.074l2.804,-3.043c0.149,-0.149 0.283,-0.223 0.403,-0.223l1.595,0c0.169,0 0.254,0.054 0.254,0.164c0,0.069 -0.035,0.139 -0.104,0.209l-2.088,2.117c-0.06,0.07 -0.09,0.135 -0.09,0.194c0,0.07 0.02,0.144 0.06,0.224l2.55,4.653Zm3.438,-0.015c0,0.129 -0.03,0.224 -0.09,0.284c-0.059,0.049 -0.164,0.074 -0.313,0.074l-1.581,0c-0.119,0 -0.204,-0.025 -0.253,-0.074c-0.05,-0.05 -0.075,-0.13 -0.075,-0.239l0.045,-10.47c0,-0.189 0.079,-0.283 0.238,-0.283l1.805,0c0.149,0 0.224,0.089 0.224,0.268l0,10.44Zm3.976,-8.874c0,0.249 -0.134,0.373 -0.403,0.373l-1.61,0c-0.12,0 -0.204,-0.025 -0.254,-0.074c-0.049,-0.06 -0.074,-0.149 -0.074,-0.269l0,-1.566c0,-0.199 0.084,-0.298 0.253,-0.298l1.85,0c0.069,0 0.124,0.025 0.164,0.075c0.049,0.049 0.074,0.119 0.074,0.208l0,1.551Zm-0.03,8.874c0,0.129 -0.03,0.224 -0.089,0.284c-0.06,0.049 -0.164,0.074 -0.313,0.074l-1.566,0c-0.12,0 -0.204,-0.025 -0.254,-0.074c-0.049,-0.05 -0.074,-0.13 -0.074,-0.239l0,-7.308c0,-0.189 0.084,-0.283 0.253,-0.283l1.82,0c0.149,0 0.223,0.084 0.223,0.253l0,7.293Zm1.964,0.358c-0.11,0 -0.189,-0.02 -0.239,-0.06c-0.05,-0.049 -0.074,-0.129 -0.074,-0.238l0,-7.323c0,-0.189 0.079,-0.283 0.238,-0.283l1.805,0c0.149,0 0.224,0.084 0.224,0.253l0,0.731c0,0.08 0.024,0.119 0.074,0.119c0.03,0 0.065,-0.02 0.105,-0.059c0.407,-0.388 0.815,-0.681 1.222,-0.88c0.408,-0.209 0.841,-0.313 1.298,-0.313c0.726,0 1.297,0.213 1.715,0.641c0.427,0.427 0.641,0.999 0.641,1.715l0,5.339c0,0.239 -0.119,0.358 -0.358,0.358l-1.655,0c-0.11,0 -0.184,-0.02 -0.224,-0.06c-0.039,-0.049 -0.059,-0.129 -0.059,-0.238l0,-5.041c0,-0.338 -0.095,-0.597 -0.284,-0.776c-0.179,-0.188 -0.447,-0.283 -0.805,-0.283c-0.298,0 -0.577,0.075 -0.835,0.224c-0.249,0.149 -0.517,0.383 -0.806,0.701l0,5.13c0,0.119 -0.029,0.209 -0.089,0.269c-0.06,0.049 -0.159,0.074 -0.298,0.074l-1.596,0Z" style="fill:#3b3f5c;fill-rule:nonzero;"/><path d="M3.579,23.017c0,0.445 -0.154,0.817 -0.461,1.114c-0.302,0.291 -0.765,0.437 -1.39,0.437l-1.029,0l0,2.235l-0.699,0l0,-5.353l1.728,0c0.604,0 1.062,0.146 1.375,0.438c0.317,0.292 0.476,0.668 0.476,1.129Zm-1.851,0.975c0.389,0 0.676,-0.084 0.86,-0.253c0.184,-0.169 0.277,-0.41 0.277,-0.722c0,-0.661 -0.379,-0.991 -1.137,-0.991l-1.029,0l0,1.966l1.029,0Zm4.555,2.88c-0.394,0 -0.753,-0.089 -1.075,-0.268c-0.318,-0.18 -0.568,-0.433 -0.753,-0.761c-0.179,-0.333 -0.269,-0.717 -0.269,-1.152c0,-0.43 0.093,-0.809 0.277,-1.136c0.189,-0.333 0.445,-0.587 0.768,-0.761c0.322,-0.179 0.683,-0.269 1.083,-0.269c0.399,0 0.76,0.09 1.083,0.269c0.322,0.174 0.576,0.425 0.76,0.753c0.189,0.328 0.284,0.709 0.284,1.144c0,0.435 -0.097,0.819 -0.292,1.152c-0.189,0.328 -0.448,0.581 -0.775,0.761c-0.328,0.179 -0.692,0.268 -1.091,0.268Zm0,-0.614c0.251,0 0.486,-0.059 0.707,-0.177c0.22,-0.117 0.396,-0.294 0.529,-0.53c0.139,-0.235 0.208,-0.522 0.208,-0.86c0,-0.338 -0.067,-0.624 -0.2,-0.86c-0.133,-0.235 -0.307,-0.41 -0.522,-0.522c-0.215,-0.118 -0.448,-0.177 -0.699,-0.177c-0.256,0 -0.491,0.059 -0.707,0.177c-0.209,0.112 -0.378,0.287 -0.506,0.522c-0.128,0.236 -0.192,0.522 -0.192,0.86c0,0.343 0.061,0.633 0.184,0.868c0.128,0.236 0.297,0.412 0.507,0.53c0.21,0.113 0.44,0.169 0.691,0.169Zm3.776,-2.888c0.138,-0.24 0.343,-0.44 0.614,-0.599c0.277,-0.164 0.597,-0.246 0.96,-0.246c0.374,0 0.712,0.09 1.014,0.269c0.307,0.179 0.548,0.433 0.722,0.761c0.174,0.322 0.261,0.698 0.261,1.129c0,0.424 -0.087,0.803 -0.261,1.136c-0.174,0.333 -0.415,0.592 -0.722,0.776c-0.302,0.184 -0.64,0.276 -1.014,0.276c-0.358,0 -0.676,-0.079 -0.952,-0.238c-0.271,-0.164 -0.479,-0.366 -0.622,-0.606l0,2.772l-0.699,0l0,-6.205l0.699,0l0,0.775Zm2.857,1.314c0,-0.318 -0.064,-0.594 -0.192,-0.83c-0.128,-0.235 -0.302,-0.415 -0.522,-0.538c-0.215,-0.122 -0.454,-0.184 -0.715,-0.184c-0.256,0 -0.494,0.064 -0.714,0.192c-0.215,0.123 -0.389,0.305 -0.522,0.545c-0.128,0.236 -0.192,0.51 -0.192,0.822c0,0.318 0.064,0.597 0.192,0.837c0.133,0.236 0.307,0.418 0.522,0.546c0.22,0.122 0.458,0.184 0.714,0.184c0.261,0 0.5,-0.062 0.715,-0.184c0.22,-0.128 0.394,-0.31 0.522,-0.546c0.128,-0.24 0.192,-0.522 0.192,-0.844Zm2.333,-1.314c0.138,-0.24 0.343,-0.44 0.614,-0.599c0.277,-0.164 0.597,-0.246 0.96,-0.246c0.374,0 0.712,0.09 1.014,0.269c0.307,0.179 0.548,0.433 0.722,0.761c0.174,0.322 0.261,0.698 0.261,1.129c0,0.424 -0.087,0.803 -0.261,1.136c-0.174,0.333 -0.415,0.592 -0.722,0.776c-0.302,0.184 -0.64,0.276 -1.014,0.276c-0.358,0 -0.676,-0.079 -0.952,-0.238c-0.271,-0.164 -0.479,-0.366 -0.622,-0.606l0,2.772l-0.699,0l0,-6.205l0.699,0l0,0.775Zm2.857,1.314c0,-0.318 -0.064,-0.594 -0.192,-0.83c-0.128,-0.235 -0.302,-0.415 -0.522,-0.538c-0.215,-0.122 -0.454,-0.184 -0.715,-0.184c-0.256,0 -0.494,0.064 -0.714,0.192c-0.215,0.123 -0.389,0.305 -0.522,0.545c-0.128,0.236 -0.192,0.51 -0.192,0.822c0,0.318 0.064,0.597 0.192,0.837c0.133,0.236 0.307,0.418 0.522,0.546c0.22,0.122 0.458,0.184 0.714,0.184c0.261,0 0.5,-0.062 0.715,-0.184c0.22,-0.128 0.394,-0.31 0.522,-0.546c0.128,-0.24 0.192,-0.522 0.192,-0.844Zm1.995,-2.773c-0.133,0 -0.246,-0.046 -0.338,-0.138c-0.092,-0.092 -0.138,-0.205 -0.138,-0.338c0,-0.133 0.046,-0.246 0.138,-0.338c0.092,-0.092 0.205,-0.138 0.338,-0.138c0.128,0 0.235,0.046 0.323,0.138c0.092,0.092 0.138,0.205 0.138,0.338c0,0.133 -0.046,0.246 -0.138,0.338c-0.088,0.092 -0.195,0.138 -0.323,0.138Zm0.338,0.684l0,4.208l-0.699,0l0,-4.208l0.699,0Zm3.242,-0.077c0.512,0 0.926,0.156 1.244,0.468c0.317,0.307 0.476,0.753 0.476,1.337l0,2.48l-0.691,0l0,-2.381c0,-0.419 -0.105,-0.739 -0.315,-0.96c-0.21,-0.225 -0.497,-0.338 -0.86,-0.338c-0.369,0 -0.663,0.116 -0.884,0.346c-0.215,0.23 -0.322,0.566 -0.322,1.006l0,2.327l-0.699,0l0,-4.208l0.699,0l0,0.599c0.138,-0.215 0.325,-0.382 0.561,-0.5c0.24,-0.117 0.504,-0.176 0.791,-0.176Zm4.351,4.354c-0.322,0 -0.611,-0.053 -0.867,-0.161c-0.256,-0.113 -0.459,-0.266 -0.607,-0.461c-0.149,-0.199 -0.231,-0.427 -0.246,-0.683l0.722,0c0.02,0.21 0.118,0.381 0.292,0.514c0.179,0.133 0.412,0.2 0.699,0.2c0.266,0 0.476,-0.059 0.63,-0.177c0.153,-0.117 0.23,-0.266 0.23,-0.445c0,-0.184 -0.082,-0.32 -0.246,-0.407c-0.164,-0.092 -0.417,-0.182 -0.76,-0.269c-0.313,-0.082 -0.568,-0.164 -0.768,-0.246c-0.195,-0.087 -0.364,-0.212 -0.507,-0.376c-0.138,-0.169 -0.207,-0.389 -0.207,-0.661c0,-0.215 0.064,-0.412 0.192,-0.591c0.128,-0.179 0.309,-0.32 0.545,-0.422c0.235,-0.108 0.504,-0.162 0.806,-0.162c0.466,0 0.842,0.118 1.129,0.354c0.287,0.235 0.441,0.558 0.461,0.967l-0.699,0c-0.015,-0.22 -0.105,-0.396 -0.269,-0.53c-0.158,-0.133 -0.373,-0.199 -0.645,-0.199c-0.251,0 -0.45,0.054 -0.599,0.161c-0.148,0.108 -0.223,0.248 -0.223,0.422c0,0.139 0.044,0.254 0.131,0.346c0.092,0.087 0.205,0.159 0.338,0.215c0.138,0.051 0.328,0.11 0.568,0.177c0.302,0.082 0.548,0.164 0.738,0.246c0.189,0.076 0.35,0.194 0.483,0.353c0.139,0.159 0.21,0.366 0.215,0.622c0,0.23 -0.064,0.438 -0.192,0.622c-0.128,0.184 -0.309,0.33 -0.545,0.438c-0.23,0.102 -0.497,0.153 -0.799,0.153Z" style="fill:#757575;fill-rule:nonzero;"/></g></svg>