<?xml version="1.0" encoding="UTF-8" standalone="no"?><!DOCTYPE svg PUBLIC "-//W3C//DTD SVG 1.1//EN" "http://www.w3.org/Graphics/SVG/1.1/DTD/svg11.dtd"><svg width="112px" height="29px" version="1.1" xmlns="http://www.w3.org/2000/svg" xmlns:xlink="http://www.w3.org/1999/xlink" xml:space="preserve" xmlns:serif="http://www.serif.com/" style="fill-rule:evenodd;clip-rule:evenodd;stroke-linejoin:round;stroke-miterlimit:2;"><g><path d="M0,11.881l0,-0.352l0.335,-0.117c0.357,-0.111 0.535,-0.39 0.535,-0.837c0.011,-0.635 0.017,-1.282 0.017,-1.941l0,-2.041l0,-0.586l0,-1.941c0,-0.647 -0.006,-1.294 -0.017,-1.941c0,-0.457 -0.173,-0.742 -0.519,-0.853l-0.351,-0.101l0,-0.351l4.401,0c1.171,0 2.181,0.217 3.029,0.653c0.847,0.435 1.5,1.065 1.957,1.89c0.458,0.815 0.686,1.802 0.686,2.962c0,1.183 -0.251,2.187 -0.753,3.012c-0.49,0.826 -1.188,1.456 -2.091,1.891c-0.893,0.435 -1.936,0.653 -3.129,0.653l-4.1,0Zm3.296,-0.486l0.854,0c0.792,0 1.433,-0.156 1.924,-0.468c0.502,-0.312 0.87,-0.837 1.105,-1.573c0.234,-0.747 0.351,-1.751 0.351,-3.012c0,-1.261 -0.117,-2.259 -0.351,-2.995c-0.235,-0.737 -0.597,-1.261 -1.088,-1.573c-0.48,-0.313 -1.104,-0.469 -1.874,-0.469l-0.921,0c-0.011,0.77 -0.016,1.551 -0.016,2.343l0,5.388c0,0.792 0.005,1.579 0.016,2.359Zm7.194,0.486l0,-0.368l0.335,-0.101c0.212,-0.067 0.357,-0.173 0.435,-0.318c0.078,-0.156 0.117,-0.357 0.117,-0.602l0,-8.283c0,-0.223 -0.028,-0.402 -0.084,-0.536c-0.055,-0.145 -0.195,-0.256 -0.418,-0.334l-0.385,-0.151l0,-0.368l3.196,0l3.146,8.183l2.962,-8.183l3.263,0l0,0.368l-0.268,0.084c-0.212,0.067 -0.357,0.173 -0.435,0.318c-0.078,0.134 -0.117,0.312 -0.117,0.535c-0.011,0.647 -0.017,1.294 -0.017,1.941l0,4.568c0,0.647 0.006,1.289 0.017,1.925c0,0.234 0.028,0.412 0.084,0.535c0.055,0.123 0.189,0.223 0.401,0.301l0.335,0.118l0,0.368l-4.066,0l0,-0.368l0.368,-0.118c0.212,-0.078 0.34,-0.178 0.385,-0.301c0.056,-0.134 0.083,-0.312 0.083,-0.535l0,-3.631l0.034,-4.485l-3.414,9.438l-0.937,0l-3.597,-9.338l0.066,3.816l0,4.15c0,0.245 0.034,0.44 0.101,0.585c0.067,0.145 0.206,0.246 0.418,0.301l0.335,0.118l0,0.368l-2.343,0Zm20.576,0.284c-0.613,0 -1.238,-0.078 -1.874,-0.234c-0.625,-0.145 -1.149,-0.34 -1.573,-0.586l0.101,-2.326l0.485,0l0.519,1.155c0.156,0.323 0.318,0.591 0.485,0.803c0.167,0.212 0.39,0.374 0.669,0.485c0.19,0.078 0.368,0.134 0.536,0.168c0.178,0.022 0.373,0.033 0.585,0.033c0.681,0 1.216,-0.173 1.607,-0.519c0.401,-0.357 0.602,-0.825 0.602,-1.405c0,-0.525 -0.139,-0.937 -0.418,-1.238c-0.268,-0.302 -0.703,-0.592 -1.305,-0.871l-0.686,-0.301c-0.937,-0.413 -1.679,-0.892 -2.226,-1.439c-0.535,-0.546 -0.803,-1.272 -0.803,-2.175c0,-0.67 0.167,-1.238 0.502,-1.707c0.346,-0.48 0.82,-0.848 1.422,-1.104c0.603,-0.257 1.305,-0.385 2.109,-0.385c0.591,0 1.143,0.078 1.656,0.234c0.524,0.156 0.982,0.368 1.372,0.636l-0.117,2.075l-0.485,0l-0.619,-1.255c-0.179,-0.368 -0.352,-0.63 -0.519,-0.787c-0.156,-0.167 -0.351,-0.273 -0.586,-0.318c-0.133,-0.022 -0.251,-0.039 -0.351,-0.05c-0.089,-0.011 -0.212,-0.017 -0.368,-0.017c-0.547,0 -1.021,0.162 -1.422,0.486c-0.391,0.312 -0.586,0.747 -0.586,1.305c0,0.535 0.15,0.97 0.452,1.305c0.301,0.335 0.736,0.63 1.305,0.887l0.753,0.318c1.082,0.468 1.857,0.97 2.326,1.506c0.468,0.524 0.703,1.199 0.703,2.025c0,0.981 -0.374,1.779 -1.122,2.393c-0.736,0.602 -1.779,0.903 -3.129,0.903Zm9.263,-8.567c0.703,0 1.305,0.145 1.807,0.435c0.502,0.29 0.887,0.691 1.155,1.205c0.279,0.502 0.418,1.082 0.418,1.74c0,0.145 -0.005,0.284 -0.016,0.418c-0.012,0.123 -0.034,0.24 -0.067,0.352l-5.037,0c0.011,1.149 0.223,1.974 0.636,2.476c0.424,0.502 1.037,0.753 1.84,0.753c0.558,0 1.01,-0.089 1.356,-0.268c0.346,-0.189 0.664,-0.451 0.954,-0.786l0.267,0.251c-0.334,0.613 -0.792,1.093 -1.372,1.439c-0.569,0.335 -1.249,0.502 -2.041,0.502c-0.792,0 -1.49,-0.167 -2.092,-0.502c-0.602,-0.335 -1.076,-0.814 -1.422,-1.439c-0.335,-0.636 -0.502,-1.395 -0.502,-2.276c0,-0.915 0.195,-1.69 0.585,-2.326c0.402,-0.636 0.915,-1.121 1.54,-1.456c0.636,-0.345 1.299,-0.518 1.991,-0.518Zm-0.084,0.485c-0.323,0 -0.608,0.095 -0.853,0.284c-0.234,0.179 -0.424,0.502 -0.569,0.971c-0.134,0.457 -0.212,1.104 -0.234,1.941l2.995,0c0.123,-1.127 0.078,-1.941 -0.134,-2.443c-0.212,-0.502 -0.613,-0.753 -1.205,-0.753Zm4.316,7.798l0,-0.318l0.251,-0.084c0.224,-0.056 0.374,-0.151 0.452,-0.284c0.09,-0.134 0.134,-0.313 0.134,-0.536l0,-4.903c-0.011,-0.245 -0.056,-0.429 -0.134,-0.552c-0.078,-0.134 -0.228,-0.223 -0.452,-0.268l-0.251,-0.067l0,-0.301l2.728,-0.97l0.201,0.184l0.15,1.472l0,0.117c0.168,-0.312 0.38,-0.602 0.636,-0.87c0.257,-0.267 0.536,-0.485 0.837,-0.652c0.301,-0.168 0.602,-0.251 0.904,-0.251c0.423,0 0.741,0.111 0.953,0.334c0.212,0.223 0.318,0.508 0.318,0.854c0,0.379 -0.106,0.669 -0.318,0.87c-0.212,0.19 -0.468,0.284 -0.769,0.284c-0.447,0 -0.831,-0.2 -1.155,-0.602l-0.033,-0.034c-0.112,-0.133 -0.24,-0.206 -0.385,-0.217c-0.134,-0.022 -0.268,0.045 -0.402,0.201c-0.111,0.111 -0.217,0.245 -0.318,0.401c-0.089,0.145 -0.173,0.318 -0.251,0.519l0,4.384c0,0.212 0.045,0.391 0.134,0.536c0.089,0.134 0.24,0.228 0.452,0.284l0.502,0.151l0,0.318l-4.184,0Zm9.214,-9.204c-0.369,0 -0.681,-0.117 -0.937,-0.351c-0.257,-0.234 -0.385,-0.53 -0.385,-0.887c0,-0.368 0.128,-0.664 0.385,-0.887c0.256,-0.234 0.568,-0.351 0.937,-0.351c0.368,0 0.68,0.117 0.937,0.351c0.256,0.223 0.385,0.519 0.385,0.887c0,0.357 -0.129,0.653 -0.385,0.887c-0.257,0.234 -0.569,0.351 -0.937,0.351Zm-1.925,9.204l0,-0.318l0.251,-0.067c0.223,-0.067 0.374,-0.168 0.452,-0.301c0.078,-0.134 0.122,-0.313 0.134,-0.536l0,-3.079l0,-0.954c0,-0.301 -0.006,-0.608 -0.017,-0.92c0,-0.223 -0.045,-0.396 -0.134,-0.519c-0.078,-0.134 -0.229,-0.223 -0.451,-0.267l-0.235,-0.051l0,-0.301l2.929,-0.97l0.2,0.184l-0.05,2.376l0,4.518c0,0.223 0.039,0.401 0.117,0.535c0.089,0.134 0.24,0.235 0.452,0.302l0.184,0.05l0,0.318l-3.832,0Zm4.592,0l0,-0.318l0.251,-0.067c0.446,-0.123 0.675,-0.396 0.686,-0.82l0,-1.155c0.011,-0.39 0.017,-0.775 0.017,-1.154l0,-4l-0.954,0l0,-0.368l0.368,-0.067c0.223,-0.033 0.385,-0.111 0.485,-0.234c0.101,-0.134 0.173,-0.318 0.218,-0.552c0.122,-0.446 0.284,-0.831 0.485,-1.155c0.212,-0.334 0.463,-0.641 0.753,-0.92c0.413,-0.402 0.854,-0.681 1.322,-0.837c0.469,-0.156 0.926,-0.234 1.372,-0.234c0.435,0 0.831,0.089 1.188,0.268c0.368,0.167 0.553,0.457 0.553,0.87c0,0.29 -0.09,0.524 -0.268,0.703c-0.168,0.167 -0.413,0.251 -0.736,0.251c-0.514,0 -0.966,-0.302 -1.356,-0.904l-0.201,-0.234c-0.134,-0.168 -0.267,-0.234 -0.401,-0.201c-0.134,0.033 -0.229,0.145 -0.285,0.335c-0.089,0.357 -0.162,0.775 -0.217,1.255c-0.045,0.479 -0.073,0.981 -0.084,1.506l1.924,0l0,0.518l-1.924,0l0,5.138c0.011,0.368 0.017,0.741 0.017,1.121c0,0.446 0.223,0.719 0.669,0.82l0.435,0.117l0,0.318l-4.317,0Zm11.492,0l0,-0.352l0.669,-0.134c0.469,-0.1 0.703,-0.373 0.703,-0.82l0,-4.568l0,-2.342c0,-0.781 -0.005,-1.562 -0.016,-2.343l-1.322,0c-0.358,0 -0.62,0.095 -0.787,0.284c-0.167,0.19 -0.335,0.458 -0.502,0.804l-0.586,1.238l-0.468,0l0.084,-2.828l9.605,0l0.083,2.828l-0.468,0l-0.586,-1.238c-0.167,-0.346 -0.335,-0.614 -0.502,-0.804c-0.167,-0.189 -0.43,-0.284 -0.786,-0.284l-1.339,0l0,9.253c0,0.458 0.234,0.731 0.703,0.82l0.686,0.134l0,0.352l-5.171,0Zm11.074,-8.283c0.703,0 1.306,0.145 1.808,0.435c0.502,0.29 0.887,0.691 1.154,1.205c0.279,0.502 0.419,1.082 0.419,1.74c0,0.145 -0.006,0.284 -0.017,0.418c-0.011,0.123 -0.034,0.24 -0.067,0.352l-5.037,0c0.012,1.149 0.223,1.974 0.636,2.476c0.424,0.502 1.038,0.753 1.841,0.753c0.558,0 1.009,-0.089 1.355,-0.268c0.346,-0.189 0.664,-0.451 0.954,-0.786l0.268,0.251c-0.335,0.613 -0.792,1.093 -1.372,1.439c-0.569,0.335 -1.25,0.502 -2.042,0.502c-0.792,0 -1.489,-0.167 -2.092,-0.502c-0.602,-0.335 -1.076,-0.814 -1.422,-1.439c-0.335,-0.636 -0.502,-1.395 -0.502,-2.276c0,-0.915 0.196,-1.69 0.586,-2.326c0.401,-0.636 0.915,-1.121 1.539,-1.456c0.636,-0.345 1.3,-0.518 1.991,-0.518Zm-0.083,0.485c-0.323,0 -0.608,0.095 -0.854,0.284c-0.234,0.179 -0.423,0.502 -0.569,0.971c-0.133,0.457 -0.211,1.104 -0.234,1.941l2.995,0c0.123,-1.127 0.079,-1.941 -0.133,-2.443c-0.212,-0.502 -0.614,-0.753 -1.205,-0.753Zm4.1,7.798l0,-0.318l0.452,-0.101c0.246,-0.055 0.441,-0.134 0.586,-0.234c0.156,-0.1 0.306,-0.251 0.452,-0.452l1.824,-2.543l-2.159,-3.414c-0.112,-0.167 -0.223,-0.295 -0.335,-0.385c-0.1,-0.089 -0.245,-0.156 -0.435,-0.2l-0.284,-0.067l0,-0.318l4.183,0l0,0.318l-0.251,0.067c-0.201,0.044 -0.323,0.133 -0.368,0.267c-0.033,0.123 0.005,0.274 0.117,0.452l1.289,1.958l1.372,-1.908c0.122,-0.178 0.178,-0.334 0.167,-0.468c0,-0.134 -0.106,-0.223 -0.318,-0.268l-0.368,-0.1l0,-0.318l2.577,0l0,0.318l-0.402,0.083c-0.234,0.056 -0.418,0.14 -0.552,0.251c-0.134,0.101 -0.273,0.251 -0.418,0.452l-1.791,2.359l2.192,3.414c0.257,0.379 0.614,0.63 1.071,0.753l0.335,0.084l0,0.318l-4.501,0l0,-0.318l0.251,-0.05c0.201,-0.056 0.323,-0.151 0.368,-0.285c0.055,-0.134 0.022,-0.284 -0.1,-0.452l-1.356,-2.108l-1.472,2.092c-0.123,0.178 -0.162,0.334 -0.118,0.468c0.045,0.134 0.162,0.223 0.352,0.268l0.301,0.067l0,0.318l-2.661,0Zm12.546,0.234c-0.692,0 -1.239,-0.167 -1.64,-0.502c-0.391,-0.346 -0.586,-0.904 -0.586,-1.673l0,-0.753c0.011,-0.246 0.017,-0.53 0.017,-0.854l0,-3.966l-1.188,0l0,-0.368l0.451,-0.067c0.324,-0.055 0.597,-0.156 0.821,-0.301c0.234,-0.145 0.446,-0.346 0.635,-0.602l1.088,-1.506l0.502,0l-0.05,2.326l1.908,0l0,0.518l-1.925,0l0,5.706c0,0.402 0.084,0.703 0.251,0.904c0.179,0.201 0.396,0.301 0.653,0.301c0.223,0 0.423,-0.05 0.602,-0.15c0.179,-0.112 0.357,-0.257 0.536,-0.435l0.217,0.251c-0.212,0.368 -0.508,0.658 -0.887,0.87c-0.379,0.201 -0.848,0.301 -1.405,0.301Z" style="fill:#3b3f5c;fill-rule:nonzero;"/><path d="M0.806,28.056l2.578,0l0,0.677l-3.384,0l0,-5.956l0.806,0l0,5.279Zm6.441,0.677l-0.328,0c-0.072,0 -0.131,-0.011 -0.175,-0.033c-0.044,-0.022 -0.073,-0.069 -0.087,-0.141l-0.083,-0.391c-0.111,0.1 -0.219,0.19 -0.325,0.27c-0.105,0.078 -0.216,0.144 -0.332,0.2c-0.117,0.053 -0.241,0.093 -0.374,0.12c-0.131,0.028 -0.276,0.042 -0.437,0.042c-0.163,0 -0.317,-0.022 -0.461,-0.067c-0.142,-0.047 -0.265,-0.116 -0.37,-0.207c-0.105,-0.092 -0.19,-0.207 -0.254,-0.345c-0.061,-0.142 -0.091,-0.308 -0.091,-0.499c0,-0.167 0.046,-0.326 0.137,-0.478c0.091,-0.155 0.238,-0.293 0.441,-0.412c0.205,-0.119 0.472,-0.216 0.802,-0.291c0.33,-0.077 0.733,-0.122 1.21,-0.133l0,-0.328c0,-0.327 -0.071,-0.574 -0.212,-0.74c-0.139,-0.169 -0.345,-0.254 -0.62,-0.254c-0.18,0 -0.332,0.024 -0.457,0.071c-0.122,0.044 -0.229,0.096 -0.32,0.154c-0.089,0.055 -0.166,0.106 -0.233,0.154c-0.064,0.044 -0.127,0.066 -0.191,0.066c-0.05,0 -0.094,-0.012 -0.133,-0.037c-0.036,-0.028 -0.065,-0.061 -0.087,-0.1l-0.134,-0.237c0.233,-0.225 0.484,-0.392 0.753,-0.503c0.269,-0.111 0.567,-0.166 0.894,-0.166c0.235,0 0.444,0.038 0.627,0.116c0.183,0.078 0.337,0.186 0.462,0.324c0.125,0.139 0.219,0.306 0.282,0.503c0.064,0.197 0.096,0.413 0.096,0.649l0,2.693Zm-1.92,-0.453c0.13,0 0.249,-0.012 0.357,-0.037c0.108,-0.028 0.209,-0.065 0.304,-0.112c0.096,-0.05 0.188,-0.11 0.274,-0.179c0.089,-0.069 0.174,-0.148 0.258,-0.237l0,-0.877c-0.341,0.011 -0.631,0.039 -0.869,0.083c-0.239,0.042 -0.433,0.097 -0.582,0.166c-0.15,0.07 -0.259,0.151 -0.329,0.246c-0.066,0.094 -0.099,0.199 -0.099,0.316c0,0.11 0.018,0.206 0.054,0.286c0.036,0.081 0.084,0.147 0.145,0.2c0.061,0.05 0.133,0.087 0.216,0.112c0.084,0.022 0.174,0.033 0.271,0.033Zm4.317,0.52c-0.332,0 -0.589,-0.093 -0.769,-0.279c-0.177,-0.185 -0.266,-0.453 -0.266,-0.802l0,-2.577l-0.507,0c-0.044,0 -0.082,-0.013 -0.112,-0.038c-0.031,-0.027 -0.046,-0.069 -0.046,-0.124l0,-0.295l0.69,-0.088l0.171,-1.301c0.005,-0.041 0.023,-0.075 0.054,-0.1c0.03,-0.027 0.069,-0.041 0.116,-0.041l0.374,0l0,1.451l1.206,0l0,0.536l-1.206,0l0,2.527c0,0.178 0.043,0.309 0.129,0.395c0.086,0.086 0.197,0.129 0.333,0.129c0.077,0 0.144,-0.01 0.199,-0.029c0.058,-0.022 0.108,-0.046 0.15,-0.071c0.041,-0.025 0.076,-0.047 0.104,-0.066c0.03,-0.022 0.057,-0.033 0.079,-0.033c0.038,0 0.073,0.023 0.104,0.07l0.216,0.354c-0.128,0.119 -0.282,0.213 -0.462,0.282c-0.18,0.067 -0.365,0.1 -0.557,0.1Zm3.53,-4.344c0.308,0 0.585,0.051 0.831,0.154c0.25,0.102 0.46,0.248 0.632,0.436c0.175,0.189 0.308,0.417 0.399,0.686c0.095,0.266 0.142,0.564 0.142,0.894c0,0.332 -0.047,0.632 -0.142,0.898c-0.091,0.266 -0.224,0.493 -0.399,0.682c-0.172,0.188 -0.382,0.334 -0.632,0.436c-0.246,0.1 -0.523,0.15 -0.831,0.15c-0.308,0 -0.586,-0.05 -0.836,-0.15c-0.246,-0.102 -0.457,-0.248 -0.631,-0.436c-0.175,-0.189 -0.309,-0.416 -0.404,-0.682c-0.094,-0.266 -0.141,-0.566 -0.141,-0.898c0,-0.33 0.047,-0.628 0.141,-0.894c0.095,-0.269 0.229,-0.497 0.404,-0.686c0.174,-0.188 0.385,-0.334 0.631,-0.436c0.25,-0.103 0.528,-0.154 0.836,-0.154Zm0,3.758c0.416,0 0.726,-0.139 0.931,-0.416c0.205,-0.28 0.308,-0.669 0.308,-1.168c0,-0.502 -0.103,-0.892 -0.308,-1.172c-0.205,-0.28 -0.515,-0.42 -0.931,-0.42c-0.211,0 -0.394,0.036 -0.549,0.108c-0.155,0.072 -0.285,0.176 -0.39,0.312c-0.103,0.136 -0.181,0.303 -0.233,0.503c-0.05,0.197 -0.075,0.42 -0.075,0.669c0,0.249 0.025,0.473 0.075,0.669c0.052,0.197 0.13,0.363 0.233,0.499c0.105,0.133 0.235,0.236 0.39,0.308c0.155,0.072 0.338,0.108 0.549,0.108Z" style="fill:#757575;fill-rule:nonzero;"/></g></svg>