<?xml version="1.0" encoding="UTF-8" standalone="no"?><!DOCTYPE svg PUBLIC "-//W3C//DTD SVG 1.1//EN" "http://www.w3.org/Graphics/SVG/1.1/DTD/svg11.dtd"><svg width="112px" height="29px" version="1.1" xmlns="http://www.w3.org/2000/svg" xmlns:xlink="http://www.w3.org/1999/xlink" xml:space="preserve" xmlns:serif="http://www.serif.com/" style="fill-rule:evenodd;clip-rule:evenodd;stroke-linejoin:round;stroke-miterlimit:2;"><path d="M7.342,3.809c-0.051,-0.164 -0.251,-0.307 -0.599,-0.43c-0.338,-0.133 -0.783,-0.199 -1.336,-0.199c-0.604,0 -1.075,0.168 -1.413,0.506c-0.338,0.338 -0.507,0.763 -0.507,1.275c0,0.318 0.112,0.563 0.338,0.738c0.235,0.163 0.594,0.348 1.075,0.553l0.553,0.23l0.461,0.215c0.553,0.246 0.988,0.471 1.305,0.676c0.328,0.194 0.604,0.466 0.83,0.814c0.225,0.348 0.338,0.793 0.338,1.336c0,0.584 -0.195,1.091 -0.584,1.521c-0.379,0.42 -0.911,0.737 -1.598,0.952c-0.686,0.225 -1.484,0.338 -2.396,0.338c-0.676,0 -1.31,-0.107 -1.904,-0.322c-0.584,-0.205 -1.05,-0.466 -1.398,-0.784c-0.338,-0.317 -0.507,-0.63 -0.507,-0.937c0,-0.297 0.128,-0.537 0.384,-0.722c0.256,-0.194 0.62,-0.327 1.091,-0.399c0.051,0.297 0.225,0.563 0.522,0.799c0.297,0.235 0.64,0.425 1.029,0.568c0.399,0.133 0.747,0.2 1.044,0.2c0.543,0 1.024,-0.108 1.444,-0.323c0.43,-0.215 0.645,-0.512 0.645,-0.891c0,-0.317 -0.153,-0.578 -0.46,-0.783c-0.297,-0.215 -0.748,-0.446 -1.352,-0.691l-0.814,-0.369c-0.666,-0.328 -1.193,-0.696 -1.582,-1.106c-0.389,-0.41 -0.584,-0.952 -0.584,-1.628c0,-0.748 0.21,-1.352 0.63,-1.813c0.42,-0.471 0.927,-0.809 1.52,-1.013c0.605,-0.205 1.193,-0.308 1.767,-0.308c0.911,0 1.659,0.118 2.242,0.354c0.594,0.235 1.024,0.532 1.291,0.891c0.266,0.358 0.399,0.727 0.399,1.106c0,0.215 -0.056,0.476 -0.169,0.783c-0.102,0.307 -0.261,0.573 -0.476,0.799c-0.205,0.225 -0.456,0.338 -0.753,0.338c-0.512,0 -0.768,-0.267 -0.768,-0.799c0.021,-0.164 0.067,-0.43 0.138,-0.799c0.072,-0.379 0.123,-0.604 0.154,-0.676Zm4.254,7.511c-0.011,0.062 -0.036,0.185 -0.077,0.369c-0.031,0.174 -0.118,0.297 -0.261,0.369c-0.133,0.071 -0.348,0.107 -0.645,0.107c-0.338,0 -0.584,-0.036 -0.738,-0.107c-0.153,-0.072 -0.23,-0.226 -0.23,-0.461l0.737,-2.934c0.41,-1.69 0.681,-2.765 0.814,-3.226l-0.384,-0.46c-0.03,-0.031 -0.046,-0.067 -0.046,-0.108c0,-0.102 0.113,-0.184 0.338,-0.246c0.225,-0.071 0.538,-0.107 0.937,-0.107c0.359,0 0.599,0.102 0.722,0.307c0.123,0.195 0.2,0.451 0.231,0.768l-0.108,0.399c0.328,-0.399 0.707,-0.727 1.137,-0.983c0.44,-0.266 0.829,-0.399 1.167,-0.399c0.44,0 0.783,0.077 1.029,0.23c0.246,0.154 0.369,0.354 0.369,0.599c0,0.215 -0.077,0.441 -0.231,0.676c-0.143,0.226 -0.327,0.42 -0.553,0.584c-0.225,0.154 -0.445,0.241 -0.66,0.261c-0.205,0 -0.343,-0.026 -0.415,-0.077c-0.072,-0.051 -0.107,-0.128 -0.107,-0.23l0.092,-0.507c-0.819,0.225 -1.562,0.768 -2.227,1.628l-0.891,3.548Zm6.284,-8.54c0,-0.317 0.098,-0.599 0.292,-0.845c0.205,-0.245 0.487,-0.368 0.845,-0.368c0.379,0 0.707,0.117 0.983,0.353c0.287,0.236 0.43,0.502 0.43,0.799c0,0.297 -0.143,0.553 -0.43,0.768c-0.287,0.215 -0.619,0.322 -0.998,0.322c-0.369,0 -0.651,-0.092 -0.845,-0.276c-0.184,-0.195 -0.277,-0.446 -0.277,-0.753Zm1.613,2.719c-0.543,2.212 -0.957,3.876 -1.244,4.992c-0.041,0.164 -0.061,0.343 -0.061,0.537l0.015,0.431c0,0.174 -0.056,0.297 -0.169,0.368c-0.102,0.072 -0.328,0.113 -0.676,0.123c-0.338,0 -0.594,-0.036 -0.768,-0.107c-0.174,-0.072 -0.261,-0.226 -0.261,-0.461c0,-0.113 0.128,-0.712 0.384,-1.797c0.266,-1.086 0.625,-2.499 1.075,-4.24l-0.353,-0.461c-0.031,-0.03 -0.046,-0.066 -0.046,-0.107c0,-0.102 0.112,-0.184 0.338,-0.246c0.225,-0.071 0.537,-0.107 0.937,-0.107c0.348,0 0.568,0.102 0.66,0.307c0.103,0.194 0.159,0.45 0.169,0.768Zm2.648,5.821c-0.011,0.062 -0.036,0.185 -0.077,0.369c-0.031,0.174 -0.118,0.297 -0.261,0.369c-0.133,0.071 -0.348,0.107 -0.645,0.107c-0.338,0 -0.584,-0.036 -0.738,-0.107c-0.153,-0.072 -0.23,-0.226 -0.23,-0.461c0.031,-0.123 0.251,-0.999 0.66,-2.627c0.297,-1.259 0.518,-2.145 0.661,-2.657c0.154,-0.727 0.333,-1.203 0.538,-1.429c0.204,-0.235 0.44,-0.353 0.706,-0.353c0.359,0 0.589,0.051 0.691,0.154c0.113,0.102 0.169,0.235 0.169,0.399l-0.184,0.906c0.328,-0.399 0.707,-0.727 1.137,-0.983c0.44,-0.266 0.829,-0.399 1.167,-0.399c0.44,0 0.783,0.077 1.029,0.23c0.246,0.154 0.369,0.354 0.369,0.599c0,0.185 -0.118,0.333 -0.354,0.446c-0.225,0.102 -0.522,0.169 -0.89,0.2c-0.553,0.051 -1.122,0.291 -1.705,0.721c-0.574,0.431 -1.004,0.937 -1.291,1.521l-0.752,2.995Zm10.631,0.323c-0.071,0.184 -0.24,0.307 -0.507,0.369c-0.256,0.071 -0.481,0.107 -0.675,0.107c-0.185,0 -0.308,-0.046 -0.369,-0.138c-0.051,-0.082 -0.097,-0.21 -0.138,-0.384c-0.041,-0.174 -0.067,-0.292 -0.077,-0.353c-0.44,0.296 -0.891,0.522 -1.352,0.675c-0.45,0.164 -0.829,0.246 -1.136,0.246c-0.267,0 -0.569,-0.087 -0.907,-0.261c-0.327,-0.174 -0.609,-0.41 -0.845,-0.707c-0.235,-0.297 -0.353,-0.624 -0.353,-0.983c0,-0.573 0.19,-1.305 0.569,-2.196c0.378,-0.891 0.911,-1.669 1.597,-2.335c0.696,-0.665 1.505,-0.998 2.427,-0.998c0.809,0 1.531,0.128 2.166,0.384c0.634,0.256 0.952,0.619 0.952,1.09c-0.287,0.533 -0.599,1.332 -0.937,2.397c-0.328,1.064 -0.492,1.853 -0.492,2.365c0,0.338 0.026,0.579 0.077,0.722Zm-1.735,-1.69c0.081,-0.45 0.22,-0.983 0.414,-1.597c0.205,-0.625 0.476,-1.249 0.814,-1.874c-0.051,-0.205 -0.215,-0.338 -0.491,-0.399c-0.266,-0.072 -0.507,-0.108 -0.722,-0.108c-0.379,0 -0.789,0.256 -1.229,0.768c-0.44,0.512 -0.819,1.111 -1.137,1.797c-0.307,0.676 -0.46,1.224 -0.46,1.644c0,0.204 0.056,0.353 0.169,0.445c0.112,0.082 0.256,0.123 0.43,0.123c0.235,0 0.609,-0.087 1.121,-0.261c0.522,-0.184 0.886,-0.364 1.091,-0.538Zm10.52,-0.338c-0.112,0.338 -0.378,0.712 -0.798,1.122c-0.41,0.409 -0.912,0.763 -1.506,1.059c-0.593,0.287 -1.213,0.431 -1.858,0.431c-0.522,0 -1.014,-0.098 -1.475,-0.292c-0.45,-0.195 -0.814,-0.492 -1.09,-0.891c-0.277,-0.4 -0.415,-0.886 -0.415,-1.459c0,-0.963 0.189,-1.818 0.568,-2.565c0.379,-0.748 0.917,-1.332 1.613,-1.752c0.707,-0.43 1.521,-0.645 2.442,-0.645c0.594,0 1.106,0.174 1.536,0.523c0.441,0.348 0.666,0.809 0.676,1.382c0,0.225 -0.077,0.415 -0.23,0.568c-0.154,0.144 -0.379,0.215 -0.676,0.215c-0.236,0 -0.41,-0.051 -0.522,-0.153c-0.103,-0.113 -0.205,-0.282 -0.307,-0.507c-0.103,-0.236 -0.215,-0.415 -0.338,-0.538c-0.123,-0.123 -0.318,-0.184 -0.584,-0.184c-0.307,0 -0.645,0.164 -1.014,0.491c-0.368,0.318 -0.681,0.768 -0.937,1.352c-0.256,0.574 -0.384,1.224 -0.384,1.951c0,0.307 0.118,0.578 0.354,0.814c0.245,0.225 0.578,0.338 0.998,0.338c0.348,0 0.676,-0.113 0.983,-0.338c0.307,-0.236 0.66,-0.568 1.06,-0.998c0.256,-0.267 0.455,-0.461 0.599,-0.584c0.153,-0.123 0.287,-0.184 0.399,-0.184c0.512,0 0.814,0.281 0.906,0.844Zm2.827,-2.78c0.236,-0.461 0.558,-0.855 0.968,-1.183c0.42,-0.327 0.845,-0.578 1.275,-0.752c0.43,-0.174 0.783,-0.261 1.059,-0.261c0.533,0 0.917,0.102 1.153,0.307c0.235,0.194 0.353,0.507 0.353,0.937c-0.604,1.577 -1.004,3.277 -1.198,5.099l0.215,0.753c-0.123,0.236 -0.287,0.42 -0.492,0.553c-0.205,0.143 -0.517,0.215 -0.937,0.215c-0.246,0 -0.425,-0.082 -0.537,-0.246c-0.113,-0.164 -0.169,-0.368 -0.169,-0.614c0,-0.686 0.097,-1.439 0.292,-2.258c0.204,-0.829 0.44,-1.674 0.706,-2.534c0.102,-0.328 0.154,-0.497 0.154,-0.507c0,-0.144 -0.082,-0.215 -0.246,-0.215c-0.215,0 -0.527,0.158 -0.937,0.476c-0.41,0.317 -0.835,0.855 -1.275,1.613c-0.44,0.747 -0.809,1.73 -1.106,2.949c-0.01,0.051 -0.036,0.158 -0.077,0.322c-0.041,0.164 -0.133,0.282 -0.276,0.354c-0.144,0.071 -0.364,0.107 -0.661,0.107c-0.358,0 -0.635,-0.036 -0.829,-0.107c-0.195,-0.082 -0.292,-0.236 -0.292,-0.461c1.342,-5.274 2.171,-8.571 2.488,-9.892c-0.01,-0.133 -0.02,-0.307 -0.03,-0.522l0,-0.523c0.03,-0.143 0.138,-0.25 0.322,-0.322c0.195,-0.082 0.389,-0.123 0.584,-0.123c0.328,0 0.604,0.087 0.829,0.261c0.226,0.174 0.349,0.394 0.369,0.661l-1.705,5.913Zm11.849,4.808c-0.061,0.184 -0.225,0.307 -0.492,0.369c-0.255,0.071 -0.481,0.107 -0.675,0.107c-0.175,0 -0.292,-0.046 -0.354,-0.138c-0.061,-0.082 -0.112,-0.205 -0.153,-0.369c-0.041,-0.174 -0.072,-0.297 -0.092,-0.368c-0.431,0.296 -0.876,0.522 -1.337,0.675c-0.45,0.164 -0.829,0.246 -1.136,0.246c-0.308,0 -0.625,-0.072 -0.953,-0.215c-0.317,-0.133 -0.593,-0.369 -0.829,-0.706c-0.236,-0.349 -0.353,-0.809 -0.353,-1.383c0,-0.584 0.179,-1.285 0.537,-2.104c0.369,-0.83 0.891,-1.546 1.567,-2.151c0.686,-0.614 1.485,-0.921 2.396,-0.921c0.461,0 0.916,0.112 1.367,0.338c0.451,0.215 0.819,0.491 1.106,0.829c0.287,0.328 0.435,0.661 0.445,0.999l-0.199,0.537c-0.287,0.799 -0.512,1.48 -0.676,2.043c-0.164,0.553 -0.246,1.05 -0.246,1.49c0,0.297 0.026,0.538 0.077,0.722Zm-1.751,-1.69c0.092,-0.256 0.205,-0.589 0.338,-0.998c0.225,-0.778 0.44,-1.434 0.645,-1.966c-0.041,-0.144 -0.133,-0.292 -0.277,-0.446c-0.143,-0.163 -0.291,-0.297 -0.445,-0.399c-0.154,-0.113 -0.261,-0.169 -0.323,-0.169c-0.378,0 -0.783,0.23 -1.213,0.691c-0.43,0.451 -0.793,0.988 -1.091,1.613c-0.286,0.625 -0.43,1.167 -0.43,1.628c0,0.205 0.062,0.4 0.185,0.584c0.123,0.174 0.256,0.261 0.399,0.261c0.236,0 0.609,-0.087 1.121,-0.261c0.523,-0.184 0.886,-0.364 1.091,-0.538Z" style="fill:#3b3f5c;fill-rule:nonzero;"/><path d="M5.044,24.206c0,0.878 -0.223,1.568 -0.668,2.07c-0.442,0.503 -1.059,0.754 -1.848,0.754c-0.808,0 -1.432,-0.246 -1.872,-0.739c-0.437,-0.495 -0.656,-1.192 -0.656,-2.092c0,-0.893 0.22,-1.584 0.66,-2.074c0.44,-0.493 1.065,-0.739 1.875,-0.739c0.788,0 1.403,0.25 1.845,0.75c0.442,0.5 0.664,1.19 0.664,2.07Zm-4.369,0c0,0.743 0.158,1.306 0.473,1.691c0.317,0.383 0.777,0.574 1.38,0.574c0.607,0 1.066,-0.191 1.376,-0.574c0.31,-0.382 0.465,-0.946 0.465,-1.691c0,-0.737 -0.155,-1.296 -0.465,-1.676c-0.308,-0.383 -0.764,-0.574 -1.369,-0.574c-0.607,0 -1.07,0.193 -1.387,0.578c-0.315,0.382 -0.473,0.94 -0.473,1.672Zm7.414,2.824c-0.268,0 -0.513,-0.049 -0.735,-0.146c-0.22,-0.1 -0.405,-0.253 -0.555,-0.458l-0.045,0c0.03,0.24 0.045,0.468 0.045,0.683l0,1.691l-0.623,0l0,-5.955l0.506,0l0.087,0.562l0.03,0c0.16,-0.225 0.346,-0.387 0.559,-0.487c0.212,-0.1 0.456,-0.15 0.731,-0.15c0.545,0 0.965,0.186 1.26,0.559c0.297,0.372 0.446,0.895 0.446,1.567c0,0.675 -0.151,1.2 -0.454,1.575c-0.3,0.373 -0.717,0.559 -1.252,0.559Zm-0.09,-3.731c-0.42,0 -0.724,0.116 -0.911,0.348c-0.188,0.233 -0.284,0.603 -0.289,1.11l0,0.139c0,0.578 0.096,0.991 0.289,1.241c0.192,0.248 0.501,0.372 0.926,0.372c0.355,0 0.632,-0.144 0.832,-0.432c0.203,-0.287 0.304,-0.683 0.304,-1.188c0,-0.513 -0.101,-0.905 -0.304,-1.178c-0.2,-0.275 -0.482,-0.412 -0.847,-0.412Zm4.623,3.731c-0.607,0 -1.087,-0.185 -1.44,-0.555c-0.349,-0.37 -0.524,-0.884 -0.524,-1.541c0,-0.663 0.162,-1.189 0.487,-1.579c0.327,-0.39 0.766,-0.585 1.316,-0.585c0.515,0 0.923,0.17 1.223,0.51c0.3,0.337 0.45,0.784 0.45,1.339l0,0.393l-2.832,0c0.013,0.483 0.134,0.849 0.364,1.099c0.233,0.25 0.559,0.375 0.979,0.375c0.443,0 0.88,-0.092 1.313,-0.277l0,0.555c-0.22,0.095 -0.429,0.162 -0.627,0.202c-0.195,0.043 -0.431,0.064 -0.709,0.064Zm-0.168,-3.739c-0.33,0 -0.594,0.108 -0.792,0.323c-0.194,0.215 -0.31,0.512 -0.344,0.892l2.148,0c0,-0.392 -0.087,-0.692 -0.262,-0.9c-0.175,-0.21 -0.425,-0.315 -0.75,-0.315Zm5.557,3.664l0,-2.659c0,-0.335 -0.076,-0.585 -0.229,-0.75c-0.152,-0.165 -0.391,-0.247 -0.716,-0.247c-0.43,0 -0.745,0.116 -0.945,0.348c-0.2,0.233 -0.3,0.617 -0.3,1.152l0,2.156l-0.622,0l0,-4.11l0.506,0l0.101,0.562l0.03,0c0.128,-0.202 0.307,-0.358 0.536,-0.468c0.23,-0.113 0.487,-0.169 0.769,-0.169c0.495,0 0.868,0.12 1.118,0.36c0.25,0.237 0.375,0.619 0.375,1.144l0,2.681l-0.623,0Zm7.088,-1.459c0,0.483 -0.175,0.859 -0.525,1.129c-0.35,0.27 -0.825,0.405 -1.425,0.405c-0.65,0 -1.15,-0.084 -1.5,-0.251l0,-0.615c0.225,0.095 0.47,0.17 0.735,0.225c0.265,0.055 0.527,0.082 0.787,0.082c0.425,0 0.745,-0.08 0.96,-0.24c0.215,-0.162 0.323,-0.387 0.323,-0.675c0,-0.19 -0.039,-0.345 -0.116,-0.465c-0.076,-0.122 -0.203,-0.235 -0.383,-0.337c-0.178,-0.103 -0.449,-0.219 -0.814,-0.349c-0.51,-0.183 -0.875,-0.399 -1.095,-0.649c-0.217,-0.25 -0.326,-0.576 -0.326,-0.979c0,-0.422 0.159,-0.758 0.476,-1.008c0.318,-0.25 0.738,-0.375 1.26,-0.375c0.545,0 1.046,0.1 1.504,0.3l-0.199,0.555c-0.452,-0.19 -0.892,-0.285 -1.32,-0.285c-0.337,0 -0.601,0.072 -0.791,0.217c-0.19,0.145 -0.285,0.346 -0.285,0.604c0,0.19 0.035,0.346 0.105,0.469c0.07,0.12 0.188,0.231 0.352,0.333c0.168,0.1 0.423,0.212 0.766,0.334c0.574,0.205 0.969,0.425 1.184,0.66c0.218,0.235 0.327,0.54 0.327,0.915Zm3.555,1.459l-0.124,-0.585l-0.03,0c-0.205,0.257 -0.41,0.432 -0.615,0.525c-0.203,0.09 -0.456,0.135 -0.761,0.135c-0.408,0 -0.728,-0.105 -0.96,-0.315c-0.23,-0.21 -0.345,-0.509 -0.345,-0.896c0,-0.83 0.663,-1.265 1.991,-1.305l0.698,-0.023l0,-0.255c0,-0.322 -0.07,-0.56 -0.21,-0.712c-0.138,-0.155 -0.359,-0.233 -0.664,-0.233c-0.343,0 -0.73,0.105 -1.163,0.315l-0.191,-0.476c0.202,-0.11 0.424,-0.196 0.664,-0.259c0.242,-0.062 0.485,-0.094 0.727,-0.094c0.49,0 0.853,0.109 1.088,0.327c0.237,0.217 0.356,0.566 0.356,1.046l0,2.805l-0.461,0Zm-1.406,-0.439c0.387,0 0.691,-0.106 0.911,-0.319c0.222,-0.212 0.333,-0.51 0.333,-0.892l0,-0.371l-0.622,0.026c-0.495,0.017 -0.853,0.095 -1.072,0.232c-0.218,0.135 -0.327,0.347 -0.327,0.634c0,0.225 0.068,0.396 0.203,0.514c0.137,0.117 0.329,0.176 0.574,0.176Zm5.966,0.439l0,-2.659c0,-0.335 -0.077,-0.585 -0.229,-0.75c-0.153,-0.165 -0.391,-0.247 -0.716,-0.247c-0.43,0 -0.745,0.116 -0.945,0.348c-0.2,0.233 -0.3,0.617 -0.3,1.152l0,2.156l-0.623,0l0,-4.11l0.507,0l0.101,0.562l0.03,0c0.127,-0.202 0.306,-0.358 0.536,-0.468c0.23,-0.113 0.486,-0.169 0.769,-0.169c0.495,0 0.867,0.12 1.117,0.36c0.25,0.237 0.375,0.619 0.375,1.144l0,2.681l-0.622,0Zm4.556,-1.121c0,0.382 -0.142,0.677 -0.428,0.885c-0.284,0.207 -0.684,0.311 -1.2,0.311c-0.545,0 -0.97,-0.086 -1.274,-0.259l0,-0.577c0.197,0.1 0.408,0.178 0.633,0.236c0.228,0.057 0.447,0.086 0.657,0.086c0.325,0 0.574,-0.051 0.75,-0.154c0.175,-0.105 0.262,-0.263 0.262,-0.476c0,-0.16 -0.07,-0.296 -0.21,-0.409c-0.138,-0.115 -0.408,-0.25 -0.81,-0.405c-0.382,-0.142 -0.655,-0.266 -0.818,-0.371c-0.16,-0.107 -0.28,-0.229 -0.36,-0.364c-0.077,-0.135 -0.116,-0.296 -0.116,-0.483c0,-0.335 0.136,-0.599 0.409,-0.792c0.272,-0.195 0.646,-0.292 1.121,-0.292c0.443,0 0.875,0.09 1.298,0.27l-0.222,0.506c-0.412,-0.17 -0.786,-0.255 -1.121,-0.255c-0.295,0 -0.517,0.046 -0.667,0.139c-0.15,0.092 -0.225,0.22 -0.225,0.382c0,0.11 0.027,0.204 0.082,0.282c0.058,0.077 0.149,0.151 0.274,0.221c0.125,0.07 0.365,0.171 0.72,0.304c0.487,0.177 0.816,0.356 0.986,0.536c0.173,0.18 0.259,0.406 0.259,0.679Z" style="fill:#757575;fill-rule:nonzero;"/></svg>