<svg width="14" height="9" viewBox="0 0 14 9" xmlns="http://www.w3.org/2000/svg">
<path fill-rule="evenodd" clip-rule="evenodd" d="M14.0009 4.4999C14.0009 4.36729 13.9482 4.24011 13.8544 4.14635C13.7607 4.05258 13.6335 3.9999 13.5009 3.9999H1.70789L4.85489 0.853899C4.90138 0.807411 4.93826 0.752222 4.96342 0.691483C4.98858 0.630743 5.00153 0.565643 5.00153 0.499899C5.00153 0.434155 4.98858 0.369055 4.96342 0.308316C4.93826 0.247576 4.90138 0.192387 4.85489 0.145899C4.80841 0.0994111 4.75322 0.062535 4.69248 0.0373759C4.63174 0.0122168 4.56664 -0.000732422 4.50089 -0.000732422C4.43515 -0.000732422 4.37005 0.0122168 4.30931 0.0373759C4.24857 0.062535 4.19338 0.0994111 4.14689 0.145899L0.146894 4.1459C0.100331 4.19234 0.0633877 4.24752 0.0381812 4.30827C0.0129748 4.36901 0 4.43413 0 4.4999C0 4.56567 0.0129748 4.63079 0.0381812 4.69153C0.0633877 4.75228 0.100331 4.80745 0.146894 4.8539L4.14689 8.8539C4.19338 8.90039 4.24857 8.93726 4.30931 8.96242C4.37005 8.98758 4.43515 9.00053 4.50089 9.00053C4.56664 9.00053 4.63174 8.98758 4.69248 8.96242C4.75322 8.93726 4.80841 8.90039 4.85489 8.8539C4.90138 8.80741 4.93826 8.75222 4.96342 8.69148C4.98858 8.63074 5.00153 8.56564 5.00153 8.4999C5.00153 8.43416 4.98858 8.36905 4.96342 8.30832C4.93826 8.24758 4.90138 8.19239 4.85489 8.1459L1.70789 4.9999H13.5009C13.6335 4.9999 13.7607 4.94722 13.8544 4.85345C13.9482 4.75968 14.0009 4.63251 14.0009 4.4999Z" />
</svg>
