<svg width="14" height="9" viewBox="0 0 14 9" xmlns="http://www.w3.org/2000/svg">
<path fill-rule="evenodd" clip-rule="evenodd" d="M0 4.50002C0 4.36741 0.0526784 4.24024 0.146447 4.14647C0.240215 4.0527 0.367392 4.00002 0.5 4.00002H12.293L9.146 0.854021C9.05211 0.760135 8.99937 0.632797 8.99937 0.500021C8.99937 0.367245 9.05211 0.239908 9.146 0.146021C9.23989 0.0521345 9.36722 -0.000610348 9.5 -0.000610352C9.63278 -0.000610355 9.76011 0.0521345 9.854 0.146021L13.854 4.14602C13.9006 4.19247 13.9375 4.24764 13.9627 4.30839C13.9879 4.36913 14.0009 4.43425 14.0009 4.50002C14.0009 4.56579 13.9879 4.63091 13.9627 4.69165C13.9375 4.7524 13.9006 4.80758 13.854 4.85402L9.854 8.85402C9.76011 8.94791 9.63278 9.00065 9.5 9.00065C9.36722 9.00065 9.23989 8.94791 9.146 8.85402C9.05211 8.76013 8.99937 8.6328 8.99937 8.50002C8.99937 8.36725 9.05211 8.23991 9.146 8.14602L12.293 5.00002H0.5C0.367392 5.00002 0.240215 4.94734 0.146447 4.85357C0.0526784 4.75981 0 4.63263 0 4.50002Z" />
</svg>
