<svg width="496" height="581" viewBox="0 0 496 581" fill="none" xmlns="http://www.w3.org/2000/svg">
<path d="M254.1 556.5C387.698 556.5 496 448.198 496 314.6C496 181.002 387.698 72.7 254.1 72.7C120.502 72.7 12.2 181.002 12.2 314.6C12.2 448.198 120.502 556.5 254.1 556.5Z" fill="white"/>
<path d="M328.7 540.7C328.7 540.7 223.3 565.2 180.9 522.9L196.1 421.7C200.7 392.6 198 336.7 220.2 316.8C224.5 313 228.7 311 228.7 311C244.3 303.5 272.1 299.4 298.8 299.3C331.2 299.2 364.6 323.7 373.1 355L338 437.1L328.7 540.7Z" fill="#2D61F1"/>
<path d="M318.3 367.7C318.3 367.7 365.5 458.7 342.1 463.5C265 479.4 220.2 492.5 220.2 492.5L216.3 522.5C217.5 527 372.4 523.1 390.7 502.3C403.7 487.6 420.9 453.6 384.2 380.1L373.1 355.1L318.3 367.7Z" fill="#FFAFA6"/>
<path d="M229.6 320.8L112 366.4L108.3 304.7L83.0999 295C83.0999 295 46.5999 394.1 92.2999 412.5C138 430.9 189.4 396.9 189.4 396.9L229.6 320.8Z" fill="#FFAFA6"/>
<path d="M244.2 305.7C203.1 318.8 178.7 334.1 120.9 358.2L150.6 424.4L201.8 408L244.2 305.7Z" fill="#2D61F1"/>
<path d="M311.3 355.1L341.1 424.4L408.4 412.1L363 334L309.4 355.1" fill="#2D61F1"/>
<path d="M340.2 321.9C291.8 326.3 324.9 397.7 337.3 419.3C338 420.5 339.8 419.4 339.2 418.2C326.9 396.4 293.9 329.9 340.4 323.1C341.1 323 340.9 321.9 340.2 321.9Z" fill="#363D5D"/>
<path d="M206 362.7C200 386.5 196 411.2 194.6 435.7C194.5 436.7 196.2 437 196.4 435.9C199.9 411.6 203.3 387.3 207.3 363C207.4 362.3 206.2 361.9 206 362.7Z" fill="#363D5D"/>
<path d="M319.4 230.9C320.1 220.7 320.9 210.5 321.6 200.2C329.6 197.9 333.8 187.7 330.6 179.9C327.4 172.1 318.3 167.9 310 169C315.2 165.4 314.8 157 310.5 152.3C306.2 147.7 299.5 146.2 293.2 145.9C286.9 145.7 280.5 146.4 274.3 145.3C268.8 144.3 263.4 141.8 257.9 142.5C252.4 143.2 247.1 149.4 250 154.2C242 153 233.3 152 226.2 155.8C219.1 159.7 215.5 170.6 221.6 175.9C217.6 178 216.6 183.8 218.8 187.7C221.1 191.6 225.7 193.7 230.2 194C234.7 194.3 239.2 193.2 243.6 192" fill="#363D5D"/>
<path d="M318.1 211L316.5 232.3C316.5 232.3 334.6 234.7 329.4 251.2C324.2 267.7 311.9 260.5 311.9 260.5C311.9 260.5 308.8 302.7 265.5 289.3C231.1 278.6 233.2 234.1 237.5 196C239.2 181.3 253.1 171.2 267.7 174L293.7 179.1C308.8 182 319.2 195.7 318.1 211Z" fill="#FFAFA6"/>
<path d="M316.5 249.9L304.8 312.1C302.2 326.1 288.4 335.1 274.5 331.8C261.7 328.7 253.4 316.2 255.7 303.2L262 267.6L316.5 249.9Z" fill="#FFAFA6"/>
<path d="M268.6 250.6C268.7 250.6 268.8 251.5 267.5 252.1C266.2 252.7 264.1 251.4 263.5 249.3C262.8 247.3 262.9 244.8 263 242.3C263.1 239.6 263.3 236.9 263.4 234C264.1 222.2 265.2 212.7 265.8 212.8C266.4 212.8 266.2 222.4 265.5 234.2C265.3 237.1 265.1 239.8 264.9 242.5C264.7 245 264.5 247.3 264.9 249C265.2 250.7 266.5 251.6 267.3 251.4C268.2 251.2 268.5 250.5 268.6 250.6Z" fill="#241352"/>
<path d="M254.6 284.9C254.8 284.6 256.8 286.1 260.4 287.6C263.9 289.2 269.2 290.8 275.1 291C281 291.1 286.3 289.7 289.9 288.3C293.5 286.9 295.6 285.5 295.8 285.8C295.9 286 294.1 287.8 290.5 289.6C286.9 291.4 281.3 293.2 275.1 293.1C268.8 293 263.3 291 259.8 289C256.2 287 254.4 285.1 254.6 284.9Z" fill="#241352"/>
<path d="M263 259.3C263.2 259.1 264.2 260 266 260.8C267.8 261.6 270.6 262.2 273.4 261.3C276.2 260.4 278.1 258.3 279.1 256.6C280.1 254.9 280.3 253.6 280.7 253.6C280.9 253.6 281.2 255 280.4 257.2C279.6 259.3 277.5 262.1 274 263.3C270.5 264.4 267.2 263.4 265.3 262.1C263.4 260.8 262.8 259.4 263 259.3Z" fill="#241352"/>
<path d="M317.8 253.2C317.8 252.9 318.8 252.7 320.1 252C320.7 251.6 321.2 251.1 321.4 250.3C321.6 249.5 321.4 248.8 320.8 248.6C320.3 248.4 319.8 248.6 319.7 248.8L318 247.9C319.6 244.5 321.1 242.2 321.5 242.4C321.9 242.6 321.2 245.2 319.8 248.7L318.1 247.8C318.8 246.6 320.4 246.3 321.6 246.7C322.4 247 323.2 247.8 323.4 248.6C323.6 249.4 323.5 250.2 323.3 250.9C322.8 252.2 321.7 253 320.8 253.3C318.9 253.9 317.8 253.4 317.8 253.2Z" fill="#241352"/>
<path d="M284.5 211.3C284.3 210.8 286.5 209.6 289.4 210.4C292.3 211.1 293.6 213.3 293.2 213.6C292.8 214 291.1 212.9 288.9 212.4C286.6 211.8 284.7 211.9 284.5 211.3Z" fill="#241352"/>
<path d="M247.1 205.4C246.8 204.9 249.1 203.4 252.2 203.7C255.3 204 257.3 205.8 257 206.2C256.7 206.7 254.6 205.9 252.1 205.7C249.5 205.5 247.3 205.9 247.1 205.4Z" fill="#241352"/>
<path d="M316.5 232.2C304.4 220.4 300.9 200.8 297.6 184.3C286.4 192.4 271 194.4 258.1 189.4C254.1 194.2 249.3 198.3 244 201.7C242.5 202.7 240.7 203.6 239 203.1C237 202.5 236.1 200.2 235.6 198.1C234.1 191.5 234 184.4 236.3 178.1C238.6 171.7 243.4 166.1 249.7 163.7C256.5 161.1 264.1 162.2 271.1 164C281.7 166.7 291.8 170.9 301.3 176.5C310.5 181.9 319.4 189.1 323.3 199C327.2 209 327.2 228.3 317.8 233.4" fill="#363D5D"/>
<path d="M287.8 228.6C287.2 228.6 286.9 227.1 287 225.3C287.1 223.5 287.7 222.1 288.3 222.1C288.9 222.1 289.2 223.6 289.1 225.4C288.9 227.2 288.3 228.7 287.8 228.6Z" fill="#241352"/>
<path d="M253 224.2C252.4 224.2 252.1 222.7 252.2 220.9C252.3 219.1 252.9 217.7 253.5 217.7C254.1 217.7 254.4 219.2 254.3 221C254.1 222.8 253.6 224.2 253 224.2Z" fill="#241352"/>
<path d="M81.8999 297C81.8999 297 87.0999 264.9 93.3999 265.3C99.6999 265.7 112.1 265.3 112.1 265.3C112.1 265.3 113.1 234.8 116.6 239.6C120.1 244.5 121.2 285.5 107.8 305.2L81.8999 297Z" fill="#FFAFA6"/>
<path d="M220.2 492.5C220.2 492.5 164.2 502.3 165.3 509.6C166.4 516.9 170.3 524.2 170.3 524.2L220.2 523V492.5Z" fill="#FFAFA6"/>
<path d="M280.9 525.9L280.5 518.1L165.2 511.1L126.6 407.7L0 414.6L43.2 526.5L280.9 525.9Z" fill="#003CC3"/>
<path opacity="0.41" d="M66.8001 469.9C68.5001 475.8 74.2001 479.3 79.7001 477.7C85.2001 476.2 88.2001 470.1 86.6001 464.3C84.9001 458.4 79.2001 454.9 73.7001 456.5C68.2001 458 65.1001 464 66.8001 469.9Z" fill="white"/>
<path opacity="0.41" d="M69.5999 469.1C70.7999 473.3 74.8999 475.8 78.7999 474.7C82.6999 473.6 84.8999 469.3 83.6999 465.1C82.4999 460.9 78.3999 458.4 74.4999 459.5C70.5999 460.6 68.3999 464.9 69.5999 469.1Z" fill="white"/>
<path d="M20.5 527.7L473.3 522C475.2 522 477.1 522.4 478.7 523.3C488 528.2 486.3 542 476 544.4C392.3 564.1 148.4 613 15.6 549.2C4.80003 544.1 8.50003 527.8 20.5 527.7Z" fill="#C4D8FF"/>
<path d="M36.4001 122.6C34.3001 126.6 41.1001 229.8 41.1001 229.8L91.9001 225.6L86.0001 252.9L110.8 224.9L160.5 219.2L157.5 119.1L36.4001 122.6Z" fill="#C4D8FF"/>
<path d="M274.4 45.1C274.4 45.1 248.9 46.4 248.1 73.6C248.1 73.6 248.5 88.5 256.6 94C264.7 99.5 264.2 105.5 264.2 105.5H285.4C285.4 105.5 284.6 97.9 287.9 93.6C291.3 89.4 299.8 80.4 298.5 67.3C297.3 54 287.5 43.8 274.4 45.1Z" fill="#FFB03F"/>
<path d="M263.8 112.1C271.4 111.7 279.1 112.6 286.7 112.1C287.8 112 288.2 110.3 287 110.1C279.6 108.6 271.2 109.4 263.8 110.3C262.6 110.4 262.6 112.1 263.8 112.1Z" fill="#2D61F1"/>
<path d="M266.7 118.7C269.7 118.5 272.8 118.4 275.8 118.4C278.8 118.4 281.9 118.9 284.9 118.7C286 118.6 286.3 117 285.2 116.7C279.4 115.2 272.3 116.1 266.4 116.9C265.5 117.1 265.7 118.8 266.7 118.7Z" fill="#2D61F1"/>
<path d="M269.2 123.7C271.9 123.9 274.6 124.6 277.3 124.6C278.6 124.6 278.9 122.7 277.6 122.3C275 121.5 271.9 121.8 269.2 121.9C268 121.9 268.1 123.6 269.2 123.7Z" fill="#2D61F1"/>
<path d="M270.4 105.1C271 97.5 268.4 89.2 267.2 81.8C266.5 82.1 265.7 82.4 265 82.7C266.1 84.5 267.8 89.5 270.6 89.3C273.4 89.1 274.5 84.1 274.9 82C274.1 82 273.3 82 272.5 82C273 84.3 273.1 90 276.8 89.4C279.9 88.9 282 84.3 282.9 81.8C282.1 81.6 281.2 81.3 280.4 81.1C278.5 88.5 277.6 97.9 279.5 105.3C279.8 106.6 282 106.4 281.9 105C281.7 97.2 280.6 89.5 282.9 81.8C283.4 80.2 281 79.6 280.4 81.1C280.1 82 278 86.9 276.2 86.3C275.7 86.1 275.1 81.7 275 81.3C274.7 80.1 272.8 80.1 272.6 81.3C272.3 82.8 271.7 87 269.9 85.7C268.9 85 267.9 82.4 267.3 81.3C266.6 80 264.9 80.9 265.1 82.2C266.3 89.6 266.6 98.3 269.6 105.2C269.6 106 270.4 105.6 270.4 105.1Z" fill="#2D61F1"/>
<path d="M195.4 95.7C206.7 92.1 218.4 89 229.5 84.6C230.4 84.3 230.1 82.9 229.1 83.1C217.6 86 206.2 90.2 194.9 93.9C193.8 94.3 194.3 96 195.4 95.7Z" fill="#FFB03F"/>
<path d="M209.3 61.9C216.4 61.8 223.9 62.2 230.9 61.3C232.1 61.1 232.1 59.5 230.9 59.4C223.8 58.9 216.4 59.7 209.3 59.9C208 59.9 208 62 209.3 61.9Z" fill="#FFB03F"/>
<path d="M243.6 49.5C235.6 42.5 227.9 33.8 218.8 28.2C217.4 27.3 216 29.3 217.1 30.4C224.1 38.4 234 44.3 242.2 50.9C243.1 51.8 244.6 50.4 243.6 49.5Z" fill="#FFB03F"/>
<path d="M261.6 38.8C261.7 36.6 259.9 34.4 258.8 32.5C257.5 30.3 256.4 27.7 254.6 25.9C253.7 25 251.9 25.9 252.4 27.2C253.3 29.6 255 31.8 256.4 33.9C257.6 35.7 258.7 38.3 260.8 39.2C261.2 39.4 261.6 39.2 261.6 38.8Z" fill="#FFB03F"/>
<path d="M278.6 34.2C278.9 23.4 279.3 11.9 278.1 1.2C277.9 -0.4 275.7 -0.4 275.6 1.2C274.8 12 275.7 23.4 276.4 34.2C276.5 35.6 278.6 35.7 278.6 34.2Z" fill="#FFB03F"/>
<path d="M291.3 39.4C294 35.4 296.9 31.4 298.9 27C299.6 25.5 297.6 24.3 296.6 25.7C293.8 29.7 291.7 34.1 289.5 38.4C289 39.6 290.5 40.5 291.3 39.4Z" fill="#FFB03F"/>
<path d="M301.3 48.4C306.9 46 312.3 42.9 317.6 39.9C322.3 37.3 327.6 35.1 331.7 31.6C332.6 30.8 331.6 29.3 330.6 29.6C325.5 31.3 320.8 34.6 316.1 37.3C310.8 40.3 305.3 43.2 300.4 46.8C299.3 47.5 300.2 48.8 301.3 48.4Z" fill="#FFB03F"/>
<path d="M308.1 62.5C312.1 63.9 318.9 62.9 322 59.9C323.1 58.9 321.9 57.4 320.7 57.6C318.6 58 316.6 59.1 314.5 59.6C312.4 60.1 310.2 60.1 308.1 60.5C307 60.7 307.2 62.2 308.1 62.5Z" fill="#FFB03F"/>
<path d="M309.8 82.2C325 86 340.8 90.4 356.4 92.4C358.3 92.6 358.5 89.7 356.8 89.2C341.9 84.8 325.8 82.5 310.5 79.8C308.9 79.5 308.2 81.8 309.8 82.2Z" fill="#FFB03F"/>
<path d="M64.2 168.8L74.9 206L89.9 203.1L88.4 195.6L92.6 193L100.6 200.9L125.9 196L129.2 186.3L122 184.7L131.3 181.6L129.3 171.2L121.2 171.9L132.3 168.9L129.8 156L104 161C104 161 105.7 143 98.1 137.1L92.3 138.2C92.3 138.2 94.3 143.9 94.1 147.3C93.9 150.8 88.9 166.9 88.9 166.9L81 170.6L79.1 165.4L64.2 168.8Z" fill="white"/>
</svg>
