<svg width="108" height="24" viewBox="0 0 108 24" fill="none" xmlns="http://www.w3.org/2000/svg">
<path d="M1.08 11.92C1.08 9.456 1.696 7.592 2.928 6.328C4.176 5.064 5.96 4.432 8.28 4.432C9.016 4.432 9.656 4.496 10.2 4.624C10.744 4.752 11.312 4.92 11.904 5.128C12.528 5.352 12.984 5.464 13.272 5.464C13.208 5.784 13.176 6.336 13.176 7.12C13.176 7.344 13.192 7.648 13.224 8.032C13.256 8.288 13.272 8.48 13.272 8.608H12.312C12.328 8.528 12.336 8.408 12.336 8.248C12.336 7.24 11.976 6.456 11.256 5.896C10.552 5.32 9.52 5.032 8.16 5.032C6.768 5.032 5.648 5.616 4.8 6.784C3.952 7.952 3.528 9.664 3.528 11.92C3.528 16.368 5.112 18.592 8.28 18.592C9 18.592 9.584 18.52 10.032 18.376C10.48 18.216 10.92 17.92 11.352 17.488V13.648C11.352 13.296 11.2 13.12 10.896 13.12L9.48 13.168V12.472H15.024V13.168L14.04 13.12C13.896 13.12 13.784 13.168 13.704 13.264C13.624 13.36 13.584 13.48 13.584 13.624V18.16C13.52 18.144 13.416 18.136 13.272 18.136C12.968 18.136 12.472 18.264 11.784 18.52C11.08 18.76 10.464 18.936 9.936 19.048C9.424 19.176 8.832 19.24 8.16 19.24C5.92 19.24 4.176 18.624 2.928 17.392C1.696 16.144 1.08 14.32 1.08 11.92ZM22.4036 8.68C23.0276 8.68 23.5076 8.856 23.8436 9.208C24.1956 9.56 24.3716 10.008 24.3716 10.552C24.3716 10.92 24.2756 11.2 24.0836 11.392C23.9076 11.584 23.6676 11.68 23.3636 11.68C23.1396 11.68 22.9316 11.624 22.7396 11.512C22.5636 11.384 22.4756 11.192 22.4756 10.936C22.4756 10.792 22.5076 10.608 22.5716 10.384C22.6356 10.16 22.6676 9.984 22.6676 9.856C22.6676 9.728 22.6196 9.616 22.5236 9.52C22.4436 9.408 22.3076 9.352 22.1156 9.352C21.6196 9.352 21.1876 9.592 20.8196 10.072C20.4516 10.536 20.1636 11.12 19.9556 11.824C19.7476 12.512 19.6276 13.176 19.5956 13.816V17.968C19.5956 18.272 19.6996 18.424 19.9076 18.424L21.3716 18.376V19H16.4516V18.376L17.2196 18.424C17.4276 18.424 17.5316 18.272 17.5316 17.968V9.976C17.5316 9.656 17.4276 9.496 17.2196 9.496L16.3556 9.544V8.92H19.7396C19.7076 9.016 19.6756 9.176 19.6436 9.4C19.6116 9.608 19.5956 9.816 19.5956 10.024V11.2C19.9636 10.304 20.3716 9.664 20.8196 9.28C21.2836 8.88 21.8116 8.68 22.4036 8.68ZM30.1562 8.68C31.4202 8.68 32.4362 9.088 33.2042 9.904C33.9882 10.704 34.3962 11.808 34.4282 13.216V13.912H27.5162C27.5162 15.368 27.7642 16.488 28.2602 17.272C28.7722 18.04 29.5322 18.432 30.5402 18.448C31.3402 18.448 32.0122 18.248 32.5562 17.848C33.1162 17.448 33.5242 16.952 33.7802 16.36L34.3322 16.768C34.0122 17.536 33.4682 18.144 32.7002 18.592C31.9482 19.024 31.1162 19.24 30.2042 19.24C26.9562 19.24 25.3322 17.488 25.3322 13.984C25.3322 12.24 25.7402 10.92 26.5562 10.024C27.3722 9.128 28.5722 8.68 30.1562 8.68ZM30.1562 9.328C29.2602 9.328 28.5962 9.696 28.1642 10.432C27.7482 11.168 27.5402 12.128 27.5402 13.312H31.9082C32.0682 13.312 32.1882 13.256 32.2682 13.144C32.3482 13.032 32.3882 12.824 32.3882 12.52C32.3882 11.432 32.2122 10.632 31.8602 10.12C31.5242 9.592 30.9562 9.328 30.1562 9.328ZM40.9374 8.68C42.2014 8.68 43.2174 9.088 43.9854 9.904C44.7694 10.704 45.1774 11.808 45.2094 13.216V13.912H38.2974C38.2974 15.368 38.5454 16.488 39.0414 17.272C39.5534 18.04 40.3134 18.432 41.3214 18.448C42.1214 18.448 42.7934 18.248 43.3374 17.848C43.8974 17.448 44.3054 16.952 44.5614 16.36L45.1134 16.768C44.7934 17.536 44.2494 18.144 43.4814 18.592C42.7294 19.024 41.8974 19.24 40.9854 19.24C37.7374 19.24 36.1134 17.488 36.1134 13.984C36.1134 12.24 36.5214 10.92 37.3374 10.024C38.1534 9.128 39.3534 8.68 40.9374 8.68ZM40.9374 9.328C40.0414 9.328 39.3774 9.696 38.9454 10.432C38.5294 11.168 38.3214 12.128 38.3214 13.312H42.6894C42.8494 13.312 42.9694 13.256 43.0494 13.144C43.1294 13.032 43.1694 12.824 43.1694 12.52C43.1694 11.432 42.9934 10.632 42.6414 10.12C42.3054 9.592 41.7374 9.328 40.9374 9.328ZM58.1747 18.376V19H53.4947V18.376L54.5987 18.424C54.8067 18.376 54.9107 18.224 54.9107 17.968V12.52C54.9107 11.752 54.8707 11.16 54.7907 10.744C54.7267 10.328 54.5827 10.008 54.3587 9.784C54.1347 9.56 53.7827 9.448 53.3027 9.448C52.3907 9.448 51.6467 9.84 51.0707 10.624C50.5107 11.392 50.2067 12.432 50.1587 13.744V17.968C50.1587 18.272 50.2627 18.424 50.4707 18.424L51.5747 18.376V19H46.8947V18.376L47.7827 18.424C47.9907 18.376 48.0947 18.224 48.0947 17.968V9.976C48.0947 9.704 47.9907 9.544 47.7827 9.496L46.8947 9.544V8.92H50.2787C50.1987 9.16 50.1587 9.44 50.1587 9.76V11.08C50.4947 10.328 50.9747 9.744 51.5987 9.328C52.2227 8.896 52.9427 8.68 53.7587 8.68C54.8947 8.68 55.7107 8.952 56.2067 9.496C56.7187 10.024 56.9747 10.888 56.9747 12.088V17.968C56.9747 18.272 57.0787 18.424 57.2867 18.424L58.1747 18.376ZM59.8401 15.592L60.4641 15.544C60.4641 16.136 60.6241 16.664 60.9441 17.128C61.2641 17.592 61.6881 17.952 62.2161 18.208C62.7441 18.464 63.3201 18.592 63.9441 18.592C64.5841 18.592 65.0801 18.432 65.4321 18.112C65.7841 17.776 65.9601 17.328 65.9601 16.768C65.9601 16.32 65.8321 15.952 65.5761 15.664C65.3201 15.376 64.8881 15.144 64.2801 14.968L61.9761 14.32C61.3361 14.128 60.8321 13.808 60.4641 13.36C60.0961 12.896 59.9121 12.328 59.9121 11.656C59.9121 10.776 60.2401 10.064 60.8961 9.52C61.5521 8.96 62.4481 8.68 63.5841 8.68C63.9041 8.68 64.1841 8.704 64.4241 8.752C64.6801 8.8 64.9921 8.88 65.3601 8.992C65.8561 9.136 66.2241 9.208 66.4641 9.208C66.7041 9.208 66.9281 9.144 67.1361 9.016L66.9921 11.752H66.4641C66.4641 11.112 66.2081 10.552 65.6961 10.072C65.2001 9.576 64.5201 9.328 63.6561 9.328C63.0481 9.328 62.5681 9.488 62.2161 9.808C61.8801 10.128 61.7121 10.536 61.7121 11.032C61.7121 11.816 62.2081 12.344 63.2001 12.616L65.5041 13.264C66.3201 13.488 66.8961 13.824 67.2321 14.272C67.5681 14.704 67.7361 15.272 67.7361 15.976C67.7361 17.016 67.3681 17.824 66.6321 18.4C65.8961 18.96 64.9361 19.24 63.7521 19.24C63.4161 19.24 63.0641 19.2 62.6961 19.12C62.3441 19.056 61.8001 18.92 61.0641 18.712C60.8241 18.648 60.6081 18.616 60.4161 18.616C60.0961 18.616 59.8641 18.664 59.7201 18.76L59.8401 15.592ZM72.6353 8.92H75.2753V9.52H72.6353V16.888C72.6353 17.496 72.7073 17.912 72.8513 18.136C72.9953 18.344 73.2513 18.448 73.6193 18.448C73.8593 18.448 74.1073 18.36 74.3633 18.184C74.6193 17.992 74.7873 17.76 74.8672 17.488L75.3713 17.8C75.0513 18.696 74.2033 19.144 72.8273 19.144C72.0113 19.144 71.4273 18.952 71.0753 18.568C70.7393 18.184 70.5713 17.56 70.5713 16.696V9.52H69.1313V8.92C69.7713 8.92 70.2593 8.864 70.5953 8.752C70.9313 8.624 71.1953 8.392 71.3873 8.056C71.5953 7.72 71.7873 7.192 71.9633 6.472H72.6353V8.92ZM76.8947 13.936C76.8947 12.304 77.3027 11.024 78.1187 10.096C78.9347 9.152 80.1347 8.68 81.7187 8.68C83.3027 8.68 84.5027 9.152 85.3187 10.096C86.1347 11.024 86.5427 12.304 86.5427 13.936C86.5427 15.6 86.1347 16.904 85.3187 17.848C84.5027 18.776 83.3027 19.24 81.7187 19.24C80.1347 19.24 78.9347 18.776 78.1187 17.848C77.3027 16.904 76.8947 15.6 76.8947 13.936ZM79.0787 13.984C79.0787 15.6 79.2787 16.776 79.6787 17.512C80.0947 18.232 80.7747 18.592 81.7187 18.592C82.6627 18.592 83.3347 18.232 83.7347 17.512C84.1507 16.776 84.3587 15.6 84.3587 13.984C84.3587 12.352 84.1507 11.168 83.7347 10.432C83.3347 9.696 82.6627 9.328 81.7187 9.328C80.7747 9.328 80.0947 9.696 79.6787 10.432C79.2787 11.168 79.0787 12.352 79.0787 13.984ZM94.263 8.68C94.887 8.68 95.367 8.856 95.703 9.208C96.055 9.56 96.231 10.008 96.231 10.552C96.231 10.92 96.135 11.2 95.943 11.392C95.767 11.584 95.527 11.68 95.223 11.68C94.999 11.68 94.791 11.624 94.599 11.512C94.423 11.384 94.335 11.192 94.335 10.936C94.335 10.792 94.367 10.608 94.431 10.384C94.495 10.16 94.527 9.984 94.527 9.856C94.527 9.728 94.479 9.616 94.383 9.52C94.303 9.408 94.167 9.352 93.975 9.352C93.479 9.352 93.047 9.592 92.679 10.072C92.311 10.536 92.023 11.12 91.815 11.824C91.607 12.512 91.487 13.176 91.455 13.816V17.968C91.455 18.272 91.559 18.424 91.767 18.424L93.231 18.376V19H88.311V18.376L89.079 18.424C89.287 18.424 89.391 18.272 89.391 17.968V9.976C89.391 9.656 89.287 9.496 89.079 9.496L88.215 9.544V8.92H91.599C91.567 9.016 91.535 9.176 91.503 9.4C91.471 9.608 91.455 9.816 91.455 10.024V11.2C91.823 10.304 92.231 9.664 92.679 9.28C93.143 8.88 93.671 8.68 94.263 8.68ZM102.016 8.68C103.28 8.68 104.296 9.088 105.064 9.904C105.848 10.704 106.256 11.808 106.288 13.216V13.912H99.3756C99.3756 15.368 99.6236 16.488 100.12 17.272C100.632 18.04 101.392 18.432 102.4 18.448C103.2 18.448 103.872 18.248 104.416 17.848C104.976 17.448 105.384 16.952 105.64 16.36L106.192 16.768C105.872 17.536 105.328 18.144 104.56 18.592C103.808 19.024 102.976 19.24 102.064 19.24C98.8156 19.24 97.1916 17.488 97.1916 13.984C97.1916 12.24 97.5996 10.92 98.4156 10.024C99.2316 9.128 100.432 8.68 102.016 8.68ZM102.016 9.328C101.12 9.328 100.456 9.696 100.024 10.432C99.6076 11.168 99.3996 12.128 99.3996 13.312H103.768C103.928 13.312 104.048 13.256 104.128 13.144C104.208 13.032 104.248 12.824 104.248 12.52C104.248 11.432 104.072 10.632 103.72 10.12C103.384 9.592 102.816 9.328 102.016 9.328Z" fill="white"/>
</svg>
