<svg width="1424" height="238" viewBox="0 0 1424 238" fill="none" xmlns="http://www.w3.org/2000/svg">
<path d="M183.534 42.96V52.56L171.054 51.92H170.414C166.787 51.92 164.974 54.16 164.974 58.64V235.92H155.374L30.2538 66V218.32C30.2538 223.013 32.2804 225.36 36.3338 225.36L52.0138 224.72V234H0.493751V224.72L12.9738 225.36C17.2404 225.36 19.3738 223.013 19.3738 218.32V58.64C19.3738 56.72 18.7338 55.12 17.4538 53.84C16.3871 52.3467 14.8938 51.7067 12.9738 51.92L0.493751 52.56V42.96H50.0938L154.094 184.4V58.32C154.094 54.0533 152.28 51.92 148.654 51.92H147.694L132.014 52.56V42.96H183.534ZM273.489 96.4C290.342 96.4 303.889 101.84 314.129 112.72C324.582 123.387 330.022 138.107 330.449 156.88V166.16H238.289C238.289 185.573 241.595 200.507 248.209 210.96C255.035 221.2 265.169 226.427 278.609 226.64C289.275 226.64 298.235 223.973 305.489 218.64C312.955 213.307 318.395 206.693 321.809 198.8L329.169 204.24C324.902 214.48 317.649 222.587 307.409 228.56C297.382 234.32 286.289 237.2 274.129 237.2C230.822 237.2 209.169 213.84 209.169 167.12C209.169 143.867 214.609 126.267 225.489 114.32C236.369 102.373 252.369 96.4 273.489 96.4ZM273.489 105.04C261.542 105.04 252.689 109.947 246.929 119.76C241.382 129.573 238.609 142.373 238.609 158.16H296.849C298.982 158.16 300.582 157.413 301.649 155.92C302.715 154.427 303.249 151.653 303.249 147.6C303.249 133.093 300.902 122.427 296.209 115.6C291.729 108.56 284.155 105.04 273.489 105.04ZM567.714 99.6V107.92L554.594 107.28C551.394 107.28 549.154 109.093 547.874 112.72L500.194 237.2H493.154L450.274 137.36L406.114 237.2H399.714L354.594 111.44C353.314 108.667 351.5 107.28 349.154 107.28L334.434 107.92V99.6H402.594V107.92L388.514 107.28H387.874C385.954 107.28 384.567 107.92 383.714 109.2C383.074 110.48 383.074 111.973 383.714 113.68L413.794 198.48L457.634 98H464.354L506.914 196.56L537.314 112.72L537.954 110.16C537.954 108.027 536.567 107.067 533.794 107.28L516.834 107.92V99.6H567.714ZM656.781 224.72L669.261 225.36C673.315 225.36 675.341 223.013 675.341 218.32V58.96C675.341 56.4 674.808 54.5867 673.741 53.52C672.675 52.24 670.755 51.7067 667.981 51.92L656.781 52.56V42.96H731.981C754.168 42.96 770.488 47.2267 780.941 55.76C791.608 64.08 796.941 76.9867 796.941 94.48C796.941 111.333 791.715 124.773 781.261 134.8C770.808 144.827 756.621 149.84 738.701 149.84H705.101V218.32C705.101 223.013 707.235 225.36 711.501 225.36L727.181 224.72V234H656.781V224.72ZM731.981 140.88C741.795 140.88 749.901 136.507 756.301 127.76C762.915 119.013 766.221 107.92 766.221 94.48C766.221 81.68 762.595 71.44 755.341 63.76C748.301 55.8667 738.808 51.92 726.861 51.92H708.941C708.088 51.92 707.235 52.3467 706.381 53.2C705.528 53.84 705.101 54.6933 705.101 55.76V140.88H731.981ZM819.481 225.68L831.321 226.32C834.095 225.68 835.481 223.653 835.481 220.24V14.16C835.481 10.5333 834.201 8.29332 831.641 7.44L819.801 8.07999V0.079998H863.001V220.24C863.001 224.293 864.388 226.32 867.161 226.32L878.681 225.68V234H819.481V225.68ZM1027.44 225.68V234H982.004C982.217 232.507 982.43 230.587 982.644 228.24C983.07 225.68 983.284 223.653 983.284 222.16L983.924 209.68C979.23 218.853 973.15 225.467 965.684 229.52C958.43 233.573 949.684 235.6 939.444 235.6C926.004 235.6 915.764 232.613 908.724 226.64C901.897 220.453 898.484 211.387 898.484 199.44C898.484 183.013 905.31 170.96 918.964 163.28C932.83 155.387 954.484 151.44 983.924 151.44V132.88C983.924 122.853 981.577 115.707 976.884 111.44C972.19 107.173 964.617 105.04 954.164 105.04C937.95 105.04 929.844 109.52 929.844 118.48C929.844 120.187 930.27 122.213 931.124 124.56C932.19 126.693 932.724 128.72 932.724 130.64C932.724 134.267 931.55 137.04 929.204 138.96C926.857 140.667 923.87 141.52 920.244 141.52C915.764 141.52 912.244 140.133 909.684 137.36C907.337 134.587 906.164 130.96 906.164 126.48C906.164 117.52 910.857 110.267 920.244 104.72C929.63 99.1733 942.217 96.4 958.004 96.4C993.63 96.4 1011.44 111.44 1011.44 141.52V220.24C1011.44 224.293 1012.83 226.32 1015.6 226.32L1027.44 225.68ZM949.044 224.08C958.43 224.08 966.43 220.24 973.044 212.56C979.657 204.667 983.284 194.533 983.924 182.16V160.08C963.87 160.08 949.47 163.067 940.724 169.04C931.977 174.8 927.604 184.08 927.604 196.88C927.604 205.84 929.417 212.667 933.044 217.36C936.884 221.84 942.217 224.08 949.044 224.08ZM1195.51 225.68V234H1133.11V225.68L1147.83 226.32C1150.6 225.68 1151.99 223.653 1151.99 220.24V147.6C1151.99 137.36 1151.45 129.467 1150.39 123.92C1149.53 118.373 1147.61 114.107 1144.63 111.12C1141.64 108.133 1136.95 106.64 1130.55 106.64C1118.39 106.64 1108.47 111.867 1100.79 122.32C1093.32 132.56 1089.27 146.427 1088.63 163.92V220.24C1088.63 224.293 1090.01 226.32 1092.79 226.32L1107.51 225.68V234H1045.11V225.68L1056.95 226.32C1059.72 225.68 1061.11 223.653 1061.11 220.24V113.68C1061.11 110.053 1059.72 107.92 1056.95 107.28L1045.11 107.92V99.6H1090.23C1089.16 102.8 1088.63 106.533 1088.63 110.8V128.4C1093.11 118.373 1099.51 110.587 1107.83 105.04C1116.15 99.28 1125.75 96.4 1136.63 96.4C1151.77 96.4 1162.65 100.027 1169.27 107.28C1176.09 114.32 1179.51 125.84 1179.51 141.84V220.24C1179.51 224.293 1180.89 226.32 1183.67 226.32L1195.51 225.68ZM1256.75 99.6H1291.95V107.6H1256.75V205.84C1256.75 213.947 1257.71 219.493 1259.63 222.48C1261.55 225.253 1264.96 226.64 1269.87 226.64C1273.07 226.64 1276.38 225.467 1279.79 223.12C1283.2 220.56 1285.44 217.467 1286.51 213.84L1293.23 218C1288.96 229.947 1277.66 235.92 1259.31 235.92C1248.43 235.92 1240.64 233.36 1235.95 228.24C1231.47 223.12 1229.23 214.8 1229.23 203.28V107.6H1210.03V99.6C1218.56 99.6 1225.07 98.8533 1229.55 97.36C1234.03 95.6533 1237.55 92.56 1240.11 88.08C1242.88 83.6 1245.44 76.56 1247.79 66.96H1256.75V99.6ZM1318.02 188.56L1326.34 187.92C1326.34 195.813 1328.48 202.853 1332.74 209.04C1337.01 215.227 1342.66 220.027 1349.7 223.44C1356.74 226.853 1364.42 228.56 1372.74 228.56C1381.28 228.56 1387.89 226.427 1392.58 222.16C1397.28 217.68 1399.62 211.707 1399.62 204.24C1399.62 198.267 1397.92 193.36 1394.5 189.52C1391.09 185.68 1385.33 182.587 1377.22 180.24L1346.5 171.6C1337.97 169.04 1331.25 164.773 1326.34 158.8C1321.44 152.613 1318.98 145.04 1318.98 136.08C1318.98 124.347 1323.36 114.853 1332.1 107.6C1340.85 100.133 1352.8 96.4 1367.94 96.4C1372.21 96.4 1375.94 96.72 1379.14 97.36C1382.56 98 1386.72 99.0667 1391.62 100.56C1398.24 102.48 1403.14 103.44 1406.34 103.44C1409.54 103.44 1412.53 102.587 1415.3 100.88L1413.38 137.36H1406.34C1406.34 128.827 1402.93 121.36 1396.1 114.96C1389.49 108.347 1380.42 105.04 1368.9 105.04C1360.8 105.04 1354.4 107.173 1349.7 111.44C1345.22 115.707 1342.98 121.147 1342.98 127.76C1342.98 138.213 1349.6 145.253 1362.82 148.88L1393.54 157.52C1404.42 160.507 1412.1 164.987 1416.58 170.96C1421.06 176.72 1423.3 184.293 1423.3 193.68C1423.3 207.547 1418.4 218.32 1408.58 226C1398.77 233.467 1385.97 237.2 1370.18 237.2C1365.7 237.2 1361.01 236.667 1356.1 235.6C1351.41 234.747 1344.16 232.933 1334.34 230.16C1331.14 229.307 1328.26 228.88 1325.7 228.88C1321.44 228.88 1318.34 229.52 1316.42 230.8L1318.02 188.56Z" fill="#EEF3EC"/>
</svg>
