<svg width="48" height="40" viewBox="0 0 48 40" fill="none" xmlns="http://www.w3.org/2000/svg">
<path d="M20.9898 1.75299C18.1695 4.30279 15.5661 7.3838 13.1797 10.996C10.9017 14.6082 9.76271 17.6361 9.76271 20.0797C9.76271 23.1607 11.7153 24.7012 15.6203 24.7012C17.5729 24.7012 18.9288 25.3918 19.6881 26.7729C20.4475 28.1541 20.8271 29.7477 20.8271 31.5538C20.8271 33.7849 19.8508 35.7503 17.8983 37.4502C16.0542 39.1501 13.8847 40 11.3898 40C7.59322 40 4.71864 38.8845 2.7661 36.6534C0.922034 34.3161 0 31.0226 0 26.7729C0 21.4608 1.84407 16.4675 5.5322 11.7928C9.22034 7.01195 13.3424 3.08101 17.8983 0L20.9898 1.75299ZM48 1.75299C45.1797 4.30279 42.5763 7.3838 40.1898 10.996C37.9119 14.6082 36.7729 17.6361 36.7729 20.0797C36.7729 23.1607 38.7254 24.7012 42.6305 24.7012C44.583 24.7012 45.939 25.3918 46.6983 26.7729C47.4576 28.1541 47.8373 29.7477 47.8373 31.5538C47.8373 33.7849 46.861 35.7503 44.9085 37.4502C43.0644 39.1501 40.8949 40 38.4 40C34.6034 40 31.7288 38.8845 29.7763 36.6534C27.9322 34.3161 27.0102 31.0226 27.0102 26.7729C27.0102 21.4608 28.8542 16.4675 32.5424 11.7928C36.2305 7.01195 40.3525 3.08101 44.9085 0L48 1.75299Z" fill="#C6D8C0"/>
</svg>
