<svg width="95" height="24" viewBox="0 0 95 24" fill="none" xmlns="http://www.w3.org/2000/svg">
<path d="M2.472 21V4.2H13.056V6.048H4.368V11.664H11.928V13.512H4.368V21H2.472ZM16.05 21V3.24H17.874V21H16.05ZM26.0777 21.24C24.9897 21.24 24.0057 20.96 23.1257 20.4C22.2457 19.824 21.5497 19.048 21.0377 18.072C20.5257 17.08 20.2697 15.96 20.2697 14.712C20.2697 13.448 20.5337 12.328 21.0617 11.352C21.5897 10.36 22.3017 9.584 23.1977 9.024C24.0937 8.464 25.0937 8.184 26.1977 8.184C27.2057 8.184 28.1017 8.416 28.8857 8.88C29.6857 9.344 30.2937 9.944 30.7097 10.68L30.7577 8.448H32.5817V21H30.7337V18.768C30.2857 19.472 29.6457 20.064 28.8137 20.544C27.9817 21.008 27.0697 21.24 26.0777 21.24ZM26.4857 19.488C27.3177 19.488 28.0617 19.288 28.7177 18.888C29.3737 18.472 29.8857 17.904 30.2537 17.184C30.6377 16.464 30.8297 15.632 30.8297 14.688C30.8297 13.776 30.6377 12.96 30.2537 12.24C29.8857 11.52 29.3737 10.96 28.7177 10.56C28.0617 10.144 27.3177 9.936 26.4857 9.936C25.6377 9.936 24.8857 10.144 24.2297 10.56C23.5897 10.96 23.0857 11.52 22.7177 12.24C22.3497 12.96 22.1657 13.776 22.1657 14.688C22.1657 15.616 22.3497 16.448 22.7177 17.184C23.0857 17.904 23.5897 18.472 24.2297 18.888C24.8857 19.288 25.6377 19.488 26.4857 19.488ZM38.8999 21L34.5319 8.448H36.4759L39.5719 17.808L42.9079 10.392H44.0119L47.2999 17.688L50.4199 8.448H52.3399L47.9959 21H46.9159L43.4119 12.96L40.0039 21H38.8999ZM54.5109 21V3.24H56.3349V21H54.5109ZM65.1866 21.24C63.9226 21.24 62.8026 20.968 61.8266 20.424C60.8666 19.88 60.1146 19.12 59.5706 18.144C59.0266 17.168 58.7546 16.048 58.7546 14.784C58.7546 13.504 59.0186 12.368 59.5466 11.376C60.0746 10.384 60.8106 9.608 61.7546 9.048C62.6986 8.472 63.7786 8.184 64.9946 8.184C66.1146 8.184 67.0986 8.448 67.9466 8.976C68.8106 9.488 69.4746 10.2 69.9386 11.112C70.4026 12.008 70.6186 13.048 70.5866 14.232L70.5626 15.072H60.6266C60.7066 16.432 61.1706 17.512 62.0186 18.312C62.8666 19.112 63.9946 19.512 65.4026 19.512C66.0106 19.512 66.6026 19.416 67.1786 19.224C67.7706 19.016 68.4186 18.616 69.1226 18.024L70.0586 19.344C69.4986 19.888 68.7866 20.344 67.9226 20.712C67.0586 21.064 66.1466 21.24 65.1866 21.24ZM64.9706 9.912C63.8186 9.912 62.8666 10.224 62.1146 10.848C61.3626 11.456 60.8906 12.352 60.6986 13.536H68.7386V13.392C68.7066 12.816 68.5386 12.264 68.2346 11.736C67.9306 11.192 67.4986 10.752 66.9386 10.416C66.3946 10.08 65.7386 9.912 64.9706 9.912ZM77.2941 21.24C76.2061 21.24 75.2381 21.048 74.3901 20.664C73.5581 20.264 72.8861 19.728 72.3741 19.056L73.6701 17.928C74.5821 19.064 75.8381 19.632 77.4381 19.632C78.2061 19.632 78.8301 19.464 79.3101 19.128C79.8061 18.776 80.0541 18.296 80.0541 17.688C80.0541 17.176 79.8301 16.752 79.3821 16.416C79.1741 16.256 78.8781 16.104 78.4941 15.96C78.1101 15.816 77.6461 15.664 77.1021 15.504C76.2061 15.264 75.4621 15.008 74.8701 14.736C74.2781 14.464 73.8141 14.152 73.4781 13.8C72.9981 13.256 72.7581 12.576 72.7581 11.76C72.7581 11.072 72.9421 10.464 73.3101 9.936C73.6941 9.392 74.2141 8.968 74.8701 8.664C75.5421 8.344 76.2941 8.184 77.1261 8.184C78.0221 8.184 78.8861 8.376 79.7181 8.76C80.5661 9.128 81.2541 9.608 81.7821 10.2L80.6541 11.424C80.1741 10.928 79.6381 10.528 79.0461 10.224C78.4701 9.92 77.8621 9.768 77.2221 9.768C76.4381 9.768 75.8061 9.944 75.3261 10.296C74.8621 10.648 74.6301 11.112 74.6301 11.688C74.6301 12.152 74.8141 12.536 75.1821 12.84C75.4061 13.016 75.7181 13.184 76.1181 13.344C76.5341 13.488 77.0461 13.64 77.6541 13.8C78.3421 13.992 78.9341 14.192 79.4301 14.4C79.9261 14.592 80.3341 14.824 80.6541 15.096C81.4541 15.704 81.8541 16.536 81.8541 17.592C81.8541 18.296 81.6541 18.928 81.2541 19.488C80.8541 20.032 80.3101 20.464 79.6221 20.784C78.9341 21.088 78.1581 21.24 77.2941 21.24ZM88.7784 21.24C87.6904 21.24 86.7224 21.048 85.8744 20.664C85.0424 20.264 84.3704 19.728 83.8584 19.056L85.1544 17.928C86.0664 19.064 87.3224 19.632 88.9224 19.632C89.6904 19.632 90.3144 19.464 90.7944 19.128C91.2904 18.776 91.5384 18.296 91.5384 17.688C91.5384 17.176 91.3144 16.752 90.8664 16.416C90.6584 16.256 90.3624 16.104 89.9784 15.96C89.5944 15.816 89.1304 15.664 88.5864 15.504C87.6904 15.264 86.9464 15.008 86.3544 14.736C85.7624 14.464 85.2984 14.152 84.9624 13.8C84.4824 13.256 84.2424 12.576 84.2424 11.76C84.2424 11.072 84.4264 10.464 84.7944 9.936C85.1784 9.392 85.6984 8.968 86.3544 8.664C87.0264 8.344 87.7784 8.184 88.6104 8.184C89.5064 8.184 90.3704 8.376 91.2024 8.76C92.0504 9.128 92.7384 9.608 93.2664 10.2L92.1384 11.424C91.6584 10.928 91.1224 10.528 90.5304 10.224C89.9544 9.92 89.3464 9.768 88.7064 9.768C87.9224 9.768 87.2904 9.944 86.8104 10.296C86.3464 10.648 86.1144 11.112 86.1144 11.688C86.1144 12.152 86.2984 12.536 86.6664 12.84C86.8904 13.016 87.2024 13.184 87.6024 13.344C88.0184 13.488 88.5304 13.64 89.1384 13.8C89.8264 13.992 90.4184 14.192 90.9144 14.4C91.4104 14.592 91.8184 14.824 92.1384 15.096C92.9384 15.704 93.3384 16.536 93.3384 17.592C93.3384 18.296 93.1384 18.928 92.7384 19.488C92.3384 20.032 91.7944 20.464 91.1064 20.784C90.4184 21.088 89.6424 21.24 88.7784 21.24Z" fill="#27272A"/>
</svg>
