<svg width="134" height="30" viewBox="0 0 134 30" fill="none" xmlns="http://www.w3.org/2000/svg">
<path d="M1.35 15.15C1.35 12.07 2.12 9.74 3.66 8.16C5.22 6.58 7.45 5.79 10.35 5.79C11.27 5.79 12.07 5.87 12.75 6.03C13.43 6.19 14.14 6.4 14.88 6.66C15.66 6.94 16.23 7.08 16.59 7.08C16.51 7.48 16.47 8.17 16.47 9.15C16.47 9.43 16.49 9.81 16.53 10.29C16.57 10.61 16.59 10.85 16.59 11.01H15.39C15.41 10.91 15.42 10.76 15.42 10.56C15.42 9.3 14.97 8.32 14.07 7.62C13.19 6.9 11.9 6.54 10.2 6.54C8.46 6.54 7.06 7.27 6 8.73C4.94 10.19 4.41 12.33 4.41 15.15C4.41 20.71 6.39 23.49 10.35 23.49C11.25 23.49 11.98 23.4 12.54 23.22C13.1 23.02 13.65 22.65 14.19 22.11V17.31C14.19 16.87 14 16.65 13.62 16.65L11.85 16.71V15.84H18.78V16.71L17.55 16.65C17.37 16.65 17.23 16.71 17.13 16.83C17.03 16.95 16.98 17.1 16.98 17.28V22.95C16.9 22.93 16.77 22.92 16.59 22.92C16.21 22.92 15.59 23.08 14.73 23.4C13.85 23.7 13.08 23.92 12.42 24.06C11.78 24.22 11.04 24.3 10.2 24.3C7.4 24.3 5.22 23.53 3.66 21.99C2.12 20.43 1.35 18.15 1.35 15.15ZM28.0045 11.1C28.7845 11.1 29.3845 11.32 29.8045 11.76C30.2445 12.2 30.4645 12.76 30.4645 13.44C30.4645 13.9 30.3445 14.25 30.1045 14.49C29.8845 14.73 29.5845 14.85 29.2045 14.85C28.9245 14.85 28.6645 14.78 28.4245 14.64C28.2045 14.48 28.0945 14.24 28.0945 13.92C28.0945 13.74 28.1345 13.51 28.2145 13.23C28.2945 12.95 28.3345 12.73 28.3345 12.57C28.3345 12.41 28.2745 12.27 28.1545 12.15C28.0545 12.01 27.8845 11.94 27.6445 11.94C27.0245 11.94 26.4845 12.24 26.0245 12.84C25.5645 13.42 25.2045 14.15 24.9445 15.03C24.6845 15.89 24.5345 16.72 24.4945 17.52V22.71C24.4945 23.09 24.6245 23.28 24.8845 23.28L26.7145 23.22V24H20.5645V23.22L21.5245 23.28C21.7845 23.28 21.9145 23.09 21.9145 22.71V12.72C21.9145 12.32 21.7845 12.12 21.5245 12.12L20.4445 12.18V11.4H24.6745C24.6345 11.52 24.5945 11.72 24.5545 12C24.5145 12.26 24.4945 12.52 24.4945 12.78V14.25C24.9545 13.13 25.4645 12.33 26.0245 11.85C26.6045 11.35 27.2645 11.1 28.0045 11.1ZM37.6952 11.1C39.2752 11.1 40.5452 11.61 41.5052 12.63C42.4852 13.63 42.9952 15.01 43.0352 16.77V17.64H34.3952C34.3952 19.46 34.7052 20.86 35.3252 21.84C35.9652 22.8 36.9152 23.29 38.1752 23.31C39.1752 23.31 40.0152 23.06 40.6952 22.56C41.3952 22.06 41.9052 21.44 42.2252 20.7L42.9152 21.21C42.5152 22.17 41.8352 22.93 40.8752 23.49C39.9352 24.03 38.8952 24.3 37.7552 24.3C33.6952 24.3 31.6652 22.11 31.6652 17.73C31.6652 15.55 32.1752 13.9 33.1952 12.78C34.2152 11.66 35.7152 11.1 37.6952 11.1ZM37.6952 11.91C36.5752 11.91 35.7452 12.37 35.2052 13.29C34.6852 14.21 34.4252 15.41 34.4252 16.89H39.8852C40.0852 16.89 40.2352 16.82 40.3352 16.68C40.4352 16.54 40.4852 16.28 40.4852 15.9C40.4852 14.54 40.2652 13.54 39.8252 12.9C39.4052 12.24 38.6952 11.91 37.6952 11.91ZM51.1718 11.1C52.7518 11.1 54.0218 11.61 54.9818 12.63C55.9618 13.63 56.4718 15.01 56.5118 16.77V17.64H47.8718C47.8718 19.46 48.1818 20.86 48.8018 21.84C49.4418 22.8 50.3918 23.29 51.6518 23.31C52.6518 23.31 53.4918 23.06 54.1718 22.56C54.8718 22.06 55.3818 21.44 55.7018 20.7L56.3918 21.21C55.9918 22.17 55.3118 22.93 54.3518 23.49C53.4118 24.03 52.3718 24.3 51.2318 24.3C47.1718 24.3 45.1418 22.11 45.1418 17.73C45.1418 15.55 45.6518 13.9 46.6718 12.78C47.6918 11.66 49.1918 11.1 51.1718 11.1ZM51.1718 11.91C50.0518 11.91 49.2218 12.37 48.6818 13.29C48.1618 14.21 47.9018 15.41 47.9018 16.89H53.3618C53.5618 16.89 53.7118 16.82 53.8118 16.68C53.9118 16.54 53.9618 16.28 53.9618 15.9C53.9618 14.54 53.7418 13.54 53.3018 12.9C52.8818 12.24 52.1718 11.91 51.1718 11.91ZM72.7184 23.22V24H66.8684V23.22L68.2484 23.28C68.5084 23.22 68.6384 23.03 68.6384 22.71V15.9C68.6384 14.94 68.5884 14.2 68.4884 13.68C68.4084 13.16 68.2284 12.76 67.9484 12.48C67.6684 12.2 67.2284 12.06 66.6284 12.06C65.4884 12.06 64.5584 12.55 63.8384 13.53C63.1384 14.49 62.7584 15.79 62.6984 17.43V22.71C62.6984 23.09 62.8284 23.28 63.0884 23.28L64.4684 23.22V24H58.6184V23.22L59.7284 23.28C59.9884 23.22 60.1184 23.03 60.1184 22.71V12.72C60.1184 12.38 59.9884 12.18 59.7284 12.12L58.6184 12.18V11.4H62.8484C62.7484 11.7 62.6984 12.05 62.6984 12.45V14.1C63.1184 13.16 63.7184 12.43 64.4984 11.91C65.2784 11.37 66.1784 11.1 67.1984 11.1C68.6184 11.1 69.6384 11.44 70.2584 12.12C70.8984 12.78 71.2184 13.86 71.2184 15.36V22.71C71.2184 23.09 71.3484 23.28 71.6084 23.28L72.7184 23.22ZM74.8001 19.74L75.5801 19.68C75.5801 20.42 75.7801 21.08 76.1801 21.66C76.5801 22.24 77.1101 22.69 77.7701 23.01C78.4301 23.33 79.1501 23.49 79.9301 23.49C80.7301 23.49 81.3501 23.29 81.7901 22.89C82.2301 22.47 82.4501 21.91 82.4501 21.21C82.4501 20.65 82.2901 20.19 81.9701 19.83C81.6501 19.47 81.1101 19.18 80.3501 18.96L77.4701 18.15C76.6701 17.91 76.0401 17.51 75.5801 16.95C75.1201 16.37 74.8901 15.66 74.8901 14.82C74.8901 13.72 75.3001 12.83 76.1201 12.15C76.9401 11.45 78.0601 11.1 79.4801 11.1C79.8801 11.1 80.2301 11.13 80.5301 11.19C80.8501 11.25 81.2401 11.35 81.7001 11.49C82.3201 11.67 82.7801 11.76 83.0801 11.76C83.3801 11.76 83.6601 11.68 83.9201 11.52L83.7401 14.94H83.0801C83.0801 14.14 82.7601 13.44 82.1201 12.84C81.5001 12.22 80.6501 11.91 79.5701 11.91C78.8101 11.91 78.2101 12.11 77.7701 12.51C77.3501 12.91 77.1401 13.42 77.1401 14.04C77.1401 15.02 77.7601 15.68 79.0001 16.02L81.8801 16.83C82.9001 17.11 83.6201 17.53 84.0401 18.09C84.4601 18.63 84.6701 19.34 84.6701 20.22C84.6701 21.52 84.2101 22.53 83.2901 23.25C82.3701 23.95 81.1701 24.3 79.6901 24.3C79.2701 24.3 78.8301 24.25 78.3701 24.15C77.9301 24.07 77.2501 23.9 76.3301 23.64C76.0301 23.56 75.7601 23.52 75.5201 23.52C75.1201 23.52 74.8301 23.58 74.6501 23.7L74.8001 19.74ZM90.7941 11.4H94.0941V12.15H90.7941V21.36C90.7941 22.12 90.8841 22.64 91.0641 22.92C91.2441 23.18 91.5641 23.31 92.0241 23.31C92.3241 23.31 92.6341 23.2 92.9541 22.98C93.2741 22.74 93.4841 22.45 93.5841 22.11L94.2141 22.5C93.8141 23.62 92.7541 24.18 91.0341 24.18C90.0141 24.18 89.2841 23.94 88.8441 23.46C88.4241 22.98 88.2141 22.2 88.2141 21.12V12.15H86.4141V11.4C87.2141 11.4 87.8241 11.33 88.2441 11.19C88.6641 11.03 88.9941 10.74 89.2341 10.32C89.4941 9.9 89.7341 9.24 89.9541 8.34H90.7941V11.4ZM96.1184 17.67C96.1184 15.63 96.6284 14.03 97.6484 12.87C98.6684 11.69 100.168 11.1 102.148 11.1C104.128 11.1 105.628 11.69 106.648 12.87C107.668 14.03 108.178 15.63 108.178 17.67C108.178 19.75 107.668 21.38 106.648 22.56C105.628 23.72 104.128 24.3 102.148 24.3C100.168 24.3 98.6684 23.72 97.6484 22.56C96.6284 21.38 96.1184 19.75 96.1184 17.67ZM98.8484 17.73C98.8484 19.75 99.0984 21.22 99.5984 22.14C100.118 23.04 100.968 23.49 102.148 23.49C103.328 23.49 104.168 23.04 104.668 22.14C105.188 21.22 105.448 19.75 105.448 17.73C105.448 15.69 105.188 14.21 104.668 13.29C104.168 12.37 103.328 11.91 102.148 11.91C100.968 11.91 100.118 12.37 99.5984 13.29C99.0984 14.21 98.8484 15.69 98.8484 17.73ZM117.829 11.1C118.609 11.1 119.209 11.32 119.629 11.76C120.069 12.2 120.289 12.76 120.289 13.44C120.289 13.9 120.169 14.25 119.929 14.49C119.709 14.73 119.409 14.85 119.029 14.85C118.749 14.85 118.489 14.78 118.249 14.64C118.029 14.48 117.919 14.24 117.919 13.92C117.919 13.74 117.959 13.51 118.039 13.23C118.119 12.95 118.159 12.73 118.159 12.57C118.159 12.41 118.099 12.27 117.979 12.15C117.879 12.01 117.709 11.94 117.469 11.94C116.849 11.94 116.309 12.24 115.849 12.84C115.389 13.42 115.029 14.15 114.769 15.03C114.509 15.89 114.359 16.72 114.319 17.52V22.71C114.319 23.09 114.449 23.28 114.709 23.28L116.539 23.22V24H110.389V23.22L111.349 23.28C111.609 23.28 111.739 23.09 111.739 22.71V12.72C111.739 12.32 111.609 12.12 111.349 12.12L110.269 12.18V11.4H114.499C114.459 11.52 114.419 11.72 114.379 12C114.339 12.26 114.319 12.52 114.319 12.78V14.25C114.779 13.13 115.289 12.33 115.849 11.85C116.429 11.35 117.089 11.1 117.829 11.1ZM127.519 11.1C129.099 11.1 130.369 11.61 131.329 12.63C132.309 13.63 132.819 15.01 132.859 16.77V17.64H124.219C124.219 19.46 124.529 20.86 125.149 21.84C125.789 22.8 126.739 23.29 127.999 23.31C128.999 23.31 129.839 23.06 130.519 22.56C131.219 22.06 131.729 21.44 132.049 20.7L132.739 21.21C132.339 22.17 131.659 22.93 130.699 23.49C129.759 24.03 128.719 24.3 127.579 24.3C123.519 24.3 121.489 22.11 121.489 17.73C121.489 15.55 121.999 13.9 123.019 12.78C124.039 11.66 125.539 11.1 127.519 11.1ZM127.519 11.91C126.399 11.91 125.569 12.37 125.029 13.29C124.509 14.21 124.249 15.41 124.249 16.89H129.709C129.909 16.89 130.059 16.82 130.159 16.68C130.259 16.54 130.309 16.28 130.309 15.9C130.309 14.54 130.089 13.54 129.649 12.9C129.229 12.24 128.519 11.91 127.519 11.91Z" fill="#26222F"/>
</svg>
