<svg id="Layer_1" data-name="Layer 1" xmlns="http://www.w3.org/2000/svg" viewBox="0 0 3565.8999 1780.5"><defs><style>.cls-1{fill:#fff;}</style></defs><path class="cls-1" d="M3177.15415,1445.44727a513.74322,513.74322,0,0,1-440.53142,249.42492h-359.9782a4.402,4.402,0,0,1-1.08447-.09033h0a9.83211,9.83211,0,0,1-6.6875-3.7052l-351.18335-426.64355-5.42224-6.59717L1738.98376,1470.48a10.28214,10.28214,0,0,1-6.14526,2.07861l-490.17468.27112a10.1552,10.1552,0,0,1-9.94092-8.04309l-19.79138-92.90185L969.019,1691.52832a8.52064,8.52064,0,0,1-6.6875,3.34375H180.43793a8.38861,8.38861,0,0,1-8.40454-8.37256c0-.01062,0-.02136,0-.032a8.17709,8.17709,0,0,1,1.53631-4.78967L1019.2655,475.21921,938.65424,99.81628a10.19716,10.19716,0,0,1,7.77191-12.10978,8.913,8.913,0,0,1,2.16894-.27111l654.47-1.80742a10.1479,10.1479,0,0,1,9.85047,7.5912l183.72509,699.56519,270.301-321.4512a10.08154,10.08154,0,0,1,14.19482-1.33542c.02832.02326.05616.04666.084.07022a10.93158,10.93158,0,0,1,1.446,1.446l168.99439,214.27075.99414,1.2652L2491.77759,90.508c.54223-1.44593,1.446.18075,2.53052-.81334h0c1.08447-.723,2.43994-3.97634,3.886-3.97634H3152.4834c2.25928.54223,4.15722,1.08445,4.97046,1.2652h.09057a.31452.31452,0,0,1,.18067.09037h.09057c3.61475,1.53631,14.73047,6.68748,14.8208,6.77786S3275.75,136.14558,3335.84692,252.63437c34.61231,67.0556,58.01831,154.264,58.01831,256.203v12.74234c.09034,3.886-5.51245,64.43488-5.51245,64.43488-3.52441,30.907-16.89941,55.84955-32.08178,82.961l-2.80152,3.97638c-31.72046,52.68652-80.43066,107.542-158.24048,145.94989-38.13671,18.79724-81.87671,34.793-134.92456,42.11309,0,0,2.71118,1.80744,4.87989,3.25336,13.8269,9.66974,69.67651,47.71613,113.50659,127.60449,34.34106,62.537,59.82593,148.57068,56.8435,258.28162,0,.994-.09057,1.98816-.09057,3.07263.36133,12.47131-1.717,114.50061-58.28955,192.22Z"/></svg>