<svg id="Layer_1" data-name="Layer 1" xmlns="http://www.w3.org/2000/svg" viewBox="0 0 1366 768"><defs><style>.cls-1{fill:#c7c7c7;stroke:#000;stroke-miterlimit:10;}</style></defs><path class="cls-1" d="M1342.07837,259.19324c-1.445,12.67193-6.92883,22.8984-13.15357,34.01413l-1.14868,1.63031a153.895,153.895,0,0,1-64.8789,59.83969,177.91909,177.91909,0,0,1-55.31934,17.26642l2.00073,1.33389c5.66895,3.96463,28.56751,19.56369,46.53785,52.31805,14.08,25.64026,24.52868,60.91422,23.3059,105.89591,0,.40753-.03711.81512-.03711,1.25976.1482,5.11322-.704,46.94544-23.8988,78.81049-18.67444,25.60321-48.42749,48.57574-89.18518,57.83887l30.67944,37.71942c2.186,2.74188.667,6.70648-2.853,6.70648H927.27612a1.80348,1.80348,0,0,1-.44458-.037h0a4.03114,4.03114,0,0,1-2.74182-1.51916L780.10388,537.346l-2.22314-2.70484L665.83417,621.8255a4.21576,4.21576,0,0,1-2.51959.85223l-200.97245.11115a4.16371,4.16371,0,0,1-4.07577-3.29767l-8.1145-38.0899L350.1474,712.45575a3.49341,3.49341,0,0,1-2.74188,1.37091H26.82779a3.43937,3.43937,0,0,1-3.44588-3.4328c0-.00439,0-.00873,0-.01312a3.35258,3.35258,0,0,1,.6299-1.96381l346.73673-494.65L337.69778,59.85113a4.18086,4.18086,0,0,1,3.1865-4.965,3.65462,3.65462,0,0,1,.88925-.11115l268.33377-.741a4.16066,4.16066,0,0,1,4.0387,3.1124l75.32769,286.82286L800.29755,212.17371a4.1335,4.1335,0,0,1,5.81994-.54752l.03437.02878a4.47785,4.47785,0,0,1,.59289.59285l69.28809,87.85133.40759.51874L974.481,56.03473c.22235-.59284.59289.0741,1.03747-.33347h0c.44464-.29642,1.00043-1.63031,1.59327-1.63031h268.2597c.92627.22232,1.70447.44463,2.03784.51873h.03711a.12936.12936,0,0,1,.0741.03706h.03711c1.482.62989,6.03955,2.74188,6.07654,2.77893s42.27685,17.34054,66.91674,65.10114c14.19117,27.49292,23.7876,63.24852,23.7876,105.04367v5.22439C1344.37549,234.36813,1342.07837,259.19324,1342.07837,259.19324Z"/></svg>